<?xml version="1.0" encoding="utf-8"?>
<!-- Generator: Adobe Illustrator 22.0.1, SVG Export Plug-In . SVG Version: 6.00 Build 0)  -->
<svg version="1.1" id="Layer_1" xmlns="http://www.w3.org/2000/svg" xmlns:xlink="http://www.w3.org/1999/xlink" x="0px" y="0px"
	 viewBox="0 0 100 100" style="enable-background:new 0 0 100 100;" xml:space="preserve">
<path style="fill:#333333;" d="M73,68l-11.4-2.8l-1-3.9c3-3,5.1-7.2,5.8-11.4c1.7-0.5,3-1.9,3.2-3.7l0.7-5.9
	c0.2-1.3-0.2-2.5-1.1-3.5c-0.5-0.6-1.1-1-1.8-1.2l0.3-5.6l1.1-1.1c1.7-1.8,3.1-4.8,0.2-9.3c-2.2-3.4-6-5.1-11.3-5.1
	c-2.1,0-6.8,0-11.3,3c-12.7,0.3-14.4,6.1-14.4,11.9c0,1.3,0.3,4.3,0.5,6.2c-0.8,0.2-1.5,0.7-2,1.3c-0.8,1-1.2,2.2-1.1,3.5l0.7,5.9
	c0.2,1.9,1.7,3.5,3.6,3.8C34.6,54,36.5,58,39.4,61l-1,4.1L27,68c-7.5,1.9-12.7,8.5-12.7,16.2c0,0.8,0.7,1.5,1.5,1.5h68.4
	c0.8,0,1.5-0.7,1.5-1.5C85.7,76.5,80.5,69.8,73,68z"/>
</svg>
