<?xml version="1.0" encoding="utf-8"?>
<!-- Generator: Adobe Illustrator 22.0.1, SVG Export Plug-In . SVG Version: 6.00 Build 0)  -->
<svg version="1.1" id="Layer_1" xmlns="http://www.w3.org/2000/svg" xmlns:xlink="http://www.w3.org/1999/xlink" x="0px" y="0px"
	 viewBox="0 0 100 100" style="enable-background:new 0 0 100 100;" xml:space="preserve">
<path style="fill:#333333;" d="M73.1,67.8l-11.9-3l-0.7-2.8c8.2-1.4,12.5-3.8,12.6-4c0.4-0.3,0.7-0.7,0.8-1.2c0-0.5-0.2-1-0.6-1.3
	c-0.1,0-5.6-4.6-5.6-20.5c0-13.4-3.1-20.2-9.3-20.2h-0.9c-2.2-2.2-3.9-3.1-8.4-3.1c-5.8,0-18.7,5.9-18.7,23.3
	c0,15.9-5.6,20.5-5.6,20.5c-0.4,0.3-0.6,0.8-0.6,1.3c0,0.5,0.3,1,0.8,1.3c0.2,0.1,4.4,2.6,12.6,4l-0.7,2.7l-11.9,3
	c-7.8,2-13.2,8.9-13.2,17c0,0.9,0.7,1.6,1.6,1.6h71.6c0.9,0,1.6-0.7,1.6-1.6C86.3,76.7,80.9,69.8,73.1,67.8z"/>
</svg>
