<?xml version="1.0" encoding="utf-8"?>
<!-- Generator: Adobe Illustrator 22.0.1, SVG Export Plug-In . SVG Version: 6.00 Build 0)  -->
<svg version="1.1" id="Layer_1" xmlns="http://www.w3.org/2000/svg" xmlns:xlink="http://www.w3.org/1999/xlink" x="0px" y="0px"
	 viewBox="0 0 600 300" style="enable-background:new 0 0 600 300;" xml:space="preserve">
<style type="text/css">
	.st0{fill:none;stroke:#000000;stroke-width:5;stroke-miterlimit:10;}
	.st1{display:none;fill:#FFEDEF;}
	.st2{clip-path:url(#SVGID_2_);}
	.st3{fill:#45227A;}
	.st4{fill:#4D2A79;}
	.st5{fill:#613F7B;}
	.st6{fill:#D21949;}
	.st7{fill:#FFDE7F;}
	.st8{display:none;fill:#D21949;}
	.st9{display:none;}
	.st10{display:inline;fill:#FFDE7F;}
	.st11{clip-path:url(#SVGID_4_);}
	.st12{fill:#DB6363;}
	.st13{fill:#ED6D6F;}
	.st14{fill:#EB6C70;}
	.st15{fill:#FB8488;}
	.st16{fill:#6C2340;}
	.st17{fill:#A31735;}
</style>
<g>
	<g>
		<path d="M-1457.6,1679.9c1.8-58.3,15.5-70.9,29-84.5c13.4-13.6,38-23.3,39.8-39.8c1.8-16.5,2.4-128,4.2-159.1
			c1.8-31.1,8.9-85.9,9-85.9l0,0c-4.7-2.1-8.1-7.1-8.1-13c0-7.8,5.8-14.1,13-14.1h36.7h6.2h36.7c7.2,0,13,6.3,13,14.1
			c0,5.9-3.3,10.9-8.1,13l0,0c0.1,0,7.2,54.8,9,85.9s2.4,142.6,4.2,159.1c1.8,16.5,26.4,26.2,39.8,39.8c13.4,13.6,27.2,26.2,29,84.5
			c1.8,58.3,0,370.8,0,370.8s2.7,45.6-9.9,63.1c-12.5,17.5-63.4,16.5-94.8,15.5c-5-0.2-39-0.2-44,0c-31.4,1-82.2,1.9-94.8-15.5
			c-12.5-17.5-9.9-63.1-9.9-63.1S-1459.4,1738.2-1457.6,1679.9z"/>
	</g>
</g>
<circle class="st0" cx="39.5" cy="2228" r="328"/>
<polygon class="st0" points="39.5,2228 -22.5,1860 101.5,1860 "/>
<path class="st1" d="M135,925.5c-46-53-46-106-46-106s72,53,100,53C189,872.5,152,887.5,135,925.5z"/>
<path class="st1" d="M399,925.5c46-53,46-106,46-106s-72,53-100,53C345,872.5,382,887.5,399,925.5z"/>
<circle class="st1" cx="269" cy="995.5" r="152"/>
<g>
	<defs>
		<rect id="SVGID_1_" y="0.5" width="600" height="300"/>
	</defs>
	<clipPath id="SVGID_2_">
		<use xlink:href="#SVGID_1_"  style="overflow:visible;"/>
	</clipPath>
	<g class="st2">
		<rect x="-44" y="-30.5" class="st3" width="678" height="356"/>
		<circle class="st4" cx="300" cy="237.5" r="229"/>
		<circle class="st5" cx="300" cy="245.5" r="211"/>
		<g>
			<path class="st6" d="M299.9,246.5L269.4,73.8c-20.8,3.7-40,10.8-57.3,20.8L299.9,246.5z"/>
			<path class="st7" d="M299.9,246.5L212.1,94.6c-18.3,10.5-33.9,23.9-46.7,39.1L299.9,246.5z"/>
			<path class="st6" d="M299.9,246.5L165.5,133.7c-13.5,16.1-23.7,34-30.5,52.7L299.9,246.5z"/>
			<path class="st7" d="M299.9,246.5l-164.8-60c-7.2,19.8-10.6,40.1-10.6,60L299.9,246.5z"/>
			<path class="st6" d="M299.9,246.5H124.4c0,21.1,3.7,41.3,10.5,60L299.9,246.5z"/>
			<path class="st7" d="M299.9,246.5l-164.8,60c7.2,19.8,17.6,37.5,30.4,52.8L299.9,246.5z"/>
			<path class="st6" d="M299.9,246.5L165.5,359.3c13.5,16.1,29.4,29.2,46.6,39.2L299.9,246.5z"/>
			<path class="st7" d="M299.9,246.5l-87.7,151.9c18.3,10.5,37.6,17.4,57.2,20.9L299.9,246.5z"/>
			<path class="st6" d="M299.9,246.5l-30.5,172.7c20.8,3.7,41.3,3.5,60.9,0L299.9,246.5z"/>
			<path class="st7" d="M299.9,246.5l30.5,172.7c20.8-3.7,40-10.8,57.3-20.8L299.9,246.5z"/>
			<path class="st6" d="M299.9,246.5l87.7,151.9c18.3-10.5,33.9-23.9,46.7-39.1L299.9,246.5z"/>
			<path class="st7" d="M299.9,246.5l134.4,112.8c13.5-16.1,23.7-34,30.5-52.7L299.9,246.5z"/>
			<path class="st6" d="M299.9,246.5l164.8,60c7.2-19.8,10.6-40.1,10.6-60L299.9,246.5z"/>
			<path class="st7" d="M299.9,246.5h175.4c0-21.1-3.7-41.3-10.5-60L299.9,246.5z"/>
			<path class="st6" d="M299.9,246.5l164.8-60c-7.2-19.8-17.6-37.5-30.4-52.8L299.9,246.5z"/>
			<path class="st7" d="M299.9,246.5l134.4-112.8c-13.5-16.1-29.4-29.2-46.6-39.2L299.9,246.5z"/>
			<path class="st6" d="M299.9,246.5l87.7-151.9c-18.3-10.5-37.6-17.4-57.2-20.9L299.9,246.5z"/>
			<path class="st7" d="M299.9,246.5l30.5-172.7c-20.8-3.7-41.3-3.5-60.9,0L299.9,246.5z"/>
			<path class="st8" d="M299.6,425.7c-85.8,0-162-61.6-177.4-148.9C104.9,178.9,170.5,85.3,268.4,68c47.4-8.4,95.2,2.2,134.7,29.9
				c39.4,27.6,65.8,68.9,74.1,116.3C494.4,312.1,428.8,405.7,331,423C320.4,424.9,309.9,425.7,299.6,425.7z M299.8,74.8
				c-9.8,0-19.7,0.8-29.7,2.6c-92.7,16.3-154.8,105-138.4,197.7c16.3,92.7,105,154.8,197.7,138.4c92.7-16.3,154.8-105,138.4-197.7
				l0,0C453.2,133.2,381,74.8,299.8,74.8z"/>
			<g class="st9">
				<circle class="st10" cx="269.2" cy="72.7" r="7.5"/>
				<circle class="st10" cx="211.6" cy="93.7" r="7.5"/>
				<circle class="st10" cx="164.7" cy="133.1" r="7.5"/>
				<circle class="st10" cx="134.1" cy="186.2" r="7.5"/>
				<circle class="st10" cx="123.4" cy="246.5" r="7.5"/>
				<circle class="st10" cx="134.1" cy="306.8" r="7.5"/>
				<circle class="st10" cx="164.7" cy="359.9" r="7.5"/>
				<circle class="st10" cx="211.6" cy="399.3" r="7.5"/>
				<circle class="st10" cx="269.2" cy="420.3" r="7.5"/>
				<circle class="st10" cx="330.5" cy="420.3" r="7.5"/>
				<circle class="st10" cx="388.1" cy="399.3" r="7.5"/>
				<circle class="st10" cx="435" cy="359.9" r="7.5"/>
				<circle class="st10" cx="465.7" cy="306.8" r="7.5"/>
				<circle class="st10" cx="476.3" cy="246.5" r="7.5"/>
				<circle class="st10" cx="465.7" cy="186.2" r="7.5"/>
				<circle class="st10" cx="435" cy="133.1" r="7.5"/>
				<circle class="st10" cx="388.1" cy="93.7" r="7.5"/>
				<circle class="st10" cx="330.5" cy="72.7" r="7.5"/>
			</g>
		</g>
		<g>
			<g>
				<path class="st7" d="M223.6,213.1c-9.5-21-6.8-27.8-4.4-35c2.4-7.1,9.4-14.8,7.2-21c-2.2-6.2-21.3-45.8-26.1-57.1
					s-11.7-32-11.7-32l0,0c-2,0.1-4.1-1.1-5.1-3.2c-1.4-2.8-0.4-6,2.2-7.2l13-6.4l2.2-1.1l13-6.4c2.6-1.2,5.7,0,7,2.7
					c1,2.1,0.7,4.4-0.6,6l0,0c0,0,12,18.2,18.1,28.9s25.5,50.1,29,55.6c3.5,5.5,13.9,4.7,21,7.2c7.1,2.5,14.2,4.6,24.9,24.9
					c10.7,20.3,64.2,131.3,64.2,131.3s8.8,15.7,7.4,24.1c-1.4,8.4-19.6,16.8-30.9,21.9c-1.8,0.8-13.8,6.7-15.6,7.6
					c-10.9,5.8-28.8,14.9-36.3,10.9c-7.5-4-14.4-20.6-14.4-20.6S233,234.1,223.6,213.1z"/>
			</g>
		</g>
		<g>
			<g>
				<path class="st3" d="M229.6,218.1c-9.5-21-6.8-27.8-4.4-35c2.4-7.1,9.4-14.8,7.2-21c-2.2-6.2-21.3-45.8-26.1-57.1
					s-11.7-32-11.7-32l0,0c-2,0.1-4.1-1.1-5.1-3.2c-1.4-2.8-0.4-6,2.2-7.2l13-6.4l2.2-1.1l13-6.4c2.6-1.2,5.7,0,7,2.7
					c1,2.1,0.7,4.4-0.6,6l0,0c0,0,12,18.2,18.1,28.9s25.5,50.1,29,55.6c3.5,5.5,13.9,4.7,21,7.2c7.1,2.5,14.2,4.6,24.9,24.9
					c10.7,20.3,64.2,131.3,64.2,131.3s8.8,15.7,7.4,24.1c-1.4,8.4-19.6,16.8-30.9,21.9c-1.8,0.8-13.8,6.7-15.6,7.6
					c-10.9,5.8-28.8,14.9-36.3,10.9c-7.5-4-14.4-20.6-14.4-20.6S239,239.1,229.6,218.1z"/>
			</g>
		</g>
	</g>
</g>
<g>
	<defs>
		<rect id="SVGID_3_" y="738.5" width="600" height="300"/>
	</defs>
	<clipPath id="SVGID_4_">
		<use xlink:href="#SVGID_3_"  style="overflow:visible;"/>
	</clipPath>
	<g class="st11">
		<rect x="-44" y="707.5" class="st12" width="678" height="356"/>
		<path class="st13" d="M-90,1056.5c3-4,39-68,105-91s56-56,56-56l10,33c0,0-21-4,43-10s135-22.3,145-20.6s118.4-45.4,163.2-39.4
			s71.8,21,96.8-1s122-68,122-68s66-9,69,0s29,226,29,226l-71,81l-634,51L-90,1056.5z"/>
		<g>
			<path class="st14" d="M304.9,928.5l-30.5-172.7c-20.8,3.7-40,10.8-57.3,20.8L304.9,928.5z"/>
			<path class="st15" d="M304.9,928.5l-87.7-151.9c-18.3,10.5-33.9,23.9-46.7,39.1L304.9,928.5z"/>
			<path class="st14" d="M304.9,928.5L170.5,815.7c-13.5,16.1-23.7,34-30.5,52.7L304.9,928.5z"/>
			<path class="st15" d="M304.9,928.5l-164.8-60c-7.2,19.8-10.6,40.1-10.6,60H304.9z"/>
			<path class="st14" d="M304.9,928.5H129.4c0,21.1,3.7,41.3,10.5,60L304.9,928.5z"/>
			<path class="st7" d="M304.9,928.5l-164.8,60c7.2,19.8,17.6,37.5,30.4,52.8L304.9,928.5z"/>
			<path class="st6" d="M304.9,928.5l-134.4,112.8c13.5,16.1,29.4,29.2,46.6,39.2L304.9,928.5z"/>
			<path class="st7" d="M304.9,928.5l-87.7,151.9c18.3,10.5,37.6,17.4,57.2,20.9L304.9,928.5z"/>
			<path class="st6" d="M304.9,928.5l-30.5,172.7c20.8,3.7,41.3,3.5,60.9,0L304.9,928.5z"/>
			<path class="st7" d="M304.9,928.5l30.5,172.7c20.8-3.7,40-10.8,57.3-20.8L304.9,928.5z"/>
			<path class="st6" d="M304.9,928.5l87.7,151.9c18.3-10.5,33.9-23.9,46.7-39.1L304.9,928.5z"/>
			<path class="st7" d="M304.9,928.5l134.4,112.8c13.5-16.1,23.7-34,30.5-52.7L304.9,928.5z"/>
			<path class="st6" d="M304.9,928.5l164.8,60c7.2-19.8,10.6-40.1,10.6-60H304.9z"/>
			<path class="st15" d="M304.9,928.5h175.4c0-21.1-3.7-41.3-10.5-60L304.9,928.5z"/>
			<path class="st14" d="M304.9,928.5l164.8-60c-7.2-19.8-17.6-37.5-30.4-52.8L304.9,928.5z"/>
			<path class="st15" d="M304.9,928.5l134.4-112.8c-13.5-16.1-29.4-29.2-46.6-39.2L304.9,928.5z"/>
			<path class="st14" d="M304.9,928.5l87.7-151.9c-18.3-10.5-37.6-17.4-57.2-20.9L304.9,928.5z"/>
			<path class="st15" d="M304.9,928.5l30.5-172.7c-20.8-3.7-41.3-3.5-60.9,0L304.9,928.5z"/>
			<path class="st8" d="M304.6,1107.7c-85.8,0-162-61.6-177.4-148.9c-17.3-97.9,48.3-191.5,146.2-208.8
				c47.4-8.4,95.2,2.2,134.7,29.9c39.4,27.6,65.8,68.9,74.1,116.3c17.3,97.9-48.3,191.5-146.2,208.8
				C325.4,1106.9,314.9,1107.7,304.6,1107.7z M304.8,756.8c-9.8,0-19.7,0.8-29.7,2.6c-92.7,16.3-154.8,105-138.4,197.7
				c16.3,92.7,105,154.8,197.7,138.4c92.7-16.3,154.8-105,138.4-197.7l0,0C458.2,815.2,386,756.8,304.8,756.8z"/>
			<g class="st9">
				<circle class="st10" cx="274.2" cy="754.7" r="7.5"/>
				<circle class="st10" cx="216.6" cy="775.7" r="7.5"/>
				<circle class="st10" cx="169.7" cy="815.1" r="7.5"/>
				<circle class="st10" cx="139.1" cy="868.2" r="7.5"/>
				<circle class="st10" cx="128.4" cy="928.5" r="7.5"/>
				<circle class="st10" cx="139.1" cy="988.8" r="7.5"/>
				<circle class="st10" cx="169.7" cy="1041.9" r="7.5"/>
				<circle class="st10" cx="216.6" cy="1081.3" r="7.5"/>
				<circle class="st10" cx="274.2" cy="1102.3" r="7.5"/>
				<circle class="st10" cx="335.5" cy="1102.3" r="7.5"/>
				<circle class="st10" cx="393.1" cy="1081.3" r="7.5"/>
				<circle class="st10" cx="440" cy="1041.9" r="7.5"/>
				<circle class="st10" cx="470.7" cy="988.8" r="7.5"/>
				<circle class="st10" cx="481.3" cy="928.5" r="7.5"/>
				<circle class="st10" cx="470.7" cy="868.2" r="7.5"/>
				<circle class="st10" cx="440" cy="815.1" r="7.5"/>
				<circle class="st10" cx="393.1" cy="775.7" r="7.5"/>
				<circle class="st10" cx="335.5" cy="754.7" r="7.5"/>
			</g>
		</g>
		<path class="st16" d="M-54,1079.5c0,0,0-70,143-90s133-51,133-51l41,21c0,0,82.1-10.4,124.6-46.2c42.4-35.8,62.4,2.2,96.4-25.8
			s46-44,46-44l-10,42c0,0,74-36,114-42s74,0,74,0v304L-54,1079.5z"/>
		<g>
			<g>
				<path class="st6" d="M362.6,845.2c-45.9-30.7-78.4,2-78.4,2c-22-16.7-60.3-5.6-76.7,17.5c-16.5,23.1-50.1,27.9-50.1,27.9
					s63.5,89.3,142.1,80.3c94.4-10.7,133.2-109.2,133.2-109.2S397.6,868.6,362.6,845.2z M178.6,900.5c0,0,94.8-14.8,112.2-10.8
					c0,0,16.2-7.3,117.2-16C408.1,873.9,314,925.4,178.6,900.5z"/>
			</g>
		</g>
		<g>
			<g>
				<g>
					<g>
						<path class="st17" d="M432.7,863.7c-6.5,1.1-13.3,1.2-19.9,0.8c-6.7-0.4-13.3-1.6-19.8-3.2c-6.5-1.6-12.8-4.1-19-6.8
							c-3-1.5-6.1-3-9-4.8l-8.5-5c-5.6-3.1-11.5-5.6-17.6-7.3c-6.1-1.7-12.4-2.3-18.6-1.9c-6.2,0.4-12.3,1.9-18.1,4.3
							c-2.9,1.2-5.6,2.7-8.3,4.3c-1.3,0.8-2.6,1.7-3.8,2.6c-0.6,0.5-1.2,0.9-1.8,1.4c-0.6,0.5-1.2,1-1.6,1.4l-2.2,2.1l-2.4-1.8
							c-4.4-3.3-9.6-5.5-15.1-6.6c-2.8-0.5-5.6-0.8-8.4-0.8c-2.8,0-5.7,0.1-8.5,0.5c-5.7,0.8-11.3,2.4-16.6,4.7
							c-5.3,2.3-10.4,5.2-14.9,8.9c-2.2,1.8-4.4,3.8-6.3,5.9l-1.4,1.6l-1.3,1.7l-3,3.6c-4.2,4.7-9.2,8.6-14.5,11.7
							c-5.3,3.1-11,5.6-16.8,7.5c-5.8,1.9-11.8,3.3-17.8,3.9c5.9-1.4,11.6-3.3,17.2-5.6c5.5-2.4,10.8-5.1,15.7-8.5
							c4.9-3.4,9.3-7.3,12.9-11.8l2.6-3.5l1.4-1.9l1.5-1.9c2-2.4,4.2-4.7,6.6-6.8c9.5-8.3,21.4-13.8,33.9-15.9
							c6.3-1,12.8-1.1,19.2,0.1c6.4,1.2,12.6,3.7,18,7.7l-4.6,0.3c0.8-0.8,1.4-1.3,2.1-1.9c0.7-0.6,1.4-1.1,2.1-1.7
							c1.4-1.1,2.9-2,4.3-3c3-1.8,6.1-3.4,9.3-4.8c6.5-2.7,13.4-4.3,20.4-4.7c7-0.3,14,0.6,20.7,2.6c6.6,2,12.9,4.9,18.7,8.5
							l8.4,5.5c2.7,1.9,5.5,3.3,8.4,4.9c5.7,3,11.7,5.7,17.9,7.6c6.2,2,12.6,3.6,19.1,4.6l2.4,0.4l2.4,0.3c1.6,0.2,3.3,0.3,4.9,0.4
							C426.1,863.8,429.4,863.8,432.7,863.7z"/>
					</g>
				</g>
			</g>
		</g>
	</g>
</g>
</svg>
