<?xml version="1.0" encoding="utf-8"?>
<!-- Generator: Adobe Illustrator 22.0.1, SVG Export Plug-In . SVG Version: 6.00 Build 0)  -->
<svg version="1.1" id="Layer_1" xmlns="http://www.w3.org/2000/svg" xmlns:xlink="http://www.w3.org/1999/xlink" x="0px" y="0px"
	 viewBox="0 0 374.8 101.8" style="enable-background:new 0 0 374.8 101.8;" xml:space="preserve">
<g id="XMLID_8_">
	<g id="XMLID_684_">
		<path style="fill-rule:evenodd;clip-rule:evenodd;fill:#FFCC00;" d="M5.6,57.6c0.3,0.8,0.7,0.8,1,0.3C6.3,57.9,6,56.9,5.6,57.6z"
			/>
	</g>
	<g id="XMLID_683_">
		<path style="fill-rule:evenodd;clip-rule:evenodd;fill:#FFCC00;" d="M6.5,55.6c0.3-0.2,0.7,1,1,0.3C7.2,55.6,6.9,54.6,6.5,55.6z"
			/>
	</g>
	<g id="XMLID_682_">
		<path style="fill-rule:evenodd;clip-rule:evenodd;fill:#FFCC00;" d="M9.2,59.6c0.4,0.5,0.4-0.2,0.9-0.4c-0.2-0.5-0.4-0.4-0.6-0.7
			C9.3,58.9,9.5,59.2,9.2,59.6z"/>
	</g>
	<g id="XMLID_681_">
		<path style="fill-rule:evenodd;clip-rule:evenodd;fill:#FFCC00;" d="M19.4,78.4c0.1,0.3,0.3,0.6,0.4,0.9c0.2-0.8,0.5-0.2,0.7-0.8
			C20.1,77.7,19.7,77.6,19.4,78.4z"/>
	</g>
	<g id="XMLID_680_">
		<path style="fill-rule:evenodd;clip-rule:evenodd;fill:#FFCC00;" d="M8.5,55.9c-0.2,0.6,0.6,1.3,0.8,0.7c0-0.8-0.3-0.3-0.6-1.1
			C8.7,55.9,8.6,56.2,8.5,55.9z"/>
	</g>
	<g id="XMLID_679_">
		<path style="fill-rule:evenodd;clip-rule:evenodd;fill:#FFCC00;" d="M20.9,78.9c0.4,0,0.4,0.7,0.7,1.3c0.2-0.7,0.1-1.4-0.2-2.1
			C21.2,78.4,21.1,78.7,20.9,78.9z"/>
	</g>
	<g id="XMLID_550_">
		<path style="fill-rule:evenodd;clip-rule:evenodd;fill:#FFCC00;" d="M15.2,61.9c-0.1,0.7,0.7,1.1,0.9,0.1
			C15.8,61,15.5,62.7,15.2,61.9z"/>
	</g>
	<g id="XMLID_549_">
		<path style="fill-rule:evenodd;clip-rule:evenodd;fill:#FFCC00;" d="M25.2,81c0.2,0.1,0.5-0.2,0.3,0.2c0.2,0.5,0.5-0.6,0.7-0.8
			c0.2,0.8,0.5,1.2,1,1.6c0-1.7,0.8-1.5,1.4-2c-0.3-0.1-0.7,0.2-1-0.7c0,1.2-0.2,0.7-0.7,1.2c0-0.3-0.1-0.6-0.2-0.9
			c-0.3,0.5-0.6,0.5-0.9-0.1C25.4,80,25.2,80.5,25.2,81z"/>
	</g>
	<g id="XMLID_548_">
		<path style="fill-rule:evenodd;clip-rule:evenodd;fill:#FFCC00;" d="M16.6,62.6l0.4,0.9c0-0.3,0.1-0.9,0.3-0.6
			C17.6,62.3,16.8,61.7,16.6,62.6z"/>
	</g>
	<g id="XMLID_547_">
		<path style="fill-rule:evenodd;clip-rule:evenodd;fill:#FFCC00;" d="M18,56.8c0.3,0.3,0.7,0.1,1-0.6C18.7,56.1,18.1,55.7,18,56.8z
			"/>
	</g>
	<g id="XMLID_546_">
		<path style="fill-rule:evenodd;clip-rule:evenodd;fill:#FFCC00;" d="M34.5,86.3c0.3,0.7,0.9,0.5,0.9-0.4
			C35.1,86,34.8,85.8,34.5,86.3z"/>
	</g>
	<g id="XMLID_545_">
		<path style="fill-rule:evenodd;clip-rule:evenodd;fill:#FFCC00;" d="M21.4,57.5c0.4,0.1,0.7,1.2,1.1,0.1
			C22.2,57.3,21.8,57,21.4,57.5z"/>
	</g>
	<g id="XMLID_544_">
		<path style="fill-rule:evenodd;clip-rule:evenodd;fill:#FFCC00;" d="M33,72.1c0.5,0.4,0.4-0.5,1-1c-0.1-0.1-0.3-0.1-0.4-0.5
			C33.4,72,32.9,70.9,33,72.1z"/>
	</g>
	<g id="XMLID_543_">
		<path style="fill-rule:evenodd;clip-rule:evenodd;fill:#FFCC00;" d="M25.3,54.8c0.1-0.7-0.7-0.7-0.9-1.8
			C24.1,54,25,54.4,25.3,54.8z"/>
	</g>
	<g id="XMLID_542_">
		<path style="fill-rule:evenodd;clip-rule:evenodd;fill:#FFCC00;" d="M29.2,56.6c0.4-0.1,0.7,0.3,1.1-0.3c-0.4-0.4-0.9-0.4-1.3-0.9
			C28.6,55.7,29.6,56.2,29.2,56.6z"/>
	</g>
	<g id="XMLID_541_">
		<path style="fill-rule:evenodd;clip-rule:evenodd;fill:#FFCC00;" d="M41.7,81.2c-0.2,1.3,0.7,0.3,0.9,0.5
			C42.7,80.6,41.9,81.4,41.7,81.2z"/>
	</g>
	<g id="XMLID_540_">
		<path style="fill-rule:evenodd;clip-rule:evenodd;fill:#FFCC00;" d="M42.5,76.8c-0.2-0.8-0.5,0.4-0.8-0.7c-0.2,0.5-0.2,1.1,0,1.7
			C42,76.8,42.5,77.9,42.5,76.8z"/>
	</g>
	<g id="XMLID_539_">
		<path style="fill-rule:evenodd;clip-rule:evenodd;fill:#FFCC00;" d="M48.8,89.6c0.4,0.5,0.8,1,1.2,0.3
			C49.6,89.7,49.2,89.3,48.8,89.6z"/>
	</g>
	<g id="XMLID_538_">
		<path style="fill-rule:evenodd;clip-rule:evenodd;fill:#FFCC00;" d="M26.6,44.4c0.2,0.8,0.4,0.3,0.7,0.9c0.4-0.5,0.1-1.1-0.2-1.7
			L26.6,44.4z"/>
	</g>
	<g id="XMLID_537_">
		<path style="fill-rule:evenodd;clip-rule:evenodd;fill:#FFCC00;" d="M29.5,49.9c0.3,0.9,0.6,0.7,0.9,0.9
			C30.6,50.2,29.8,48.9,29.5,49.9z"/>
	</g>
	<g id="XMLID_536_">
		<path style="fill-rule:evenodd;clip-rule:evenodd;fill:#FFCC00;" d="M28.9,45.2c0.1,0.2,0.1,0.1,0.2,0c0.9,1.1,1.8,0.2,2.7,1.1
			c0.5-0.7,0.2-1.4,0.5-2.1c-0.5-0.7-0.4,0.7-0.8,0.6c-0.4-0.6-0.1-1.1-0.5-1.1c0,1.1-0.7,0.8-1,1.4c-0.3-0.8-0.5-0.6-0.8-1.1
			C28.7,44.3,29.4,44.8,28.9,45.2z"/>
	</g>
	<g id="XMLID_535_">
		<path style="fill-rule:evenodd;clip-rule:evenodd;fill:#FFCC00;" d="M47.9,79c-0.2-0.3,0.4-0.7,0.6-0.6c0.3-1.1-0.4,0.1-0.6-0.7
			c-0.5,0.5-0.2,1-0.4,1.4c0.3,0.4,0.6,0.7,0.9,0.9C48.7,79.4,48.2,79,47.9,79z"/>
	</g>
	<g id="XMLID_534_">
		<path style="fill-rule:evenodd;clip-rule:evenodd;fill:#FFCC00;" d="M21.2,25.6c0.4,0.5,0.7,1.5,1.1,0.5
			C22,25.9,21.6,25.2,21.2,25.6z"/>
	</g>
	<g id="XMLID_533_">
		<path style="fill-rule:evenodd;clip-rule:evenodd;fill:#FFCC00;" d="M21.1,24.2c-0.2,0.7,0.6,0.8,0.8,0.3
			C21.7,23.3,21.4,24.5,21.1,24.2z"/>
	</g>
	<g id="XMLID_532_">
		<path style="fill-rule:evenodd;clip-rule:evenodd;fill:#FFCC00;" d="M22.7,26c0.3-0.5,0.2-1,0.4-1.4c-0.2-0.2-0.4,0-0.6-0.3
			C22.4,24.8,22.5,25.4,22.7,26z"/>
	</g>
	<g id="XMLID_531_">
		<path style="fill-rule:evenodd;clip-rule:evenodd;fill:#FFCC00;" d="M49.2,78.7c-0.1,1.3,0.9,0.5,1.2,1.2
			C50.8,78.4,49.6,78.6,49.2,78.7z"/>
	</g>
	<g id="XMLID_530_">
		<path style="fill-rule:evenodd;clip-rule:evenodd;fill:#FFCC00;" d="M18.7,12c0.3,0.3,0.9-0.3,1.5-1.4C19.7,11,19.2,10.8,18.7,12z
			"/>
	</g>
	<g id="XMLID_529_">
		<path style="fill-rule:evenodd;clip-rule:evenodd;fill:#FFCC00;" d="M53.5,80.3c0-0.7-0.5-1.6-0.9-0.9
			C52.6,80,53.1,81.2,53.5,80.3z"/>
	</g>
	<g id="XMLID_528_">
		<path style="fill-rule:evenodd;clip-rule:evenodd;fill:#FFCC00;" d="M29.6,32.6c0.4,0.8,1.7,0.3,1-1
			C30.2,32.7,29.9,32.2,29.6,32.6z"/>
	</g>
	<g id="XMLID_527_">
		<path style="fill-rule:evenodd;clip-rule:evenodd;fill:#FFCC00;" d="M37.3,46.7c0.1,1.1,1.1,1.2,1.6,0.1c-0.2-0.3-0.1-0.6,0-0.8
			C38.4,44.9,37.8,47.4,37.3,46.7z"/>
	</g>
	<g id="XMLID_526_">
		<path style="fill-rule:evenodd;clip-rule:evenodd;fill:#FFCC00;" d="M24.7,19.2c0.4,1.1,0.9,1.1,1.4,0.5
			C25.6,19.9,25.2,18.4,24.7,19.2z"/>
	</g>
	<g id="XMLID_525_">
		<path style="fill-rule:evenodd;clip-rule:evenodd;fill:#FFCC00;" d="M55.6,81.1c0.2,0.1,0.3,0.2,0.2,0.4c0.7-0.9,1.4,0.5,2.1-0.5
			C56.9,81.1,56.4,78.6,55.6,81.1z"/>
	</g>
	<g id="XMLID_524_">
		<path style="fill-rule:evenodd;clip-rule:evenodd;fill:#FFCC00;" d="M34.5,33.8c0.2,0.9,0.5-0.3,0.8-0.6c-0.2-0.1-0.3-0.1-0.4-0.5
			C34.9,33.2,34.7,33.5,34.5,33.8z"/>
	</g>
	<g id="XMLID_523_">
		<path style="fill-rule:evenodd;clip-rule:evenodd;fill:#FFCC00;" d="M58.2,81.1c-0.3,0.7,0.3,0.3,0.4,0.9c-0.2-1.3,0.4-0.1,0.8-1
			c-0.2-1.1-0.5,0.9-0.8-0.3C58.5,81,58.3,81.3,58.2,81.1z"/>
	</g>
	<g id="XMLID_522_">
		<path style="fill-rule:evenodd;clip-rule:evenodd;fill:#FFCC00;" d="M59.5,81.6c0.7,0.4,0.8,2.1,1.4,1.2c-0.7-0.8,0.2-1.4-0.4-2.1
			C60.5,82.1,59.9,80.9,59.5,81.6z"/>
	</g>
	<g id="XMLID_521_">
		<path style="fill-rule:evenodd;clip-rule:evenodd;fill:#FFCC00;" d="M35,24.8c0.5,0.3,1.3-0.3,0.8-1.4C35.4,24,35.2,23.8,35,24.8z
			"/>
	</g>
	<g id="XMLID_520_">
		<path style="fill-rule:evenodd;clip-rule:evenodd;fill:#FFCC00;" d="M63.4,81.9c0.4,1,0.9,0.2,1.3,0.5c0.2,0.5-0.1,1-0.4,1.4
			c0.8,0.6,0.8-1.5,1.8-1.1c-0.2-0.9-0.2-0.5-0.6-1.3c-0.5,0.8,0.2,0.3,0.3,1.1C65,82.6,64.2,81.2,63.4,81.9z"/>
	</g>
	<g id="XMLID_519_">
		<path style="fill-rule:evenodd;clip-rule:evenodd;fill:#FFCC00;" d="M52.4,51.9c0.5,0.6,1.1-0.2,1.3-1
			C53.2,50.8,52.7,50.8,52.4,51.9z"/>
	</g>
	<g id="XMLID_518_">
		<path style="fill-rule:evenodd;clip-rule:evenodd;fill:#FFCC00;" d="M45.4,36.4c0.4,0.1,0.1,0.3,0.4,0.9c0.2-0.5,0.1-1,0.1-1.5
			C45.8,35.6,45.6,36.1,45.4,36.4z"/>
	</g>
	<g id="XMLID_517_">
		<path style="fill-rule:evenodd;clip-rule:evenodd;fill:#FFCC00;" d="M55.7,39.8c0.5,0.2,1,0.4,1.5-0.5
			C56.7,39.6,55.9,38.7,55.7,39.8z"/>
	</g>
	<g id="XMLID_516_">
		<path style="fill-rule:evenodd;clip-rule:evenodd;fill:#FFCC00;" d="M49.1,14.5c0.3,0.6,0.5,0.4,0.8,0.7c0.4-0.4-0.6-0.9-0.2-1.3
			C49.5,13.7,49.3,14.3,49.1,14.5z"/>
	</g>
	<g id="XMLID_515_">
		<path style="fill-rule:evenodd;clip-rule:evenodd;fill:#FFCC00;" d="M43.4,2.7c0.4,0.6,0.9,0.1,1.4-0.7
			C44.3,2.1,43.5,1.8,43.4,2.7z"/>
	</g>
	<g id="XMLID_514_">
		<path style="fill-rule:evenodd;clip-rule:evenodd;fill:#FFCC00;" d="M67.4,47c0.1,0.3,0.3,0.6,0.4,0.9c0-0.3,0.1-0.6,0.2-0.4
			C68.2,46.9,67.5,46.3,67.4,47z"/>
	</g>
	<g id="XMLID_513_">
		<path style="fill-rule:evenodd;clip-rule:evenodd;fill:#FFCC00;" d="M51.9,10.1c0.5,0.7,1,0,1.5,1.2c0.2-0.5-0.1-1-0.1-1.5
			c0.3-0.4,0.8,0.4,0.8-0.6c-0.3-0.3-0.5,0.6-0.8-0.3C53,10.4,52.4,9.2,51.9,10.1z"/>
	</g>
	<g id="XMLID_512_">
		<path style="fill-rule:evenodd;clip-rule:evenodd;fill:#FFCC00;" d="M69.6,42.4c0.2,0,0.4,0.5,0.6,0.3c0.4-0.6,0-1.5-0.3-1.5
			C69.3,41.5,70.1,42,69.6,42.4z"/>
	</g>
	<g id="XMLID_511_">
		<path style="fill-rule:evenodd;clip-rule:evenodd;fill:#FFCC00;" d="M58.5,9.8c0,1.1,1.5,1.5,1.6,0.1C59.5,10.1,59,10.6,58.5,9.8z
			"/>
	</g>
	<g id="XMLID_510_">
		<path style="fill-rule:evenodd;clip-rule:evenodd;fill:#FFCC00;" d="M57.6,2.4C58,3,58.4,2.9,58.8,2C58.4,2.2,58,1.8,57.6,2.4z"/>
	</g>
	<g id="XMLID_509_">
		<path style="fill-rule:evenodd;clip-rule:evenodd;fill:#FFCC00;" d="M64.1,13.7c0.4,0.2,0.7,0.8,1.1,0.1
			C64.8,13.4,64.5,13.1,64.1,13.7z"/>
	</g>
	<g id="XMLID_508_">
		<path style="fill-rule:evenodd;clip-rule:evenodd;fill:#FFCC00;" d="M68.1,15.7c0.3,0.4,0.5-0.1,0.8,0.3c0.1-0.3-0.2-0.7-0.3-1.1
			L68.1,15.7z"/>
	</g>
	<g id="XMLID_507_">
		<path style="fill-rule:evenodd;clip-rule:evenodd;fill:#FFCC00;" d="M69.8,15.2c0.3,0.8,0.6,0,0.9,0.5
			C70.9,15.2,70.1,14.2,69.8,15.2z"/>
	</g>
	<g id="XMLID_506_">
		<path style="fill-rule:evenodd;clip-rule:evenodd;fill:#FFCC00;" d="M85.7,45.7c0.1-0.1,0.1-0.3,0-0.4c0.2-0.2,0.3,0.2,0.4,0.5
			c0.3-0.2,0.2-1.5,0.6-1c0.4-0.7-0.6-0.3-0.2-0.9C86.2,43.9,85.1,44.6,85.7,45.7z"/>
	</g>
	<g id="XMLID_505_">
		<path style="fill-rule:evenodd;clip-rule:evenodd;fill:#FFCC00;" d="M87,44.3c0.1,0.4,0.3,0.3,0.5,0c0.2,0.3,0.3,0.6,0.2,0.9
			c0.2,0.2,0.4-0.3,0.6-0.6l-0.5-1.1C87.4,44.3,87.2,43.7,87,44.3z"/>
	</g>
	<g id="XMLID_504_">
		<path style="fill-rule:evenodd;clip-rule:evenodd;fill:#FFCC00;" d="M89.5,48.5c0.3,0.3,0.6,0.1,0.9-0.3
			C90.1,47.4,89.8,47.9,89.5,48.5z"/>
	</g>
	<g id="XMLID_503_">
		<path style="fill-rule:evenodd;clip-rule:evenodd;fill:#FFCC00;" d="M76,18.5c0.5,0.3,0.5-1.2,0.3-1.7
			C75.7,16.7,76.1,17.9,76,18.5z"/>
	</g>
	<g id="XMLID_502_">
		<path style="fill-rule:evenodd;clip-rule:evenodd;fill:#FFCC00;" d="M75.2,15.9c0.6,0.4,1.4,1.1,1.7-0.5
			C76.3,15.8,75.8,14.4,75.2,15.9z"/>
	</g>
	<g id="XMLID_501_">
		<path style="fill-rule:evenodd;clip-rule:evenodd;fill:#FFCC00;" d="M76.8,18.3c0.4-0.2,0.7,0.2,1.1-0.3c-0.4-0.3-0.8-0.1-1.1-0.5
			C76.7,17.8,77,18.1,76.8,18.3z"/>
	</g>
	<g id="XMLID_500_">
		<path style="fill-rule:evenodd;clip-rule:evenodd;fill:#FFCC00;" d="M78.7,22.1c1-0.3,1.2,0.4,0.6-1.8
			C78.8,20.8,78.8,21.4,78.7,22.1z"/>
	</g>
	<g id="XMLID_499_">
		<path style="fill-rule:evenodd;clip-rule:evenodd;fill:#FFCC00;" d="M92.9,48.4c0.4,0.7,0.7,0.7,1.1,0.1
			C93.6,48.3,93.3,47.7,92.9,48.4z"/>
	</g>
	<g id="XMLID_498_">
		<path style="fill-rule:evenodd;clip-rule:evenodd;fill:#FFCC00;" d="M98.4,50.8c1.1-1.1,2-0.1,2.6-1.7c-0.8,0-1.7,0-2.5,0.6
			c-0.1-0.3,0.1-0.6,0.2-0.8C98,48.1,97.9,49.8,98.4,50.8z"/>
	</g>
	<g id="XMLID_497_">
		<path style="fill-rule:evenodd;clip-rule:evenodd;fill:#FFCC00;" d="M85.5,20.5c0.6,0.6,0.2-1.6,0.6-1
			C86.1,18.2,85.3,20.1,85.5,20.5z"/>
	</g>
	<g id="XMLID_496_">
		<path style="fill-rule:evenodd;clip-rule:evenodd;fill:#FFCC00;" d="M86.1,20c0.3,0.3,0.7,0.3,1-0.5C86.8,19.1,86.4,19.3,86.1,20z
			"/>
	</g>
	<g id="XMLID_495_">
		<path style="fill-rule:evenodd;clip-rule:evenodd;fill:#FFCC00;" d="M103.6,49.6l0.4,0.9c0.2-0.3,0.1-0.7,0.4-1
			C104.1,49.6,103.9,49,103.6,49.6z"/>
	</g>
	<g id="XMLID_494_">
		<path style="fill-rule:evenodd;clip-rule:evenodd;fill:#FFCC00;" d="M93.5,25.9c0.2-0.5-0.1-1,0.4-1.4
			C93.4,24.1,92.7,25.7,93.5,25.9z"/>
	</g>
	<g id="XMLID_493_">
		<path style="fill-rule:evenodd;clip-rule:evenodd;fill:#FFCC00;" d="M109.6,8.3c0.5,1.3,1-0.1,1-1C110.3,7.3,109.9,7.9,109.6,8.3z
			"/>
	</g>
	<g id="XMLID_492_">
		<path style="fill-rule:evenodd;clip-rule:evenodd;fill:#FFCC00;" d="M121,10c0.5,0.8,0.5-1,1-0.1c0.2,0.8-0.4,0.5-0.6,1
			c0.4,0.5,0.8-0.1,1-1c-0.3-0.1-0.4-0.3-0.4-0.9c0.5-1,1,0.6,1.5-0.5c-0.3,0-0.5,0.2-0.8-0.7c-0.7,1-1.2,0.5-1.6-0.1
			C121.1,8.4,121.6,9.2,121,10z"/>
	</g>
	<g id="XMLID_491_">
		<path style="fill-rule:evenodd;clip-rule:evenodd;fill:#FFCC00;" d="M125.3,9.9l0.4,0.9c0.5-0.7,0.5-0.3,0.7-1.2
			c-0.4-0.8-1.1,1-0.7-0.5C125.5,8.6,125.3,9.7,125.3,9.9z"/>
	</g>
	<g id="XMLID_490_">
		<path style="fill-rule:evenodd;clip-rule:evenodd;fill:#FFCC00;" d="M127,11.1c0-0.6,0.4-1.1,0.7-1.6l-0.3-0.7
			c-0.1,0.3-0.2,0.3-0.3,0.2c0,0.8,0.1,0.6-0.4,1C126.9,10.4,126.7,10.7,127,11.1z"/>
	</g>
	<g id="XMLID_489_">
		<path style="fill-rule:evenodd;clip-rule:evenodd;fill:#FFCC00;" d="M128.8,12.1c0.4-0.8,0.8-0.1,1.2-0.7c-0.5-0.5-1,0.4-1.5-0.8
			C128.2,11.5,128.6,11.2,128.8,12.1z"/>
	</g>
	<g id="XMLID_488_">
		<path style="fill-rule:evenodd;clip-rule:evenodd;fill:#FFCC00;" d="M130.6,10.2c-0.3,0.5-0.5,0.9-0.2,1.5c0.2,0,0.3-0.1,0.5-0.4
			C130.9,10.9,130.8,10.5,130.6,10.2z"/>
	</g>
	<g id="XMLID_487_">
		<path style="fill-rule:evenodd;clip-rule:evenodd;fill:#FFCC00;" d="M130.9,10.8c0.2,0.4,0.1,0.7,0.3,1.1c0.2-0.3,0.1-0.9,0.4-0.6
			c0.1-0.3-0.2-0.7-0.3-1.1L130.9,10.8z"/>
	</g>
	<g id="XMLID_486_">
		<path style="fill-rule:evenodd;clip-rule:evenodd;fill:#FFCC00;" d="M131.7,9.2c-0.1,0.4,0.8,1.8,1.1,0.9
			C132.4,9.7,132,9,131.7,9.2z"/>
	</g>
	<g id="XMLID_485_">
		<path style="fill-rule:evenodd;clip-rule:evenodd;fill:#FFCC00;" d="M138.2,11.9c0.3-0.8,0.5-0.5,0.8-1c-0.2-0.8-0.5,0.1-0.8-0.7
			C138,10.8,137.7,11.3,138.2,11.9z"/>
	</g>
	<g id="XMLID_484_">
		<path style="fill-rule:evenodd;clip-rule:evenodd;fill:#FFCC00;" d="M141.7,11.6c0.3,0.5,0.6,0.6,0.9,0.1l-0.4-0.9L141.7,11.6z"/>
	</g>
	<g id="XMLID_483_">
		<path style="fill-rule:evenodd;clip-rule:evenodd;fill:#FFCC00;" d="M143.8,12c0.4,0.3,0.9,0.3,1.3,0.5c0.4-0.5-0.7-1-0.3-1.5
			c-0.3-0.2-0.2,0.3-0.4,0.6C144.3,11.9,144.1,11.1,143.8,12z"/>
	</g>
	<g id="XMLID_481_">
		<path style="fill-rule:evenodd;clip-rule:evenodd;fill:#FFCC00;" d="M145.4,9.8c0.3,0.4,0.5-0.5,0.8-0.1c0-0.8-0.3-0.9-0.8-1.1
			C145.2,9,145.7,9.4,145.4,9.8z"/>
	</g>
	<g id="XMLID_480_">
		<path style="fill-rule:evenodd;clip-rule:evenodd;fill:#FFCC00;" d="M147.9,13.2c0.7-1.1,1.4,0.1,2,0.2c0.5-1.3-0.8-1.5-1.1-2.6
			c-0.1,1.2,0,1.3-0.7,1.6c-0.5-0.9-0.4-1.6-1-1.6C147,12,147.3,12.3,147.9,13.2z"/>
	</g>
	<g id="XMLID_479_">
		<path style="fill-rule:evenodd;clip-rule:evenodd;fill:#FFCC00;" d="M148.1,10.5c0.5,0.3,1-0.2,1.5,0.3
			C149.5,10.2,148.5,9.3,148.1,10.5z"/>
	</g>
	<g id="XMLID_478_">
		<path style="fill-rule:evenodd;clip-rule:evenodd;fill:#FFCC00;" d="M150.5,9.7c0.2,0.4,0.4,0.2,0.5,0.7c0.3-0.6-0.3-1.3,0.2-1.9
			c-0.2-0.2-0.5,0-0.7,0.4C150.9,9.5,151,9,150.5,9.7z"/>
	</g>
	<g id="XMLID_477_">
		<path style="fill-rule:evenodd;clip-rule:evenodd;fill:#FFCC00;" d="M153.7,9.7c0.2,0.5,0.4,0.5,0.5,0.7c-0.1-0.5,0.2-1-0.1-1.5
			C154.2,9.7,154.1,9.2,153.7,9.7z"/>
	</g>
	<g id="XMLID_476_">
		<path style="fill-rule:evenodd;clip-rule:evenodd;fill:#FFCC00;" d="M192.7,17.6c0.5,0.7,1.1,0.2,1.7-0.5c-0.5-0.4-1-1-1.4-1.2
			C192.8,16.5,192.8,17,192.7,17.6z"/>
	</g>
	<g id="XMLID_475_">
		<path style="fill-rule:evenodd;clip-rule:evenodd;fill:#FFCC00;" d="M203.8,14.6c0.2,0.9,0.5-0.1,0.8,0.3
			C204.7,14.3,204,13.7,203.8,14.6z"/>
	</g>
	<g id="XMLID_474_">
		<path style="fill-rule:evenodd;clip-rule:evenodd;fill:#FFCC00;" d="M215.3,16.5c0,0.8,0.9,0.9,1.4,0.1
			C216.2,16.3,215.7,16.6,215.3,16.5z"/>
	</g>
	<g id="XMLID_473_">
		<path style="fill-rule:evenodd;clip-rule:evenodd;fill:#FFCC00;" d="M220.8,17.2c0.6-0.5,1.5-0.5,1.7-1.3
			C222,15.8,221,16,220.8,17.2z"/>
	</g>
	<g id="XMLID_472_">
		<path style="fill-rule:evenodd;clip-rule:evenodd;fill:#FFCC00;" d="M231.9,16.2c0.4,0.5,0.8,0.1,1.2,0.3
			C233.2,15.9,232.3,15.3,231.9,16.2z"/>
	</g>
	<g id="XMLID_471_">
		<path style="fill-rule:evenodd;clip-rule:evenodd;fill:#FFCC00;" d="M243.6,19.8c0-0.5,0.3-0.9,0.4-1.4c-0.2-0.2-0.5,0-0.7,0.4
			C243.5,19.1,243.4,19.5,243.6,19.8z"/>
	</g>
	<g id="XMLID_470_">
		<path style="fill-rule:evenodd;clip-rule:evenodd;fill:#FFCC00;" d="M281.2,92.7c0.9,0.6,1.8-1.2,2.7-0.6
			C283.5,90.5,282,92.1,281.2,92.7z"/>
	</g>
	<g id="XMLID_469_">
		<path style="fill-rule:evenodd;clip-rule:evenodd;fill:#FFCC00;" d="M284,91.5c0.4,0.7,0.7,0.5,1.1-0.3
			C284.8,91,284.4,91.1,284,91.5z"/>
	</g>
	<g id="XMLID_468_">
		<path style="fill-rule:evenodd;clip-rule:evenodd;fill:#FFCC00;" d="M264.8,17c0.1-0.3,0.1-0.7-0.1-1.1c0.8,0.1,0.9,0.2,1.8-0.2
			c-0.7-0.6-1.5-0.7-2.3-0.2C264.7,16,264.6,16.5,264.8,17z"/>
	</g>
	<g id="XMLID_467_">
		<path style="fill-rule:evenodd;clip-rule:evenodd;fill:#FFCC00;" d="M268.4,20.3c0-0.6,0.5-1.2,0.2-1.9
			C268.1,18.4,268,19.6,268.4,20.3z"/>
	</g>
	<g id="XMLID_466_">
		<path style="fill-rule:evenodd;clip-rule:evenodd;fill:#FFCC00;" d="M267.5,16.2c-0.1,0.3,0.2,0.7,0.3,1.1
			c0.3-0.4,0.4-0.8,0.5-1.2C268,15.7,267.7,16.9,267.5,16.2z"/>
	</g>
	<g id="XMLID_465_">
		<path style="fill-rule:evenodd;clip-rule:evenodd;fill:#FFCC00;" d="M294.5,13.3c0.4,0.4,0.6-0.5,0.8-1c-0.2-0.2-0.5,0-0.7,0.4
			C294.7,12.9,294.6,13.1,294.5,13.3z"/>
	</g>
	<g id="XMLID_464_">
		<path style="fill-rule:evenodd;clip-rule:evenodd;fill:#FFCC00;" d="M296.3,10.7c0.3,0.4,0.7-0.9,0.7-1.2
			C296.5,9.5,296.3,10,296.3,10.7z"/>
	</g>
	<g id="XMLID_463_">
		<path style="fill-rule:evenodd;clip-rule:evenodd;fill:#FFCC00;" d="M298.3,12.2c1,0.6,2,0,2.9-0.1c-0.2-1,0.4-0.8,0.8-1.4
			C300.7,10.6,299.8,11.8,298.3,12.2z"/>
	</g>
	<g id="XMLID_462_">
		<path style="fill-rule:evenodd;clip-rule:evenodd;fill:#FFCC00;" d="M301.7,11.7c0.4,0.6,0.8-0.3,1.3-0.5
			C302.5,10.7,302.1,10.7,301.7,11.7z"/>
	</g>
	<g id="XMLID_461_">
		<path style="fill-rule:evenodd;clip-rule:evenodd;fill:#FFCC00;" d="M303.4,11.2c0.5,0,0.9,0.5,1.4,0.1
			C304.7,10.6,303.8,10.2,303.4,11.2z"/>
	</g>
	<g id="XMLID_460_">
		<path style="fill-rule:evenodd;clip-rule:evenodd;fill:#FFCC00;" d="M304.6,12.8c0.6,0.1,0.8,0.5,1.1,1c0.3-0.9,0.6-0.9,0.3-2.1
			C305.8,13.1,305,12.1,304.6,12.8z"/>
	</g>
	<g id="XMLID_459_">
		<path style="fill-rule:evenodd;clip-rule:evenodd;fill:#FFCC00;" d="M305.6,1.1c-0.2,0.9,0.7,0.5,0.9,0.1
			c-0.2-0.5-0.4-0.5-0.5-0.7C305.7,0.8,305.8,1.4,305.6,1.1z"/>
	</g>
	<g id="XMLID_458_">
		<path style="fill-rule:evenodd;clip-rule:evenodd;fill:#FFCC00;" d="M310.7,9.4c-0.1,0.1-0.1,0.3,0,0.4c0.1,0.2,0.1,0.3,0.2,0.4
			c0.3-1,1.5,0,2.2-1.3c-0.1-0.2-0.2-0.4-0.1-0.6c-0.5,0.5-1.1,0.4-1.6,1.1c-0.5-1.1,0.3-0.7,0.3-1.7c-0.2-0.7-0.6,1.3-0.8,0.6
			C310.6,8.6,311.3,9.9,310.7,9.4z"/>
	</g>
	<g id="XMLID_457_">
		<path style="fill-rule:evenodd;clip-rule:evenodd;fill:#FFCC00;" d="M307.7,0.9c0.7,0.1,1.4,0,2.2-0.8
			C309.1-0.1,308.4,0.3,307.7,0.9z"/>
	</g>
	<g id="XMLID_456_">
		<path style="fill-rule:evenodd;clip-rule:evenodd;fill:#FFCC00;" d="M313.6,8.8c0.4-0.1,0.3,1.4,0.9,1.4c-0.2-0.9-0.1-1.4,0.5-1.6
			C314.6,8,314.1,8.5,313.6,8.8z"/>
	</g>
	<g id="XMLID_455_">
		<path style="fill-rule:evenodd;clip-rule:evenodd;fill:#FFCC00;" d="M314.5,7.4c0.5,0.5,1.1-0.2,1.6-0.7
			C315.3,6.3,315.2,7,314.5,7.4z"/>
	</g>
	<g id="XMLID_454_">
		<path style="fill-rule:evenodd;clip-rule:evenodd;fill:#FFCC00;" d="M319.6,7.7c0.1-0.3-0.3-0.7-0.1-1.1c-0.8-0.1-1.6,1.9-2.3,0.6
			C317.1,9.6,318.8,6.9,319.6,7.7z"/>
	</g>
	<g id="XMLID_453_">
		<path style="fill-rule:evenodd;clip-rule:evenodd;fill:#FFCC00;" d="M317,6.4c0.8,0.7,1.6-0.6,2.4-1.2
			C318.6,4.4,317.8,5.9,317,6.4z"/>
	</g>
	<g id="XMLID_452_">
		<path style="fill-rule:evenodd;clip-rule:evenodd;fill:#FFCC00;" d="M318.9,3.2c-0.1,1.1,0.8,0,1.1-0.3
			C319.7,2.3,319.3,3.6,318.9,3.2z"/>
	</g>
	<g id="XMLID_451_">
		<path style="fill-rule:evenodd;clip-rule:evenodd;fill:#FFCC00;" d="M319.3,4.5c0.6,0.3,1.2,1.1,1.9-0.4
			C320.6,5,320,3.5,319.3,4.5z"/>
	</g>
	<g id="XMLID_450_">
		<path style="fill-rule:evenodd;clip-rule:evenodd;fill:#FFCC00;" d="M322.5,6.3c-0.6-1,0.2-1.9,0.6-1.4
			C323.4,5.7,322.9,6,322.5,6.3c0.3,1,0.6-0.4,0.9,0.5c0.3-1.9,1.8-3.8,2.5-4.6c0-1.5-1.6,1.1-1.6,2c0-1.2-0.8-0.3-0.5-1.5
			c-0.9,1.3-1.6,2.8-2.9,4.8C321.4,8.1,322,7.3,322.5,6.3z"/>
	</g>
	<g id="XMLID_449_">
		<path style="fill-rule:evenodd;clip-rule:evenodd;fill:#FFCC00;" d="M325.7,4.3c-0.1,0.3,0.2,0.7,0.3,1.1c0.3-0.1,0.6-0.9,0.9-0.8
			c0.1-0.4-0.1-0.7,0.1-1c-0.2-0.2-0.4-0.3-0.7-0.5C326.1,3.6,326.3,5,325.7,4.3z"/>
	</g>
	<g id="XMLID_448_">
		<path style="fill-rule:evenodd;clip-rule:evenodd;fill:#FFCC00;" d="M327,6.1c0.3-0.1,1.2-0.6,0.6-1.4
			C327.1,5.1,327.3,5.6,327,6.1z"/>
	</g>
	<g id="XMLID_447_">
		<path style="fill-rule:evenodd;clip-rule:evenodd;fill:#FFCC00;" d="M327.7,3.6c-0.2,1,0.5,0.1,0.6,0.9c0.1-0.8,0-0.8,0.5-1.2
			C328.5,2.7,328.1,3.7,327.7,3.6z"/>
	</g>
	<g id="XMLID_446_">
		<path style="fill-rule:evenodd;clip-rule:evenodd;fill:#FFCC00;" d="M0.7,54.4c-0.2-0.5,0.4-1-0.1-1.5C0.4,53.3,0.2,53,0,53.5
			c0.9,0.2-0.4,3.7,0.6,1.1c1,0.2,2-0.1,2.9,1c0.4-0.9,0.6-0.6,0.8,0.3c0.1-0.3-0.1-0.6,0-0.8c0.4-0.4,0.1,0.8,0.6,1.1
			c0.1-1,0.3-0.9,0.9-2.5c-0.4-0.4-0.8,0.5-1.2,1c-0.3-1.2-0.7-0.4-1-0.3c-0.7-2-1.9-1-2.3-1.8C0.7,53.4,1.8,54.1,2,54
			C1.6,55,1.1,53.3,0.7,54.4z"/>
	</g>
	<g id="XMLID_445_">
		<path style="fill-rule:evenodd;clip-rule:evenodd;fill:#FFCC00;" d="M10.4,62.8c0.6,0.6,1.2,0.4,1.8,0.1c-0.4-0.4-0.1-0.9-0.4-1.3
			C11.6,63.4,10.9,62.2,10.4,62.8z"/>
	</g>
	<g id="XMLID_63_">
		<path style="fill:#FFCC00;" d="M373.8,13.7c-1-1-2.5-0.8-2.7-3.4c-0.5,1.2-1.3,0.6-1.4,2c0.1,0.2,0.3-0.2,0.5-0.4
			c0.2,0.8-0.1,0.5-0.4,1c-0.3-0.8-0.6-1.1-0.9-0.9c-0.3-0.5-0.2-1,0.2-1.5c-0.3-0.2-0.6,0-0.6,0.6c-0.7-1.5-2.3-0.3-3.4,0.5
			c-1.2-2-2.6,0.7-3.9,2.1l-0.2-0.4c0.6-2.2,1.8-2.3,2.5-3.8c-0.2-0.6-0.5-0.1-0.7-0.9c-2,2.3-3.2,1.4-5.1,2.9
			c-0.1-0.2,0-0.4-0.1-0.6c0.7-0.2,1.7-1.2,2.1-2.3c-0.3-0.7-0.6,0.1-0.9-0.5c0.1,0.9-0.2,1.1-0.6,0.6c0.1,0.6,0.1,1.1-0.1,1.7
			c-0.6-0.5-2.1,0.2-1.9,1.9c-0.3,0.7-0.1-1.3-0.5-0.7c-0.1-0.4,0.5-0.4,0.3-1.2c-0.5-0.2-0.9,1.4-0.7,2c-0.3,0.3-0.2-1.1-0.5-1.5
			c-0.6,0.6-0.2,1.2-0.6,1.8c-0.3,0.5-0.4-0.7-0.2-0.9c-0.5-0.4-0.4,0.9-0.5,1.2c-0.1-0.1-0.6-0.7-0.6-1.3c0.3-0.8,0.5-0.5,0.8-1
			c-0.7-0.8-1,0.7-1,1.6c-0.8,0.2-1.5,0.2-2.1,1.9c-0.6-0.6,0.1-1.1-0.2-1.7c0.5-0.3,0.9-0.4,1.4-0.7c-0.4-0.9-0.4-1.7,0.1-2.5
			c-0.3-0.5-0.6,0-0.6,0.6c0-1-0.5-0.1-0.6-1.3c-0.6,1.1-1.2,1-2.1,1.1c-0.1-0.6,0.6-1.1,0.8-0.1c0.1-0.1,0.1-0.3,0-0.4l0.2-0.4
			c-0.4-0.8-0.9,0-1.4,0.3c-0.2-0.9,0.1-1.7-0.1-2.5c-0.3,0.9-0.3,0.5-0.7,1.2c-0.4-0.5-0.3-1-0.5-1.5c-0.3,0.3-0.2,0.7-0.4,1
			c-0.3-0.4,0-0.8-0.4-1.3c-0.7,0.5-1.4,0.3-2,0.2c-0.3-1,0.3-0.5,0.6-1.4c-0.3-0.6-0.7,0.7-1-0.3c0,0.3-0.3,0.7-0.1,1
			c-1.6-0.9-3.4,1-5,0.4c-0.1,0.3,0.1,0.6,0.2,0.9c-0.3,0.5-0.6,1-0.8,1c-0.4-3.4-2.2,0.8-3.2,0.1c0.4-3,1.6-2.1,2.5-3.3
			c-0.5-0.7-1.1,0.8-1.2-0.7l-0.7,1.2c-0.3-0.4-0.2-0.7-0.3-1.1c0.3,0.1,0.6-0.9,0.9-0.3c-0.1-0.9,0.3-0.5,0.4-1.4
			c-0.5-1.7-1.1,2.1-1.6,0.3c-0.5,1.1-1.1,2.3-1.6,3.4c-0.4-0.6-0.2-1.1,0.1-1.7c-0.3-1.1-0.7-0.3-1.1-0.5c0.1,0.6-0.1,1.1-0.5,1.6
			c0.2,0.3,0.5-0.4,0.7,0.5c-0.4,0.5-0.8,0.4-1.1-0.1L330,7c-0.2-1.3,0.2-1-0.5-1.1c-0.5-0.6,0.3-1.1-0.2-1.7c-0.2,2-0.8,1.4-1.6,3
			c-0.7-0.4-1.3-0.4-2-1c-0.6,2-1.2,2.3-2,3.4c-0.5-0.6,0.4-1.1,0.3-1.7c-1,0.1-2.1,2.9-2.6,4.4c1.1,0.5,1.4-2.2,2.1-2.8
			c0.2,0.4,0.2,0.7,0.1,1.1c0.3,0.4,0.8-0.9,0.5-1.2c0.9,1.7,2.9-3.2,4.1-0.9c-0.8,2.4-2.6,2.5-3.7,2.2c-0.8,2.9-2.4,2.6-3.8,2.8
			c0.4-1.3,0.7-2.2,0.8-3.7c-0.3,0.9-0.6,0.4-0.9,1.2c-1-2.3-1.4,1.2-2.3-0.9c-1.1,1-0.7,0.7-1.7,1.3c0.3,0.4-0.1,0.7,0.1,1.1
			c-0.3,0.3-0.6,0-0.9,0.8c-0.5-0.8,0.1-1.3,0.5-1.2c-0.1-1-1.4,0.2-1.4,1.1c-0.4-0.1-0.9,0.7-1.3-0.6c-0.6-0.2-1.3,2-2,1.3
			c-0.4-1.2,0.3-2.4,0.7-3.5c-0.8,0.1-1.2,1.8-2.3,1.5c-0.4-0.8-0.2-1-0.7-0.9c-0.4,0.8,0.7,0.3,0.3,1.1c0.3,0.1,0.7,0.3,1-0.1
			c0.1,1.1,0,1,0.7,0.9c0.1,0.3-0.1,0.5-0.3,0.8c-0.3,0.4-0.6-1.2-0.9-0.9c0,0.4-0.3,0.7-0.1,1c-0.4,0.3-0.8-0.1-1.1-0.1
			c-0.2-0.6,0-0.8,0.3-0.8c0.2-0.2,0.1,0.4,0.3,0.7c0.1-0.6,0.3-1.2-0.1-1.9c-1.6,3.3-3.1,3.1-4.7,4.6c-0.2-0.3-0.3-0.6-0.2-0.9
			c-0.1,0.7-1.3,1.8-2.1,1.9c-0.1-1.1,1.2-1.6,1.1-2.2c0.3,0.9,0.6,0.5,0.1-0.2c-1.3,0.9-2.5,1.4-3.4,1.4c-0.3-1.4,1.2-0.9,1.2-2.4
			c-0.4,0-0.6-0.4-0.8,0.6c-1.5-1.2-4.2,2-5.7,2.4c-0.3-0.6,0.9-1,0.3-1.7c-0.2,1.2-0.8,1.5-1.3,1.8c0.3,0.2,0.7,0.6,1,0.3
			c0.1,0.2,0,0.4,0.1,0.6c-0.7,0.7-1.3-0.8-2.1,0.6c-0.2-0.4-0.1-0.7-0.3-1.1c-0.6,1-1.1,0.2-1.6,0.7c-0.2-0.4-0.2-0.7-0.1-1.1
			c-0.3-0.3-0.5,0.6-0.8-0.3c-0.2,0.3-0.1,0.6,0,0.8c-2.1-0.3-3.5,0.1-5.6,0.5c-0.2-0.4,0-0.9,0.3-1.2c-0.3-0.1-0.7,0.3-1,0.1
			c-0.6,0.5,0.2,1.1-0.3,1.7c-0.5-0.9-1-0.6-1.6,0.3c-0.3-0.5,0-0.8-0.4-1.3c-0.2,0.5,0.1,1-0.2,1.5c-0.6-1.2-0.5,0.1-1.4,0.3
			c-0.3-0.5,0-0.8-0.4-1.3c-0.1,0.3-0.1,0.7,0.1,1.1c-0.7,0.6-2.2-0.9-2.2-2.3c-1.1,0.7,0.8,1.3,0.1,2.6c-0.4,0-0.3-0.6-0.8-1.1
			c-0.5,0.8-1.2,0-1.4,1.6c-0.5,0-1.1,0.1-1.2-1.2l-0.6,1c0.4,1.2,0.2-0.9,0.6,0.3c-0.3,1.6-2,0.4-3,1.4c0.2-0.8,0.1-1.6,0.6-1.8
			c-0.8-1.2-0.9,1.6-1.7,1.7c-0.5-1.4-1-0.2-1.6,0.3c-0.6-1.2-1.3-0.7-1.9-0.4c-0.1-0.9,0.6-0.3,0.8-1c-0.2-0.7,0.3-1.2,0.2-1.9
			c-0.6,1.2-1.5,1.4-2.1,2.8c-0.2-0.4-0.5-0.1-0.9-0.5c-0.2-1.2,1.4-0.2,0.5-1.6c0.4-0.8,0.7,0.3,1-0.5c-0.3-1-1.3,0.7-1.2-0.8
			c-0.4,0.7-0.8,0.4-1.4,1.1c0.1-1.7-0.7-0.1-1.2-1.2c-0.7,1.2-1.4,0.8-2.1,1.5c0,0.9,0.5,1.5,0.9,0.9c-0.1,1.5-1.1,0.6-1.5,0.5
			c-0.1-0.7,0.2-1.3,0.4-1.4c-0.1-0.7-0.4-0.7-0.4-1.7c-0.1,1.9-0.7,0.5-1.3,1.8c0.2,1.1,0.5-0.1,0.8,0.7c-0.4,0.1-0.8,0.8-1.1-0.1
			c-0.1-0.4,0.2-0.2,0.4-0.6c-0.2-0.4-0.5-0.2-0.3-0.7c-0.4-0.7-0.2,1.4-0.6,0.2c0.1,0.7,0.3,1.4-0.1,2.1c-0.5,0,0-0.7-0.4-1.3
			c-0.3,0.5-0.2,1-0.2,1.5c-0.2,0.1-0.4-0.3-0.6,0.2c-0.6-1,0.4-1.8,0-2.7c-0.1,0.6-0.3,1.1-0.3,1.7c-0.4,0.9-0.7-1-1.1,0.3
			c-0.4-0.5-0.3-1-0.5-1.5c-0.5,0.8-1,0.3-1.5,0.1c-0.3,1.4-1.1,1-1.7,0.9c-0.3-0.5,0.6-0.8,0-1.3c-0.5,1.3-1.1,0.6-1.8,0.7
			c-0.5,0.4,0.2,1-0.2,1.5c-0.7,0.2-0.1-1.3-0.6-1.8c-0.3,0-0.4,0.2-0.5,0.8c-1.1-2.4-2.3,1.1-3.4-0.3c-0.4,1.4-0.7,1.2-1.4,2
			c-0.2,0-0.3-0.8-0.8-0.7c-0.1-1.1,0.7-0.5,0.9-1.2c-0.7-0.7-1.2,0.1-1.7,0.9c-0.6-0.4-0.3-0.9-0.6-1.7c-0.5,0.3-0.7-0.4-0.9,0.8
			c-0.1-0.3-0.3-0.6-0.4-0.9c0.2,1.1-1,1.5-1.5,0.1c-0.4,1.5-0.7,0.8-1.3,0.5c-0.5,0.7,0,0.3,0.2,0.9c-0.3,0.5-0.5,0-0.8,0.1
			c-0.4-1-0.1-1,0.1-1.7c-0.5,0-1-0.3-1.4-1.6c0.1-0.3,0.2-0.3,0.3-0.2c-0.1-0.8-1.1-0.5-1.6-0.6c1.2,0.7,0.9,2,2.1,2.5
			c-1.1,1.7-1.2-1.3-2-1c0,0.9,0.8,1.9,0.7,2.8c-0.3-0.8-1.1-0.7-1.3-1.8c-0.3,0.9-0.4,1.8-0.6,2.7c0.2-1.5-0.4-1.4-0.8-2.2
			c-0.2-0.6,0.5-1.1,0-1.7c-0.2,0.7-0.3,0.7-0.3,1.7c-0.3,0-0.7-0.8-0.5,0.4c-0.3,0-0.7-0.7-1-1.1c0-0.7,1,0,0.8-1.4
			c-0.6,0.7-3.4,2.4-2.8-0.1c-0.3-0.1-0.7,0.9-1,0.1c-0.5,2-1.7,0.3-2.6,2.3c-0.2-1.4-0.9-0.5-0.6-1.7c-0.4-0.4-0.3,1.1-0.8,1.4
			c-0.9-0.2-1.7-0.8-2.6,0.4c-0.1-1.2-0.8-0.9-0.9-0.1c-0.3-1.1-0.7-0.4-1-1.1c0.1,0.7,0.3,0.7,0.4,1.7c-0.4,0.1-0.9-0.8-1.1-1.4
			c-0.6-0.2-0.3,1.2-1.1-0.1c-0.1,0.3,0.1,0.7-0.1,1c0.5-0.2,1,0.1,1.4,0.8c-0.8-0.1-1.7-0.3-2.5-0.2c-0.1-0.2,0-0.4-0.1-0.6
			c0.4-0.4,1.1,0.5,1.2-0.7c-0.6-0.7-1.1,1-1.9-0.4c-0.2,0.3-0.3,0.6-0.5,0.4c-0.1,0.3-0.1,0.7,0.1,1.1c-0.5,0.7-1-0.1-1.5,0.5
			c-0.4-0.5-0.1-0.9-0.4-1.3c-0.4,0.5,0.2,1.1-0.4,1c-0.4-0.6,0.3-1-0.3-1.1c-0.3,0.3,0,0.7-0.1,1c-1.7-2.6-3.9-0.2-5.3-1.5
			c-0.2-0.4,0.3-0.8,0.3-1.2c-0.6-0.5-1.3,1.4-1.9-0.4c-0.1,0.3-0.1,0.7,0.1,1.1c-0.2,0.7-0.5,0.2-0.7,0.8c-0.3-0.4,0-0.7,0.1-1
			c-0.3-0.6-0.7,0-1-0.3c-0.1,0.3,0.1,0.6,0.2,0.9c-0.2,0.7-0.5,0-0.7,0.4c0-0.4,0.2-0.7-0.1-1.1c-0.2,0.3-0.3,0.5-0.5,0.8
			c-0.3-0.4,0-0.8-0.4-1.3c-1.1,0.3-2.2,0.5-3.3,0.3l0.3,0.7c-0.3-0.1-0.6,0.9-0.9,0.3c-0.3-0.4,0-0.7,0.1-1
			c-0.7-0.6-1.9,0.5-2.2,0.9c-0.2-0.9-0.4-1.1-0.9-0.5c0.6,0.9,0,0.8-0.3,1.2c1-0.3,1.5,0.9,2.6,0.5c0.1-0.4-0.1-0.2-0.2-0.4
			c0.3-0.9,0.4,0.6,0.7-0.4c0.3,1.1,0.3,0.8,0.9,1.8c-1.3-1-3.1,0.7-4.1-0.8c-0.1,0.2,0,0.4-0.1,0.6c-0.4,0.4,0.1-0.8-0.3-1.1
			c-0.7,1.7-1.4,0.6-2,0.2c-0.2,1.2-0.7,1-1.2,0.7c0.2-0.8,0.6-1.6,0.3-2.5c0.3-0.2,0.9,0.1,0.9-0.8c-0.4,0.1-0.4-0.1-0.7-0.9
			c-0.2,0.9-0.5,0.7-0.6,1.4c-0.4,0.3-0.7-0.5-1.1,0.3c-0.4-1.6-1.4-0.8-2.3-0.2c0-1.3-0.4-1.2-1-0.3c-0.1-0.4-0.1-0.7,0.1-1
			c-0.7-0.7-1.5,0.7-2.3,0.2c-0.2,0.4,0.3,0.9,0,1.3c-0.2,0.6-0.4-1.1-0.7-0.1c-0.2-0.4-0.2-0.7-0.1-1.1c-0.4-0.2,0,1.2-0.6,0.6
			c-0.3-0.4-0.4-0.9-0.2-1.3c-0.6,0.6-1.6-0.6-1.8,0.7c-0.3-0.5,0-0.8-0.4-1.3c0,1.3-0.6,0.2-0.6,0.2c-0.8,0.1-1.1,1.8-1.9,0.5
			c-0.2,1.2-1.1,0.6-1.6,0.7c0-0.4,0.2-0.7-0.1-1.1c-0.4,1.4-0.9,0-1.5,1.3c-0.2,0.9,0.6,1.2,0.8,0.7c0.2,0.2-0.5,0.9-0.7,0.8
			c-0.2,1,0.5,0.3,0.7,0.5c0.1,0.4-0.2,0.7-0.4,1c-0.2,0.1-0.6-1.4-1.1-0.1c-0.3-0.5-0.5-1-0.3-1.5c-0.4-0.8-0.8,0.3-1.2-0.7
			c-0.1,0.6,0,1.3-0.5,1.2c0.3-1.5,1.2-2.6,2-3.4c-0.4-0.2-0.7-0.7-1.1-0.9c-0.2,0.4-0.2,1.3-0.6,0.6c-0.1,0.3,0,0.7-0.1,1
			c-0.5,0.5-0.3-0.5-0.8-1.1c0.1,1.8-1.9,1.9-2.2,0c0,1-0.5,0-0.8,1c0.4,0.8,0.8-0.3,1.1,0.5c0,0.8-1,0-1.4-0.1
			c0,0.4-0.2,0.8-0.5,1.2c-0.3,0.5-0.3-0.7,0-0.8c-0.4-0.4-0.4,1.1-0.2,1.5c0.3-0.3,0.5,0.3,0.8-0.6c0.1,0.4,0.1,0.9,0.2,1.3
			c-0.5,0.6-1-0.8-1.6-0.1c-0.1-0.8,0.8-2.3,0.1-2.5c0.1,1.2-0.2,0.6-0.6,1c0-1.3,0.4-0.5-0.4-1.3c-0.1,0.8-0.1,1.1-0.6,1.4
			c-0.2-1.6-0.9,0.5-1.3-1c1.4-0.1,2.5-1.4,4-0.3c-0.5-1.5,1-0.6,0.9-2.2c-0.2-0.4-0.4-0.2-0.5-0.7c-0.2,1.4-1.2,0.3-1.3-0.5
			c0.3,1.2-0.5,1.1-0.2,2.3c-0.3-0.1-0.6,0.6-0.9-0.1c-0.2-0.7,0.9,0.1,0.1-1c0.3-0.9,0.4,0.6,0.7-0.4c-0.2-0.4-0.1-0.7-0.3-1.1
			c-0.7,1.4-0.9,0.2-1-0.7c0,1.8-1.5,0.5-2.2,0.9c-0.3,0.8,0,0.6,0.3,1.1c-0.8,1.4-2-0.1-2.4,1.3c-0.4-0.5,0.1-1-0.1-1.5
			c0.6,0,1.2-0.2,1.8,0.2c0.2-0.5,0.2-1.1,0-1.7c-0.2,0.4-0.3,0.2-0.5,0c-0.1,0.3-0.1,0.6,0,0.8c-0.6-1.3-2.3-0.2-2.7,1
			c0.3-2.1-0.8-1.1-1.1-2.6c-0.2,0.4-0.4,0.4-0.6,0.2c-0.2,1.1,0.5,0.3,0.7,0.9c0.2,0.9-0.5,1.4-1.1,2.6c-0.5-1.2,0.5-1.2,0.5-2.1
			c-0.6-0.9-0.4,0.1-1,0.5c0.2,0.5,0,1,0.1,1.5c-0.3,0.3-0.5-0.7-0.8,0.1c0.5,0.9,1-0.8,1.5,0.8c0.6-0.8,1.2-1.5,1.7-1.3
			c0.2,0.5-0.5,0.3-0.7,0.4c-0.2,0.6,0.3,0.8,0.4,0.3c-0.1,3.6-3.3,0.2-5,1.4c0.2,0.3,0.3,0.6,0.2,0.9c0.2,0.6,0.5-0.6,0.8,0.3
			c0.1,0.6-0.9,1.3-1.1,0.3c0.2,1-0.8,2.3-1.2,1.2c-0.1-0.2,0.7-0.9,0.9-0.3c-0.1-1.3,0.3-1.2,0.4-2.3c-0.5-0.5-0.3-0.8-0.9-1.3
			c0.8-0.4,1.3,0.5,2.3-1.1c-0.5-1,0.1-1-0.6-1.7c0,0.7,0.4,1.4-0.3,2.1c-0.8,0-1.5-0.5-2.3-0.2c0.3,0.4,0.4,0.9,0.2,1.3
			c0.3,0.2,0.7,0.3,1,0.3c0,0.6-0.5,0.9-0.7,1.2c-0.2-0.3-0.1-0.6,0-0.8c-0.6-0.6-0.2,1.2-0.9,0.8c0-0.6,0.3-1.2,0.2-1.9
			c-0.8,1.5-2.3-0.2-3.2,1.4c-0.2-0.5,0.1-1-0.3-1.5c-0.4,0.5-0.8-0.1-1.3,0.9c0.3,0.4,0.4,0.9,0.4,1.3c-0.5,0.5-1.1,0-1.6,0.7
			c-0.2-0.9,0.4-2.4,0.9-1.2c-0.2-0.7,0.2-1.2-0.1-1.9c-0.5,1.5-1,0.8-2,1.7c0.2,0.9,0.5-0.4,0.8,0.3c0,1-0.7,0.1-1,1
			c-0.2-0.4-0.1-0.7-0.3-1.1c-0.3,2.3-1.3-0.2-1.9,0.9c-0.3-1.6,0.9-1.1,1-2c-0.1-0.2-0.2,0.1-0.3,0.2c-0.5-0.5,0.3-0.8-0.2-1.3
			c-0.4,0.6-1-0.1-0.8,1c-0.4,0.9-0.7-0.5-1.1-0.1c-0.1-0.6,0.1-1.3,0.5-0.8c-0.1-1.5-1.5,1.1-1.6-1l-0.7,1.2
			c0.3,0.4,0.2,0.7,0.3,1.1c-0.4,0.5-0.4-0.3-0.7-0.9c-0.7,1.6-1.4,0-2.6-0.9c-0.7,1.1-2.1-0.7-3.2,0.1c0,1,0.5,0.3,0.8,0.7
			c-0.2,1.1-1.3,0.8-1.8,0.7c-0.2-1.1,0.7,0.1,0.6-1c-0.3-0.5-0.6-0.8-0.6-1.3c-0.3,0.4-0.8,1.6-1.2,2.4c-0.5,0.3-0.4-1.1-0.8-1.5
			c-0.3-0.2-1.1,1-1-0.3c-0.9,1.1-1.8,0.7-2.6,0.4c-0.5-0.7,0.4-1.2-0.1-1.9c-0.7,0.6,0.2,1.3-0.4,1.9c-0.5,0.6-0.5-1.1-0.9-1.8
			c-0.3,0.4-0.6-0.2-0.9-0.1c0.1-0.6,0-1.1-0.4-1.7c0,0.3-0.2,0.9-0.4,0.6c-0.3,0.6,0.3,0.1,0.4,0.9c-0.3,0.7-0.6,0-0.9-0.1
			c-0.3,0.5,0.4,0.8,0.5,0.7c0,0.5-0.1,1-0.2,1.5c-0.4,0-0.4-0.8-0.7,0.4c-0.5-1,0.1-0.7,0.1-1.5c-0.5-0.6-0.4,0.5-0.6,1
			c-0.5,0.3-1.1-0.3-1.6-0.1c0-0.6,0.4-1.2,0.4-1.9c-0.5-0.4-0.9-2.1-1.6-1.4c-0.4-1.3-0.5-2-1.5-2.2c0.3,0.5,0.7,0.5,0.6,1.3
			c-0.4,0.6-0.7,0.2-1,0.1c-0.2,0.4,0.1,0.9-0.3,1.2c0.4-0.1,1.2,1.2,1.4,0.1c0.1,0.5,0.2,1-0.2,1.5c-0.4,0.1-0.2-1.2-0.8,0.1
			c-0.5-0.5,0.3-0.8-0.2-1.3c0.1,1.3-0.6,1.2-1,0.5c-0.3,0.8,0.1,1,0.4,0.9c-0.2,0.4-0.4,0.2-0.6,0.6c-0.1-0.5-0.8-1.1-0.5-1.5
			c-0.2-0.1-1,1.1-0.8-0.3c-0.4-0.4-0.6,1.8-1.2,1.2c-0.1-0.4,0.2-0.7,0.4-1c-0.6-0.2-1.6-1.4-1.8-0.2c-0.2,0.2-1-0.3-0.4-0.9
			c-1,0.1-2.3,1.3-2.7,3.8c-0.3,0-0.5-0.2-0.8,0.1c-0.4-0.7,0.4-1.4-0.2-2.1c0.6-0.8,0.5-0.2,0.9,0.1c0.5-0.7,0.7-1.3,0.3-2.1
			c-0.1,0.2,0,0.4,0.1,0.6c-0.4,0.4-0.7,0.8-1,0.1c-0.2-0.6,0.4,0,0.5-0.8c-0.3-0.9-0.6,0.5-0.9-0.5c-0.2,2-1.5,0.5-2.3-0.6
			c-0.4,0.7-0.7,2.2,0.1,2.3c-0.2-1.1,0.3-0.7,0.7-0.4c0.1,0.4-0.2,0.4-0.3,0.2c0.2,1,1.3,0.4,1.9,0.8c-1.8,1.3-4.6,0-6.8,0.7
			c-0.1-0.3,0.1-0.6,0.2-0.8c-0.3-0.3-0.6-0.5-0.9,0.3c-0.2-1.4-0.5-0.2-0.9-0.9c-0.3-0.5,0.8-0.9,0.1-1.5c-0.4,1.3-0.7,0.5-1.5,0.1
			c-0.4,1-0.8,1.7-1.4,0.3c-0.4,0.9-0.8,0.2-1.2,1.2c-1.1-3-3.3-1-5.4-2.6c0,0.9-0.5,1.7-0.7,0.4c-0.5,0.5-0.4,1-0.4,1.4
			c-0.2,0.1-0.3,0.2-0.5,0C89.1,9,89,8.4,89.4,7.8c-0.6-0.9-0.2,1.7-0.9,0.3c-0.2,1.5-0.4,0.9-1,1c-0.2-0.5,0.1-1,0.4-1.4
			c-1.1,1.1-2.7-0.1-3.6,2.4c-0.5,0.4-0.5-0.3-0.9-0.5c-0.3-0.7,0.3-1.2-0.1-1.9c-0.4,0.5-0.3,1.1-0.3,1.7c-0.6-0.3-0.4,0.4-0.9,0.8
			c-0.3-1.1,0.4-2.5,1-2.4c-0.2-0.3-0.1-0.6,0-0.4C82.3,6,81.3,4.6,80,6.8c-0.4-0.6,0.5-1.1,0-1.7c-0.4,1.2-1.5-0.3-2.3-0.2
			c-0.2,0.3-0.1,0.7-0.4,1c0-0.4,0.2-0.7-0.1-1.1c-0.4,0-0.1,0.3-0.5,0.8c-0.1-0.3,0.2-0.5,0-0.8c-0.5-0.9-1-0.2-0.9,0.8
			c-0.1-0.3-0.2-0.3-0.3-0.2c-0.1-0.3,0.1-0.6,0.2-0.8c-1.1-0.1-2.7-1.8-3.4-0.3c-1-1.2-0.8,0.3-1.4-0.5c-0.6,1.6-1,1.3-1.8,2.2
			c0.3,0.6,0.5,0.4,0.8,0.7c-0.4,0.7-0.7-0.4-1,0.1c-0.1-0.3,0.1-0.6,0.2-0.8c-0.7-0.2-1.4-1.1-2.1-1.2c-0.1-0.3,0.1-0.6,0.2-0.8
			c-0.3-0.1-0.7-0.4-1,0.1c-0.4,2.3-2.6-1.1-3.8,0.3c1.3,0.5,2.6,0.7,4,1.4c-0.5,0.5-0.9,0-1.4-0.1c-0.2,1,0.6,0.3,0.8,0.7
			c-0.2,0.4-0.5,0.8-0.7,1.2c-0.2-0.4-0.1-0.7-0.3-1.1c-1,0.5-0.9,2.4-2.1,1.5C62.9,7.1,63.7,7,64,6.5c0-0.5-0.3-1-0.1-1.5
			c-0.2,0.3-0.8,2.8-1.7,1.8c-0.2-0.4,0-0.8,0.3-1.2c-0.5-0.8-0.9,1.7-1.6,1.1c-0.5-0.6,0.3-1.1-0.2-1.7c-0.1,0.1-0.1,0.3,0,0.4
			c0,0.6-0.6,0.1-0.5,1.2c-0.2-0.2-1-0.5-0.8,0.6c-0.3-0.2-0.5,0.3-0.8-0.3c0-0.8,0.8-1.5,0.6-2.3c-0.3,0.2-0.7,0.5-1,1
			c-0.3-0.4,0-0.8-0.4-1.3c-0.7,0.2-1.4-0.1-2-0.2c-0.2-0.5,0.4-0.2,0.6-1c-0.9-0.7-1.1,2.2-1.9,0.5c-0.2,0.2-0.5,1.3-0.7,0.8
			c-0.3,0.6,0.4,0.1,0.4,0.9c-0.1,0.2-0.2,0.4-0.4,0.6c-0.7-0.9-1.4-0.1-2-1c0-1.1,0.9-1.1,1.3-0.1c0.3-0.5,0.6-0.8,0.9-0.8
			c-0.4,0-1.2-1.6-1.8-0.2c-0.5-0.7,0.1-1.3-0.3-1.9c-0.5,1.5-1.8,1.2-2.9,1.2c-0.3-0.8,0.4-0.2,0.5-0.8c-0.5,0-0.3-0.7-0.7-1.3
			c-0.6,0.6-1.2,0-1.8,0.7C46,0.3,46,1.9,44.7,3.2c0.5-0.1,1-0.5,1.5-0.1c0.2-0.3,0.1-0.6,0-0.8C46.5,2,46.8,2,47.1,2.4
			c0.3,0.4-0.4,0.5-0.5,0.4c0.1,0.7,1.2,2.7,1.8,1.4c0.3,1.3,1.6,1.3,2.4,0.8c0.3,0.6,0.1,1.1,0.6,0.3c1.1,1.5,2.3,1.9,3.5,1.3
			c0,1.5,1.2,0.4,0.9,1.8c0.2-0.4,0.6-0.3,1-0.6c-0.2-0.4-0.4-0.2-0.6-0.7c0.2-0.2,0.5-0.2,0.7-0.4c0.1,0.4,0.1,0.7-0.1,1
			c0.3,0.7,0.6,0.2,0.9,0.9c0.2-0.3,0.1-0.6,0.2-0.8c0.3,0.6,0.5,1.2,0.8,0.3c0.2,0.3,0.4,0.9,0.6,0.7c0.3,0.4-0.6,0.8,0,1.3
			c0.5-1.6,2.4-0.7,2.8,0.4c0.4,0.5,0.1-0.6,0.5-0.8c0.1-0.1,0.2,0,0.3-0.2c0.4,0.5,0.1,1,0.5,1.5c0.8-1.3,2.2,0,3.3,0.5
			c0.3-0.8,0.5-0.5,0.8-1c-0.6-1-0.5,0.7-1,0.1c0.3-0.6,0.2-0.5-0.1-1.5c0.8-1.3,1.4-0.5,1.6,0.6c-0.3,0.7-0.6-1-0.9-0.1
			c0.5,0.1,0.7,1.3,0.3,1.9c0.7,0.1,1.4,0.7,2.1,0.8c-0.2,1.1-0.1,0.7,0.4,1.3c-0.4,0.2-0.8-0.1-1.1-0.9c-0.2,0.4,0.3,0.9,0,1.3
			c0.4-0.3,0.8,0.4,1.2,0.3c0.3-0.5-0.1-1.1-0.4-1.7c0.6-0.2,1.3,0.5,1.9-0.5c0.1-0.6-0.1-1.1,0-1.7c0.7-0.3,0,1.1,0.5,1.5
			c0.1,0.4-0.2,0.2-0.4,0.6c0.6,1.5,2.2,0.7,2.9,2.4c0.9-1.3,1.8-0.3,2.7-0.2c0.3,1.1-0.6,0.9-0.7,2c0.7,0.9,0.9-1.3,1,0.7
			c0.2-0.7,0.2-1.4,0-2.1c0.8-0.4,1.6-0.2,2.4,0.4c0.3-1.6,1-0.9,1.6-0.7c0.1,0.3-0.1,0.6-0.2,0.8c-0.2,0.2-0.4-0.4-0.6-0.7
			c-0.2,0.2-0.2,0.4-0.1,0.6l-0.2,0.4c0.4,0.6,0.8-0.6,1.2,0.7c-0.3,0.5-0.5,0-0.8,0.1c-0.2,1.1,0.7,0.6,0.9,0.9
			c-0.8,1.7,0.9,0.4,1.4,1.2c0-0.7,0.1-1.9,0.6-1.8c-0.3,1.1,0.3,1.1,0.3,2.3c0.1-0.3,0.2-0.3,0.3-0.2c-0.2-1.2,0.6-1,0.7-2
			c0.3,0.2,1.2,1.5,1.9,0.4c0.4,0.6,0,1.1,0,1.7c0.6,0.6,1.2,0.7,1.6,1.4c0.2-0.3,0.3-0.5,0.5-0.8l-0.4-0.9
			c-0.4,1.2-0.8-0.3-1.2-0.3c0.5-0.9,1,0.5,1.6-0.3c-0.1,2.6,1.2,1.2,2.1,2.5c-0.3-0.3-0.7,0.3-1-0.3c-0.1,1.1,0.9,0.7,1.2,0.7
			c0.1-0.6,0.1-1.1,0.3-1.7c0.6-0.3,0.3,1.1,0.5,1.5c0.2-0.4,0.3-0.2,0.5,0c0-1.3,0.6-1.3,1.1,0.1c-0.3-1.4,0.2-0.4,0.7-1.6
			c0.6,1.2-0.8,1,0,2.1c0.2-1.5,0.6-1.1,1-2c0.5,1-0.7,0.9-0.5,1.6c0.5,0.1,0.7,0.1,1-1c0.5,0.9-0.4,0.5-0.3,1.2
			c1,1.6,1.3-0.2,2.3-0.6c0.3,0.5,0.1,1,0.5,1.5c0.5-0.9,1,0,1.5-0.5c0.1,0.6-0.1,1.1,0,1.7c-0.2,0.4-0.3,0.1-0.5,0.4
			c-0.4-0.5,0-0.8,0-1.3c-0.7,0.2-0.9,0.9-1.7,0.5c0.5,0.4,1,1.2,1.5,0.8c0.4,0.6-0.6,0-0.2,0.8c-0.5-0.5-1.1-0.3-1.6-0.6
			c-0.1,0.3,0.1,0.6,0,0.8c-0.4,0.4-0.1-0.8-0.5-1.1c-0.2,0.4-0.4,0.4-0.6,0.2c-0.1,2.6-1.1-0.7-1.7,0.9c-0.4-0.6,0.1-1.3-0.4-1.3
			c-0.3,0.8,0.1,1.7-0.3,2.5c0.3,0.6,0.6-0.1,0.9,0.5c0.1-0.3-0.1-0.6-0.2-0.9c0.4-0.7,0.8-0.1,1.1,0.1c0.1,0.8-0.4,0.3-0.5,1.2
			c-0.5,0.1-0.9-0.3-1.4,0.3c-0.4-0.6,0.1-1.3-0.4-1.3c-0.8,3-3.2,0.6-4.7,0.7c-0.1-0.6,0.5-1.1,0.3-1.7c1.3,0.4,2.7,1.3,4.1,1.2
			c0.2-0.7-0.5-0.8-0.7-0.1c-0.3-0.8-0.8-0.6-0.3-1.5c-0.4,0.1-0.8,0.3-1.1,0.3c-0.1-0.6,0.3-1.1-0.2-1.7c-0.4,1.2-0.5,0.8-1,0.5
			c-0.4-0.5,0.1-1-0.3-1.5c-0.8-0.4-1.8,0.3-2.3,1.1c0-0.4-0.2-0.7-0.1-1.1c0.3-0.6,0,1.1,0.5,0c-0.7-0.9-1.4-0.2-2-1l-0.8,1.4
			c-0.2-0.6-0.2-1.2-0.6-1.7c-0.5,1.4,0.3,1.4,0.4,2.1c-0.4,0.7-0.8-1.5-1.2-0.3c-0.5-0.9,0.5-1.6-0.2-2.5c-0.1,0.2,0,0.4,0.1,0.6
			c-0.9,0.7-1.7-0.1-2.6-0.4c-0.5,0.9,0.2,1.9,0.6,1.7c-0.4,0.4-0.9,2.3-1.3,1.4c-0.2-0.8,0.5-0.2,0.4-1c-0.2-1-0.5,0.5-0.7-0.5
			c-0.3,0.8,0,1.1-0.6,1.4c-0.3-0.4-0.2-0.9,0-1.3c-0.6-0.9-0.6,1.6-1.2,0.7c-0.2-0.6,0.6-1.2,0.2-1.9c-0.4,0.5-0.3,1-0.6,1.4
			c-0.2,0.1-0.3,0.2-0.5,0c0-0.7,0.6-0.6,0.5-1.6c-0.6,0-0.4-0.6-1-1.6c-1-0.9-2.2,0.1-2.9,0.2c0.7-1.5-1.8-1-2.6-1.7
			c0.1-1.1,1,0.3,1.5-0.9c-0.9-1.1-1.7,1-2.4-0.4c-0.1,0.3,0.1,0.6,0.2,0.9c-0.3,1-0.6,0-0.9,0.8c-0.8-2.1-2-0.3-2.5-1.9
			c-1.1,0.9-1.7-0.3-2.5,1.1c0.4,0.1,0.1,0.3,0.4,0.9c-1.3,1.3-1.6-1.1-1.6-2.9c-0.3,0.8-0.1,1.7-0.3,2.5c-0.5-0.3-1-0.2-1.5-0.8
			c-0.2-0.5,0.5-0.5,0.8-0.9c-0.3,0-1.7-1-2-0.7c-0.3-0.2-0.2-1.4,0-0.8c0-1-0.5-0.1-0.7-0.1c-0.1,0.3,0.1,0.6,0.2,0.9
			c-0.9,0-2.3-2.6-3.6-1.6l-0.5-1.1c-0.2,0.4-0.4-0.3-0.7,0.4c-0.9-2.3-2-0.2-2.9-2.3c-1,1-2,0.1-3-1.3c0.6-0.6,0.7-1.1,1.2-1.6
			c-1.1,0-2.3,1.3-2.8,0c0,1.8-0.8,2.6-0.5,4.6c-0.6-0.3-1.1-0.9-1.7-1.2c0,1.9,2.1,0.8,2,3.1c-0.2,0.5-0.4-0.7-0.7-0.9
			c-0.1,1.3-0.9,0-1.4,1.2c0.1-0.7,0.2-1.4-0.4-2.1c0,1-0.3,1.2-0.8,1.8c-0.3-0.8-1-1.9-1-0.7c-0.4-0.6-0.2-1.3-0.7-1.3
			c-0.2-0.8,0.1-0.5,0.4-1c-0.5-0.2-1-0.5-1.5,0.1c-0.4-0.7,0.4-1.4,0-2.1c-0.2,0.3-0.4,2-0.8,1c-0.1,0.5-0.4,1,0.1,1.5
			c-0.7,0.4-0.5,0.2-0.8,1.4c-0.2,0.7-0.4-1.2-0.7-0.5c-0.5,0.8,0.3,0.9,0.4,1.3c-0.3,0.2-0.6-0.5-0.9-0.1c-0.2-0.6,0.5-1.1,0-1.7
			c-0.2,0.9-0.8,0.3-0.6-0.3c-0.7,1.6-1.9,0.7-2.8-0.8c0,0.5-0.3,1-0.4,1.4c0.5,0.5,0.3,0.5,0.7,1.3c0.3-0.3,0.1-0.7-0.1-1.1
			c1-0.3,1.9,1.1,2.8,1.7c-0.8,0.7-1.6-1.1-2.4-0.4c0.4,0.3,0.8,0.6,1.2,1.1c-0.5,0.5-0.9-0.7-1.4,0.7c-0.2-0.6,0.2-1.1-0.2-1.7
			c-0.2,0.4-0.4,0.2-0.6,0.6c-0.3-0.4,0-0.7,0.1-1c-0.2-0.4-0.5,0.3-0.7-0.5c-0.1,1.2-0.9,0.4-0.9,1.6c-0.6-0.7,0-1.4-0.4-2.1
			c-0.5,0.6-1.5-0.2-1.6-1c-0.7,0.7-0.7-0.6-1.4-0.1c-0.3-0.8,0.4-0.2,0.5-0.8c-0.6-0.9-1.3-0.1-1.9-0.8c-0.3,0.6-0.3,0.9-0.4,1.9
			c-0.4-0.2-1.1,0.1-1.2,1.2c-0.5-0.5,0.3-0.8-0.2-1.3c-0.3-0.3-0.7,0.5-1-0.3c-0.4,0.5-0.2,1-0.6,1c-0.4-0.7,0.5-1.4,0.5-2.1
			c0.3-0.6,0.5,1.4,0.8,0.3c-0.1-1-1-0.9-1.5-0.3c-0.4-0.5-0.1-0.9-0.4-1.3c-0.6,0.7-1.8,1.5-1.9,0.5c-0.2-0.2-0.2,0.3-0.1,0.6
			c-0.4,0.1-0.8,0.4-1.2-0.7c-0.3,0.8-0.5,0.2-0.8,1c0.5-0.7,1,1.5,1.5,0.3c0.3,1.1-0.2,1.5,0.7,2.2c-0.7,1.4-0.9-0.2-1-0.3
			c-0.5,1,0.4,0.8,0.4,1.7c0.2-0.7,0.5-0.6,0.7,0.1c0.3-0.8,0.6-0.2,0.6-1c-0.4-0.5-0.7,0-0.6-1.1c0.3-0.4,0.5,0.9,0.8,0.3
			c0.2,0.8-0.3,1.1,0.3,1.5c-0.2-1.5,0.5,0.1,0.9,0.1c0.1,0.2,0,1-0.2,1.1c0.4,0.3,1,1.3,1.4,0.9c0.4,1.8,1.1,0.7,1.4,2.4
			c0.6-0.3,0.5-1.2,1.2-1.2c0.1,0.4-0.2,0.7-0.4,1c0.5,1.4,1,0.6,1.5,1.2c0.2-0.5,0.1-0.8-0.2-0.9c0.3-1,0.8,0.1,0.8-1
			c0,0.2,0.1,1.3,0.4,0.9c0.2,0.8-0.1,0.5-0.4,1c0.6,0.8,1.2-0.2,1.8,1.4c0.2-2.2,0.8,1.1,1.4-0.7c-0.1,1.3,0.5,0.6,0.5,1.5
			c-0.4,0.1-0.8,0.4-1.2-0.7c-0.4,1.7-1.4,0.2-2.2-0.8c0,0.6-0.1,1.3-0.6,1.9c1.1-1.9,3.2,3.2,4.3-0.5c0.7,0.3,1.4,0,2.1,0.8
			c0.2-0.5,0.1-0.8-0.2-0.9c0.2-0.4,0.5-0.8,0.7-1.2c0.2-0.1,0.5,0.1,0.7,0.5c-0.4,0.7-0.7-0.1-1,1c0.3,0.6,0.7,0.5,1,1.1l0.5-0.8
			c0.2,0,0.4,0.1,0.6,0.3c0.2,0.5-0.1,1-0.4,1.4c0.8,0.4,0.5-2,1.4-1.2c0.1-0.3,0.1-0.7-0.1-1.1c0.2-0.3,0.5-0.5,0.7-0.4
			c-0.5,1.8,1.3,2.4,1.9,3.3c-0.7,0.5-2.3-0.9-2.3,0.7c-0.7,0-1.4-0.8-2-0.6c-0.1,1.2,0.8,0.4,1.1,0.9c-0.5,0.5-0.5,0.1-0.9,1.2
			c-0.3-1.9-0.7-0.3-0.9-2.2c-0.6,0.7-0.3,1.5-0.2,2.3c-0.4,0.3-0.4-1-0.7-1.3c-0.3,0.5-0.5,0.2-0.8,1c-0.4-0.5-0.1-0.9-0.4-1.3
			c-0.5,1-0.3,0-0.8-0.3c-0.5,0.6-1.1,0-1.6,0.7c-0.5-0.5,0.1-1-0.1-1.5c0.6-0.3,1.6,0.8,1.5-0.9c-0.3-0.2-0.6,0.6-0.9,0.8
			c0-0.3-0.1-0.6-0.2-0.9c-0.5,0.9-0.6,1-1,0.1c-0.7,0.7,0.1,1.5-0.6,2.3c-0.1,0.1-0.2,0-0.3,0.2c-0.4-0.6,0-1.1,0-1.7
			c-0.3-1-0.6-0.1-0.9-0.9c-0.2,0.3-0.1,0.6,0,0.8c-0.7,0.5-1.3-1.6-2.1,0.3c-1.2-0.8-2.2,0-3.2-1.5c-0.4,1-0.8,0.2-1.1,0.3
			c-0.1,1,0,1.2-0.4,1.9c0.5,1,0.5,0.7,0.9,1.8c0.3-1,0.1-0.8,0.5-1.7c0.5-0.3,1,0.5,1.5-0.5c0.3,0.8-0.5,1.5-0.6,2.3
			c0.3,0.6,1.1-0.1,1,1.1c0.8,0.4,1.5-1.1,2.3,0.6c-0.5,0.6-0.9,0.2-1.4,0.7c0.3,0.2,0.6,0,0.9,0.9c0.1-0.9,0.2-0.9,0.5,0
			c0.9-1.4,1.7,0.9,2.6,0.4c0.5,0.5-0.1,0.8-0.2,1.2c0.3,0.8,0.6,0,0.9,0.5c-0.2-0.8-0.2-1.5-0.8-2.4c0-0.4,0-0.7,0.1-1
			c0.3-0.1,0.5,0.2,0.8,0.3c0.1,0.4-0.3,0.8,0.2,1.3c0.3-0.3,0.2-0.7,0.4-1c0.2-0.2,0.3,0.3,0.5,0c0.3,0.9-0.2,0.5-0.2,1.2
			c-0.3,0.5-0.7-0.8-1,0.1c3.5,1.2,7,1.4,10.5,3.1c0.3-1.7,1.4-0.7,1.6,0.6c0.2-0.9-0.1-1.8,0.2-2.7c0.7-0.4,0.6,1.3,1.2,0.7
			c0.1,0.3-0.1,0.6-0.2,0.8c0.6,0.3,1.1-0.6,1.7-0.1c-0.7,2.2,1.3,1.4,2.2,3.1c0.5-0.4,0-0.8-0.2-1.3c0.9,0.2,0.5,0.4,1.3,1
			c0.1-0.3-0.3-0.7-0.1-1.1c0.2-0.1,0.5,0.1,0.7,0.5c0-0.4,0.2-0.8,0.5-1.2c0.5-0.6,0.3,1.1,0.9,0.1c0.2,0.4,0,0.8-0.3,1.2
			c1.3,0.7,1.1,1.4,2.8,0.9c0.1,0.4,0.1,0.7-0.1,1c1.1-1.1,2.1,0.1,3.2-0.6c0,0.3,0.1,0.6,0,0.8c0.4,0.1,0.8-0.6,1.3-1.4
			c0.4,0.4,0.3,0.9,0,1.3c1.4-0.4,2.7,2.1,4.1-0.1c0.4,0.5-0.1,1,0.3,1.5c-0.2,0.4-0.4-0.3-0.7,0.4c1.1-0.3,2.4-1.4,3.7-0.3
			c0.2-0.9-0.9-0.7-0.2-1.7c0.6,0.9,1,1.7,1.6,1.4c0.4-1.3-0.5-0.1-0.8-0.7c0.4-0.9,0.8-0.3,1.3-0.5c0,0.7-0.1,1.4-0.3,2.1
			c1.1-0.2,2-1.7,3.3-0.8c0.1,0.3-0.2,0.6,0,0.8c0.2,0.4,0.4,0.2,0.5,0.7c0.4-0.8,0.2-0.8,0.7-1.2c0,0.4,0.1,0.9,0.4,1.3
			c0.6-0.4,1.1-0.1,1.7-0.1c0.3,0.6-0.4,0.7-0.5,0.4c0.4,1.3,1.4-0.1,1.7-1.3c0.6,0.6,0,1.1-0.3,1.7c0.8,0.1,1.6-1.6,2.4-0.8
			c0.2,0.3-0.2,1-0.4,0.6c0.2,0.7,0.5,1,1,1.1c-0.2,0.1-0.7,0.2-0.2,0.8c-0.2,0.2-0.4-0.5-0.7,0.4c0.4,0.8,0.8,0,1.1,0.5
			c-0.1-0.6,0.2-1.6,0.6-1c0.1-0.4-0.2-0.2-0.3-0.7c0.5-0.4,0.9-0.4,1.4-1.6c0.5,0.6-0.3,1.1,0.2,1.7c0.3-0.7,0.9-0.6,0.9-1.6
			c1,0.3,2,1,2.7,0.7c0-0.5-0.1-1,0.4-1.4c0.3,1.2-0.3,1.8,0.6,2.2c-0.3,0.8-0.6,0.2-0.9,0.3c0,1.1,1.1-0.1,1.5,0.3
			c0-0.4-0.1-0.7,0.1-1c0.4,0.5,0.6,0.2,0.9,1.3c0.4-0.5,0.2-1,0.6-1.4c0.3-0.1,0.6,1.9,1.2,0.3c0.3,0.4,0,0.8,0.4,1.3
			c-0.3,0.5-0.5,0.3-0.8,0.1c1.6,2.2,4.4,0.4,6.4,1.2c0,0.6-0.2,1.1-0.5,1.6c0.4,0.3,0.8-0.3,1.2,0.3c0.3-0.5,0.2-1,0.1-1.5
			c1,0,2.8,2.2,3.9-0.5c0.3,1-0.4,0.7-0.4,1.4c0.7,0.1,0.9,0.1,1.5,0.3c0.1-0.3,0-0.7,0.1-1c0.7-0.3,1.9,2.2,2.4,0.4
			c0.3,0.5,0.1,1,0.5,1.5c0.3-0.2,0.7-1.2,1-0.1c0.6-2.2,1.9,0.7,2.8-0.8c-0.1,0.4,0.4,0.9,0.2,1.3c0.6-0.4,1.2-1.1,1.7,0.4
			c0.2-0.5,0.5-0.7,0.7-0.8c0,0.3,0.1,0.6,0.2,0.9c0.1-0.7,0.7-0.6,0.5,0c0.4-0.6,1-0.4,1.6,0.1c-0.1-0.9,0.2-1,0.6-1
			c0.1,0.3-0.1,0.6-0.2,0.8c0.6,0.4,1.1,0,1.7,0.4c-0.5,1-0.6-0.3-0.8,1c0.3,0.2,0.7,0.6,1,0.3c0.1,0.4-0.2,0.7-0.4,1
			c-0.4,0-0.8-1.5-1.2-0.3c0.5-0.2,0.3,1.4,0.8,1.1c0.1,1-0.3,1-0.7,1.2c-0.2-0.5,0.1-1,0.1-1.5c-0.4-0.6-0.6,0.4-0.8,1
			c-0.4,0-0.8,0.3-1.1-0.5c0.8,0.3,0.7-1.3,1.3-0.9c0.2-0.8-0.7-0.4,0-1.3c0.4-0.6-0.1,1.3,0.3,0.7c0.6-0.8,0.1-0.5-0.2-1.3
			c0.2-0.1,0.3-0.2,0.5,0c-0.5-0.8-2,0.3-2.8-0.5c0.2,1.2-0.4,0.2-0.5,1.2c0.5,0,1.1-0.1,1.6-0.7c0.2,2.8-1.6,1.8-2.2,2.5
			c-0.8-1.1,0-2.1-0.5-3.2c-0.1,1.4-0.7-0.4-1.1,0.7c0.4-0.2,1.3,0.4,1,1.6c-0.6-1.4-0.6,0.7-1.5-0.3c-0.4-0.7,0.2-1.3-0.3-1.9
			l-0.6,1c0.2,0.3,0.3,0.6,0.2,0.9c-1.1,1-2.1,0.5-3.2,1c0.3,1,0.7,0.3,1,0.7c-0.7,0.7-1.8,1.1-2-0.6c0.3,0.2,0.6,0,0.9-0.8
			c0.1-0.8-0.5-0.3-0.3-1.1c-0.7,0.2-1.4,1.8-1.8-0.2c-0.3,0.8-0.5,0.3-0.8,0.1c0,0.4-0.3,0.7-0.1,1c-0.8-0.8-2.3,0.6-2.7-1.1
			c-0.5,0.1-1,0.4-1.5,0.5c0-0.4,0.1-0.7,0.1-1c-0.4-0.5-0.3,0.8-0.6,1c-0.4-0.7-0.2-1.4,0-2.1c-0.5-0.4-1.2,0-1.3-1.4
			c-0.2,0.8,0.2,1.7-0.3,2.5c0.7,0.7,0.3-1.8,1.1-0.7c0.1,0.8-0.1,1.3-0.5,1.6c-0.9,0.3-1.7-1.8-2.6-1.3c-0.3-1.2,0.4-0.7,0.7-1.2
			c-0.4-0.6-0.8,0-1.1,0.3c0,0.3,0.1,0.6,0.2,0.9c-0.3,0.2-0.4-0.5-0.5,0.4c-0.6-0.9-1.3,1.3-1.9-0.8c-0.1,1-1,1-1.1-0.1
			c-0.4,1.8-1.5,1.6-2.2,0.9c-0.2,0.3-0.1,0.6-0.2,0.8c-0.6-0.8-1.2-0.2-1.2-1.6c-0.3,0.5-0.5,0.9-0.8,1.4c-0.8-0.8,0.3-1.4-0.2-2.1
			c-0.5,0.8-1,0.6-1.5,0.1c-0.1,0.7-0.6,1.4-0.7,2c-0.3-0.9,0.6-1.6,0.1-2.5c0,2.1-1.5,1.8-2.2,0.9c-0.6,0.4-0.5,1.6-1.2,1.2
			c0-0.7,0.5-1.6-0.2-1.3c-0.1-0.6,0.2-1.2,0.6-1.8c-0.1-0.2-0.1-0.1-0.2,0l-0.2-0.4c-0.4,0.5-0.1,1.1-0.5,1.6
			c-0.6,0.6-0.5-1.1-1.1-1.8c-0.4,0.8-0.8-0.4-1.2,0.1c0.4,1.2,0.9,1,1.3,0.5c0,0.5,0.2,1,0.5,1.5c-0.5-0.3-0.4,0.7-1-0.3
			c-0.5,0.4,0.3,0.9-0.3,1.2c-0.5-1.1-1.5-0.9-2.3-1.3c-0.1,0.5,0.7,0.7,0.9,0.5c0.1,1.7-1,1.3-1.5,0.9c-0.3-1,0.8,0,0.5-0.8
			c-0.6-1.1-0.5,0.7-1,0.1c0.7-2-1.7,0.2-2.4-1.9c-0.3,0.8-1.1,1.3-1.7,2.2c0.1-1.9-1.8-0.4-2,0.2c-0.2-0.3-0.3-0.6-0.2-0.9
			c-0.2,0.6-0.7-0.1-1.1,0.8c-0.3-1.6-0.8-0.1-1.6,0.3c-0.2-0.5,0.1-1-0.3-1.5c-1.4,1-2.2,0-3.6,0.5c-0.2-0.6,0.1-1-0.3-1.1
			c-0.1,1.7-0.8,0.6-1.1-0.5c0.2,1.3-0.5,2.2-1.2,1.6c-0.2-1.1,0.7,0.1,0.6-1c-0.2-0.4-0.4-0.2-0.6-0.7c-0.2,0.5,0.1,1.1-0.4,1
			c-0.1-0.4,0.3-0.7,0.1-1c-0.7-0.6-1,0-0.9,0.8c-0.6,0.3,0-1.3-0.5-1.1c0.1,1-0.4,1.3-0.9,1.6C54,46.8,53.9,48,53.4,47
			c0,0.9-0.6,0.8-0.9,0.3c0-0.5,0.2-0.2,0.1-1c-0.2,1.3-1.9-0.3-1.7,1.8c-0.4-0.6-0.9,1.2-1.3,0.5c-0.3-1,0.4-0.6,0.7-1.6
			c-0.4-0.4-0.8,0.1-1.2-0.3c-0.2,2.6-1.7,1.3-2.2,1.7c0-0.8,0.6-1.1,0.8-1.4c0.2,0.3,0.1,0.6,0,0.8c0.5,0.5,0.4-0.6,0.9-0.8
			c-0.7-0.3-0.9-0.1-1.6-1.8c-0.5,0.5,0,1-0.1,1.5c-0.7-1.6-3.3-0.2-4.3-0.8c-0.1,0.1-0.9,0.8-0.6,1.4c-0.6,0.9-1.1-1-1.1,0.8
			c-0.3-0.6,0.1-1.1,0-1.7c0.2-0.2,0.4,0.4,0.6,0.7c0.4-0.8-0.2-1.4,0.5-1.7c-0.6-0.1-0.7,0.5-1.4,1.2c0-0.3-0.1-0.6-0.2-0.9
			c-0.4,0.7,0.2,0.5,0.1,1.5c-0.3,0.4-0.7-0.4-1,0.6c1.7,1.2,3.4,1.4,5.2,1.7c0.5,0.5-0.3,0.8,0.2,1.3c0.4,0,0.3-0.5,0.6-1
			c0.4,0.9-0.3,1.7-0.7,2.5c-1-0.1-2-2.1-3.3-0.9c-0.3,0-0.7-0.9-1-0.7c0.3,1,0.2,0.8-0.5,0.4c-0.4,0.4,0,0.8-0.2,1.2
			c-0.8-1.7-1-0.5-1.8-0.6c-0.3-0.4,0-0.8-0.4-1.3c0,0.9-0.3,1.5-0.8,1c-0.3-0.4,0.6-0.8,0-1.3c-0.2,0.4-0.3,0.2-0.5,0
			c0,0.3-0.1,0.7-0.4,1c-1-0.6-1.4-0.8-2.2-1.9c-0.2,1.8-0.7-0.5-1.3,0.5c-0.2-0.8,0.4-0.2,0.6-1c-0.4,0-0.8,0.2-1.2-0.3
			c-0.2,0.2-0.5,1.3-0.7,0.8c0.1,1.1,0,1-0.6,1.9c0.9-0.2,1.2,1.2,1.9,0.4c0.4,1-0.3,0.7,0.1,1.5c0.5-0.6,0.5-1.2,0.4-1.9
			c0.3-0.3,0.5,0,0.8-0.6c0,1.4,0.7,0.7,1.1,0.5c0.3,0.9-0.5,0.8-0.6,1.9c0.4,0.2,0.5-0.2,0.7-0.8c0.1,0.4,0.5,1.2,1.1,1.4
			c0-0.6,0.4-1.1,0.7-1.6c0.1,0.7,0,1.4,0.4,2.1c0.3-0.6,0.6,0.1,0.9,0.1c-0.1,0.5,0.1,1,0.1,1.5c1.2-0.3,2.4,0.2,3.6,0.7
			c0.7-1.3,1.3,0.6,2-0.3c1.2,2.3,2.9-1.1,3.7,1.8c0.2-0.8,0.5-0.2,0.7-0.8c0.3,0.8,0.6,0.9,0.9,1.3c-0.5,0.5-0.8-0.4-1,1
			c0.2-1.1-0.3-0.6-0.7-0.9c-0.3,0.9,0.1,0.7,0.4,0.9c-0.5,1-1.1,0.3-1.6,0.3c-0.2-0.4,0.5-0.6,0.7-0.4C46.7,58,45.5,59,45,58.7
			c0.2,0.8,0.5-0.1,0.8,0.7c-1-0.3-1.4,0.7-2.4,0.9c-0.3-0.5,0.8-0.9,0.1-1.5L43,59.6c-1-0.9-2.1-0.3-2.8,0.4c0.7-1.1-0.4-0.9-1-1.1
			c-0.1,0.5-0.4,1,0.1,1.1c-0.8,1.5-0.9-0.9-1.6,0.3c-0.3-0.7-0.1-1.3-0.1-1.9c-0.3-0.3-0.8,1-0.8,1.4c-0.5,0.5-1.3-1.5-1.5,0.1
			c-0.2,0-1-0.7-0.8-1.1c-0.4,1-1.7,1.1-2.7,0.2c0.6-0.4,0.5-0.2,1-1.4c-0.4-0.5-0.7-0.8-1.1-1.4c-0.3,0.2,0.3,1.5-0.1,1
			c-0.2,1.1,0.5,0,0.7,0.1c0.1,1.4-1.3,2.2-1.8,0.7c-0.7-0.1-1.5,2.6-2.3,1.1l-0.5,0.8c-0.4-0.4,0-0.8,0-1.3
			c-0.4-0.4-0.9,1.2-1.4,0.3c-0.2-0.8,0.4-0.5,0.6-1c-1.3,0.5-2.5,1.2-3.3-0.5c-0.4,0-0.7-0.2-1.1,0.8c0.3,0.4,0.3,0.7,0.1,1.1
			c-0.4-1.1-1.7,0.2-2.5-1c0.3-0.5,0.5-1,0.8-0.6c-0.2-0.7-1.4-0.9-2-1c-0.5,1,0.4,0,0.6,1.1c-0.4,0.7-0.8,0-1.1,0.8
			c0.1,0.4,0.1,0.7-0.1,1c0.3,0.6,0.4,0.1,0.4,0.9c-0.1,0-0.3,0.1-0.5,0.4c-0.6-1.6-0.7-1.2-1.4-2c0.4-1,0.7,0.7,1.1-0.3
			c-0.3-0.8-0.5-0.3-0.8-1.1c0.2,0.9-0.8,1.5-1.3,1.4c-0.1-0.3,0.1-0.6,0.2-0.8c-0.3-1-0.6-0.1-0.9-0.9c-0.2,0.4,0.3,0.9,0.2,1.3
			c-0.8,0.7-1.6-0.4-2.4,0c0,1.1,0.6-0.1,0.9,0.5c0.1,0.2,0,0.4,0.1,0.6c-0.6-0.5-0.7,0.4-1.4,0.7c0,1.2,0.6,0.8,0.8-0.2
			c0.5,0.6-0.5,1.2,0.2,1.3c-0.3,0.6-1.1,0.8-0.6,1.9c0.3,0,0.4-0.5,0.1-1c0.2-0.2,0.3,0.2,0.4,0.5c0.4-0.5,0.3-1,0.6-1.4
			c0.7,0.1,1.3,0.5,2-0.3c0.8,2.2,1.6,0.4,2.5,1c-0.1,1.7-1.3,0.5-1.4,2c1.3-0.6,2,1,3.4-0.6c0.3,1,0.5,1.8,1.1,0.5
			c0.3,0.9,0.1,2-0.4,2.3c0.2,0.6,0.4-0.1,0.6,0.3c-0.2-0.7,0.5-1.4,0-2.1c0.8,1.2,1.6-0.4,2.4,0c-1,0.8-1.7,1.7-1.9,1.7
			c0.3,1.6,1.7-0.5,2.4-0.9c0,1.1,0.8,0.8,1.2,0.7c0.1-0.3-0.1-0.6,0-0.8c0.1-0.1,0.2,0,0.3-0.2c0,0.4-0.2,0.7,0.1,1.1
			c0.9,0.1,1.9-0.7,2.8-0.8c0.1,0.2,0,0.4,0.1,0.6c-1,0.4-1.3,1.1-2.3,1.5c0.8,1,1.6,0.2,2.4,0.8c0.3-0.7-0.3-0.3-0.4-0.9
			c0.2-0.5,0.4-0.4,0.6-0.6c0.5,0.7,0.1,1.7,0.7,1.7c0.2-0.3,0.1-0.7,0.4-1c-0.1-0.2-0.2,0.1-0.3,0.2c-0.3-0.5-0.2-2.2-0.4-0.9
			c-0.7-1.2,0.1-1.6,0.6-1.4c-0.6,0.6,0.6,0.8,0.2,1.7c0.3,0.4,0.6-1.1,0.9-0.8c0.3,0.8-0.5,1.3-0.8,1.4c-0.3,0.5,0.3,1.1,0,1.7
			c0.4,0.6,0.8-0.4,1.2,0.3c0,0.9-0.5,0.6-0.7,1.6c0.4,1.2,0.8-0.4,1.2,0.7c0.2-0.8-0.5-0.4-0.7-1.3c0.3,0.1,0.7-0.1,1,0.3
			c-0.5-0.9-0.2-1.4-0.1-2.3c0.1-0.1,0.2,0,0.3-0.2c0.5,0.5-0.3,0.8,0.2,1.3c0.5-1.3,3.1-0.1,2.9,1.5c0.3-0.7,0.7-0.3,0.7-1.2
			c0.6,0.7,0.2,1.3,0.5,1.9c-0.6-0.3-1.1,0.6-1.7,0.1c0.3,1,1.6,1.2,2.3,0.8c0.2,0.4-0.2,0.8,0.2,1.3c0.5-0.6,1-1.3,1.7-0.1
			c0.1-1.1,0.6-0.9,0.3-2.1c0.3,0.9,0.8-0.4,1.3,0.5c-0.3-1.6,0.9-0.6,0.9-1.6c0.8,0.7-0.5,1.2,0.1,1.9c0.4-0.8,0.7-0.8,1-0.5
			c0,0.5-0.1,1-0.1,1.5c-1.2,0.5-2.3-0.4-3.2,0.6c0.2,0.8,0.5-0.4,0.8,0.7c1.5-2.3,2.9,1.6,4.4-0.3c1.4,2.2,4,0.2,4.7,2.5
			c0.4,0.2,0.9,0.2,1.3,0.5c0.3-1.6,1-0.4,1.6-0.7c0,0.4-0.2,0.7,0.1,1.1c0.1-1.1,0.9-1.1,0.8-0.1c1.3-1.2,2.5,0.8,3.7,0.1
			c-0.3-0.6,0.3-1,0.5-1.2c0.2,0.5-0.5,0.9-0.4,1.4c1,1.1,2.1-0.2,3.2-0.2c-0.1,1.6,1.2,1.8,1.5,0.8c0.2,0.8,0.4,0.3,0.7,0.9
			c0.6-2.3,2.9,1.2,4.2-0.7c1,2.4,2.8-1.3,3.6,1.2c-0.3-0.3-0.7,0-1,0.1c0.2,1.2,1.4-0.4,2.3,0.2c0.4,0.2,1.6,1.6,1.7,0.4
			c0.2-0.5,0.4,0.7,0.7,0.9c0.8-0.8,1.6,0,2.4-0.8c0.9,0.9,2.9,0.8,4.4,1c37.8,8,75.9,6.9,114.1,5.7c0.3,0.5,0,1-0.2,1.5
			c-2.8-1.5-5.8,1-8.6-0.4c-0.2,0.9-0.4,0.7-0.8,1c-0.1-0.4,0.2-0.2,0.4-0.6c-0.4-0.5-0.9,1-1.4-0.1c-0.4,0.5,0,1.1-0.3,1.7
			c-1.2-2.1-3.1-1.5-4.7-0.4c-1.3-0.4-2.5-1.1-3.8,0.1c-0.1-0.2-0.2-0.4-0.1-0.6c-2,1.2-4.8-0.5-6.1,1.1c-0.3-0.6,0-0.8-0.4-0.9
			c-0.1,0.3,0.1,0.6,0.2,0.9c-2.5-1.5-4.6,1.1-7.2-0.7c-0.3,1.4-1.5,0-2.1,0c-1,0-1.8,1.4-2.3,0.2c-0.9,0.9-1.8,0.9-2.7-0.2
			c-0.5,0.4,0.3,0.9-0.3,1.2c-0.1,0.5-0.7-0.7-0.4-0.9c-0.6,1.1-1.2,0.1-1.8,0.7c-0.2-0.3-0.1-0.6,0-0.8c-0.8,1.1-1.6,0.3-2.4,0.8
			c-0.1-1.6-0.1-0.2-0.7-0.9c0,0.5-0.3,1-0.6,1c0-0.4-0.1-0.7-0.3-1.1c-0.6,1.6-1.6-0.6-2.7,1c-0.2-0.4-0.2-0.7-0.1-1.1
			c-1.3,0.4-4.4-0.2-4.8,0.8c-0.7,0.2-1.3-1.2-2,0.2c-0.6-1-1.7-1.7-2-0.6c-4.2-1-8.1,0-12.5-0.9c-0.2,0.3-0.1,0.6-0.2,0.8
			c-0.3-0.6-0.5-0.4-1-1.1c-2.4,1.2-5.6-1.4-8.4,0.5c-0.2-0.4-0.1-0.7-0.3-1.1c-1.1,0.2-2.1,0.7-3.2,0.1c0,0.6,0.3,2.4-0.7,2.9
			c-0.3-0.9,0-1.3-0.6-1.7c-0.2-0.7,0.6-1.5,0.8-0.6c0.4-1-0.7-1.5-0.7-0.5c-1.4-1.7-2.9,0.5-4.3-1.2c-0.3,1.4-1.3,0.9-1.9-0.4
			c-0.2,0.3-0.1,0.6,0,0.8c-1.3-0.8-2.5-0.3-3.8-1.2c-0.1,0.3,0,0.7-0.1,1c-1.8-0.8-4.4,0.5-5.7-1.6c-0.1,0.2,0,0.4,0.1,0.6
			c-2-0.5-4.1,0.1-6.1-1.4c-1.5,0.8-3.8-0.2-5.6-0.5c-0.4,0.5,0.1,1-0.4,1.4c-0.2,0.1-0.3,0.2-0.5,0c0.5-2.3-1.4-1.2-2-1.9
			c-0.2,1.1,0.5,0.3,0.7,0.9c0.2,0.9-0.5,0.6-0.7,0.8c-0.7-2.8-2.2-1.2-3.3-2.4c-0.4,0.5,0.1,1-0.4,1.4c-0.2,0.2-0.3-0.3-0.4,0
			c-0.1-0.4,0.2-0.7,0.4-1c-0.3-0.6-0.7-0.6-1,0.1c0,0.4,0.4,0.9,0,1.3c0.2,0.4,0.5-0.3,0.7,0.5c-0.4,0.8-0.7-0.4-1.1,0.7
			c-0.3-1.3-0.7-0.7-1.1-0.9c-0.1-1.1,0.7,0.3,1-0.5c-0.7-1.5,0.3-0.5,0.6-1c-1.1-1.6-1,0.1-2-1c-0.2,0.4,0.3,0.9,0.2,1.3
			c-0.1,0.2-0.2-0.1-0.3-0.2c-0.2,0.5-0.1,0.8,0.2,0.9c-0.6,1.1-1.1,0.6-1.7,1.7c-0.3-0.5-0.5-0.5-0.4-1.3c-0.5,0-1,1.7-1.5,0.9
			c-0.3-0.4,0.4-0.8,0.5-1.2c-0.4-0.6-0.7,0.4-0.6,1c-0.4,0.6-0.7-0.9-1-0.3c-0.1-0.4,0.3-0.8-0.2-1.3c-0.5,1.6-2.3,1.8-2.3,0.2
			c-0.5,0.1-1-0.7-1.5,0.5c-0.6-1.7-1.5,0.2-1.8-1.4c-0.6,2.5-2.1-1.5-3,0.4c-0.9-0.6-1.9,0-2.8-0.9c-0.3-0.6,0.6,0,0-0.8
			c-1.5,1.9-3-1-4.5,0c0.2,0.4,0.4,0.2,0.5,0.7c0.1,0.3-0.2,0.6,0,0.8c-0.7-0.2-1.3-1.3-2-1.4c-0.1,0.5,0.2,0.4,0.3,0.7
			c0.2,0.8-0.5-0.2-0.7,0.8c0-0.6-0.1-0.8-0.4-0.9c-0.6,2.4-1.8-1-2.7,0.6c-0.4-0.6-0.4-1.2,0-1.7c-0.3-0.8-0.6,0-0.9-0.5
			c-0.1,0.3,0.2,0.7,0.3,1.1c-0.3,0.9-0.6,0.6-0.9,0.8c-0.2-0.4,0-0.8,0.2-1.2c-0.8,0.7-1.6,0-2.4,0c-0.1-0.4,0.3-0.8-0.2-1.3
			c-0.5,2.2-2.9,0.5-3.6,1.4c-0.2-1.1-1.1-0.8-0.4-1.7c-0.5-0.3-0.5,0.3-0.6,1c-0.5,0.1-0.6-2.1-1.2-1.1c0.2,0.7,0.4,0,0.7,0.5
			c-0.2,0.2-0.2,0.4-0.1,0.6c-1.1-0.2-2.2-1.5-3.4,0.2c0-1.2,0-1-0.4-2.1c-0.4,0.6,0.1,1.3,0.3,1.9c-0.6,1.7-1.2-1.1-1.8,0.3
			c-0.7-0.8,0.3-1.5-0.1-2.3c-0.4,0.7-0.2,1.5-0.4,2.3c-0.4,0.7-0.4-0.8-0.7-0.5c-0.1-0.4,0.2-0.7,0.4-1c-0.4-0.3-1,0.2-0.8,1
			c-0.8-1.5-0.8-0.2-1.3-1.8c-0.7,0.8-0.8,0.5-1.6-0.1c-0.1,0.6,0.3,1.1-0.2,1.7l0.5,1.1c0.4,0.1,0.2-1.1,0.7,0.1
			c0.2-0.3,0.1-0.6,0-0.8c0.7,0.1,2.9-0.2,2.4,1.9c0.2,0.5,0.5-0.6,0.7-0.8c0.4,0.9,0.1,1.6-0.4,1.9c0.2,0.3,1.4,0.2,0.9-0.8
			c0.5-0.3,1,0.7,1.5-0.5c0.2,0.5-0.5,0.9-0.4,1.4c0.4,0.9,1.5-0.7,1.2,1.1c0.3,0.5,0.4-0.6,0.2-0.8c0.4,0,0.8,0.1,1.2,0.7
			c0.1-0.3,0-0.7,0.1-1c0.3-0.3,0.5,0.2,0.8-0.1c0,0.3,0,0.7-0.1,1c1-0.8,2-0.6,2.9-0.2c0.3,0.6-0.3,0-0.5,0.8
			c0.3,0.6,0.7-0.3,1,0.7c0.7-1.1,0.7,1.9,1.4,0.8c-0.2-0.2-0.4-0.3-0.7-0.5c0.3-1.1,0.6,0.3,0.9-0.8c0.3,0.4,0,0.7-0.1,1
			c0.2,0.1,0.4-0.2,0.6,0.3c0.2-1.4,2.1-0.4,3,0c0,0.2,0,0.2,0,0.3c1.3-0.1,2.6,0,3.9,0.7c0.1,0.4-0.2,0.7-0.4,1
			c0.5,1.1,0.8-0.3,0.8-1c0.7-0.2,0,1.2,0.6,1.7c0.6-0.4-0.4-1-0.1-1.5c0.9,0.1,1.9-1.1,2.8,0.4c0.4-1.5,0.8-0.7,1.4-1.2
			c0.4,0.5,0.1,0.9,0.4,1.3c0.7-0.8,1.4-0.6,2.1-0.5c0.2,0.8-0.6,0.5-0.8,0.6c0.5,0.9,1.3,0.4,1.9-0.5c0.4,0.5-0.1,1,0.3,1.5
			c-0.3,0.7-0.8,0.1-0.8,1c1.4,0.2,2.4-0.3,3.6-1.4c0.6,0.7-0.4,1.2,0.1,1.9c1.2,0,2.4-0.2,3.6,1.1c0.6-1.3,1-0.1,1.3,0.1
			c0.2-0.4-0.1-0.9,0.3-1.2c0.8,1.5,2.9-0.7,3,1.3c1.4-0.1,3.3,1.3,4.4,0.2c0.7,1.2,1.4,0,2.1,1.7c0.5-1.2,1-0.1,1.5-1.3
			c0.4,0.5,0.1,0.9,0.4,1.3c2.6,0.3,5.3,0,7.8,1.5c0.1-0.4,0.3-0.8,0.1-1c2.1,0.9,4.2,1.6,6.3,0.9c0.5-0.5,1,1.1,1.6,1
			c0.1-0.3-0.1-0.6,0-0.8c0.7,0.5,1.5,1.1,2.5,0.2l0.6,1.3c2.3-0.9,4.6,0,6.9,0.8c0.1-0.2,0-0.4,0.1-0.6c4,1.2,8,0.6,11.9,1.5
			c0.6-1.3,3.3,0.1,5.1,0.2c0.9,0.1,1.7-0.7,2.4,0.4l0.5-0.8c0.4,1.6,1.5-0.5,2.2,1c1.9-1.3,4.6,0.7,6.9-0.4l0.4,0.9
			c2.9-1.3,5.8,0.7,8.7-0.7c1.2,1.4,2.6-0.6,3.8,0.8c0.8-1.2,1.5,0.4,2.3-0.6c2.1,1,4.2,0.7,6.3,0.2c4.6,0.7,9.3-0.6,14,0l0.5-0.8
			c0.2-0.2,0.2,0.4,0.1,0.6c2.5-0.6,4.3-0.4,6.8-1.1l0.4,0.9c0.5-0.1,0.2-1.5,0.9-0.8c0.1,0.4-0.2,0.2-0.4,0.6
			c0.3,0.3,0.8,0.1,0.8-0.6c18.3,0.5,36.2-3.3,54.4-4.4c0.1-0.2,0.2-0.4,0.4-0.6c2.5,0.7,5-1.4,7.5-0.1c0.4-0.3,0.8-1.7,0.9-0.3
			c0.4-0.6,1.4-1,2-0.2l0.5-0.8c0.9,0.1,1.7,0.4,2.6-0.4c4.1,1.1,8.4-1.6,12.5,0.6l0.5-0.8c0.7,1,1.9,0.7,2.3-0.2
			c0.2,0.4,0.1,0.7,0.3,1.1c0.3-1.6,0.7-0.6,1-0.1c1.1-1.3,2.4-0.9,3.9-0.9c0.2,0.4,0.2,0.7,0.1,1.1c0.3,0.2,0.4-1.5,1-0.5
			c0.1-0.2,0-0.4-0.1-0.6c0.3-0.4,0.7,0.4,1-0.5c0.2,0.3,0.1,0.6,0,0.8c0.4-0.5,1.2-1.2,1.8-1.1c0.3,1.1-0.4,0.5-0.7,1.2
			c1.4-1,2.8-1.4,4.1-2.1l0.5,1.1c-0.1,1,0.3-0.5-0.2-0.9c0.6-1,1.2-0.8,2.1-1.5c0.1,0.9,0.9,0.6,0.4,1.3c0.4,0.3,0.4-1.2,1.1,0.1
			c0.5-0.8-0.3-0.7-0.4-0.9c0.8-1.1,1.6,0,2.4-1.2c0.1,0.3-0.1,0.6-0.3,0.8c0.2,0.3,0.5-0.4,0.7,0.5c-0.2-1.2,0.4-0.5,0.8-1.4
			c1.9,1.7,4.2-2.7,5.9-0.3c0.4-1.9,1.6-1.5,2.3-1.9c0,1.3-1,0.3-1.4,1.1c0.2,0.4,0.4,0.2,0.5,0.7c-0.7,0.5-1.3,1.8-2,2.1
			c0.1-2.2-1.7-0.1-2,0.2c1.3,1.1,3.4,0.4,4.7-1.4c0.1,0.4-0.2,0.7-0.4,1c0.7-0.3,2.2-0.2,2.2-2.1c0.4-0.4,0.3,0.8,0.5,1.1
			c1.3-1.3,2.1-1.3,3.6-2.8c1.7,0.1,3.5,0.1,5.3-2c1,0.3,2.7-0.6,3.3-2c2.2,0.9,6-4.4,8.9-1.2c-0.7-2.7,1.7-1.5,1.6-3.9
			c0.6,0.2,1.3-2.2,1.8-0.7c2.4-2.3,4.8-2.4,7.1-0.4c0.3-0.7,0.7-1.3,0.5-2.1c0.4-0.2,0.7,0.1,1.1,1c0.4-1,0.7-0.5,1-0.5
			c0.2-1.2,0.5-1,0.7-2c-0.2-0.6-0.5,0.3-0.7-0.1c1.5-1.4,4-1.4,5.7,0.8c0.2-1.5,0.9-1.9,1.6-1.5c1.5-3.1,3.3-4.8,5.2-5.8l0.6,1.3
			c-0.2-1.4,1-1,1.5-1.8c0,0.3,0.1,0.6,0,0.8c1.6-0.6,3.2-0.8,4.5-2.7c1.7-0.4,4-1,5.4-3.5c1.2,0.2,3.3-2.2,4.3-3.2
			c1.6-1.6,3-2.9,4.2-5.1c-0.4,0-0.4-0.8-0.6-1.3c0.3-0.6,0.6-0.1,0.9-0.8c-0.5-0.4-0.8,0.4-1.1-0.5c-0.6,1.4-1.5-0.6-1.7,0.9
			c-0.3,0.4-0.5-0.9-0.8-1.1c-0.7,0.3-1.4,0.4-2.2,0.4c0.7-1,1-1.1,1.9-2.8c-2.7,0.5-6.4,0.8-9.5,3.5c-0.3,0.2-0.6-0.1-0.9-0.5
			c0,0.3,0,0.7,0.1,1.1c-0.3,0-0.7,0.3-1,0.5c-0.5-1.9-1.8,1.1-2.5,2.5c-0.3-0.7,0.2-1.4,0.5-2.1c-0.3,0.2-0.8-0.4-0.8-1.1
			c0.6-0.9,0.7-0.1,1.1-1.4c-0.2-0.6-0.6,1.3-0.8,0.1c-0.4,0.4-0.2,0.8-0.5,1.2c-0.2,0.1-0.3,0.2-0.5,0c0-0.7,0.5-1.4,0.5-2.1
			c0.1-0.1,0.2,0,0.3-0.2c-0.3,1.3,0.7,0.3,1.1,0.1c0.2,0.4,0.1,0.7,0.3,1.1c1-0.6,1.2-2.8,2.1-3.2c0.1,0.8-0.8,1.5-1.1,2.2
			c0.4,0.1,1.3-0.4,1.1-1.4c1.1,0.8,2.2-1,3.3-2c-0.7-0.7-1.4,0.9-2.1,1.5c0.4-2,1.8-2.6,2.5-1.4c0.9-1.1,1.8-2,2.6-1.2
			c2.8-2.8,5.4-1.8,8.2-4.1c-0.6-1-1.2-0.3-1.8-1.9c-0.7,0.4-1.3,0.3-1.9-0.8c-0.2,0.3-0.1,0.6-0.3,0.8c-0.4-1.4-1-0.1-1.4-0.8
			c-0.2-0.5,0.1-1,0.4-1.4c-0.6-0.9-1.2,0.1-1.8-0.2c-0.4-0.5,0.2-1-0.1-1.5c-0.9-0.7-1.4,0.9-2.4,1.2c-0.3-1.2,0.9-2,1.3-2.6
			c-0.2,0-0.4-0.3-0.5-0.7c-0.1,0.2,0,0.4,0.1,0.6c-0.5,0.5-0.7-0.4-0.9,0.8c-0.2-0.4-0.1-0.7-0.3-1.1c-0.8,0.7-1.5,0.4-2.3,0.2
			c-0.3,0.5-0.3,1.1-0.1,1.7c-0.2,0.5-0.5,0.7-0.7,0.8c-0.2-0.9-0.3-1.7-0.4-2.6c0.9-0.2,2.3-1.8,2.6-3.5c1.4-0.4,2.8-1,4.2-0.2
			c-0.3-1.7,0.7-1.1,1.3-0.9c0.1,0.9-0.6-0.1-0.8,0.6c0.6,1,1.2-0.8,1.8-1.1c0.4,0.6-0.3,1,0.3,1.1c0.2-1.4,1.7-1.4,2.5-1
			c0.7-1.3,1.5-0.7,2.4-1.2c0.1-1.4-0.8-0.3-1.1-0.5c0.8-0.8,2.7-2.3,4.1-0.9c1-1.7,4.2,0.1,4.5-3.6c0.8,0.5,1.2-1.3,1.8-0.7
			c0,0.7-0.5,0.5-0.4,1.4c1.8-1.4,3.7-3.5,3.8-6.4C374.4,15.4,373.6,14.7,373.8,13.7z M48.4,3.5c-0.5-0.3-0.4,0.3-1.1-0.1
			c0.2-0.7,0.4-1.2,0.7-1.2c-0.2,0.9,0.5,0.4,0.3-0.2C48.6,2.5,48.4,3,48.4,3.5z M54.8,4.7c0.4,0.1,1.4-0.3,1.5,0.8
			C55.8,5.4,55.3,5.4,54.8,4.7z M58,6.6c-0.2-0.3-1-0.5-0.9-1.3C57.3,4.9,58.1,5.9,58,6.6z M64.8,9.9c0.4-0.7,0.9-1.8,1.3-0.9
			C65.7,9.7,65.3,10.2,64.8,9.9z M66.9,8c-0.2-1.1-0.4-0.6-0.9-1.3c0.8-0.1,1.4-2.4,1.8-0.7C67.2,6.2,67.3,7.1,66.9,8z M68.1,5.6
			c0.5,0.6,0.2,1.1,0.6,1.7c-0.3,0.5-0.6,0.3-0.9,0.3C68.1,7,67.8,6.2,68.1,5.6z M68.1,10.4C68.3,10,69,10,68.8,9.2
			c-0.2-0.9-1,0.2-0.9-0.9c0.4,0,0.8-0.2,1.2,0.7C69,9.3,69,9.7,69.3,10.1C68.9,10.6,68.5,10.7,68.1,10.4z M68.9,7.5
			c0.3-1.1,1.1,0.4,1,0.7C69.5,8.3,69.2,8.1,68.9,7.5z M73.9,10.7c-0.5-0.2-0.5-1.5-1.1-0.5c-0.1,0.7,0.7,0.6,0.3,1.5
			c-0.4,0-0.7-0.4-0.9-1.3c0.6-1.1,1.8-1.6,2-0.2C74,9.8,74.1,10.4,73.9,10.7z M77.3,6.5c-0.6,0.3-1.1-0.2-1.7-0.4
			C76.2,5.8,76.7,5.6,77.3,6.5z M75.7,11.3c-0.2-0.1-0.4-0.3-0.7-0.9c0.3-0.5,0.6-0.5,0.9,0.1C75.8,10.7,75.8,11,75.7,11.3z
			 M76.6,12.6c0.3-0.7,0.6,0.3,0.9,0.5C77.2,14.2,76.9,13.2,76.6,12.6z M80,14.2c0-0.2,0.3-1.5,0.6-1C80.5,13.7,80.4,14.8,80,14.2z
			 M78.8,10.1c0.2-0.9,0.8-0.5,1.1-1.8c0.6,0.5-0.5,0.9-0.1,1.5c0.3,0.5,0.6-0.8,0.9,0.1C80,10.7,79.4,10.2,78.8,10.1z M82.6,12.9
			c-0.5-0.8-0.3-2.2,0.2-2.3C83,11.4,83,12.2,82.6,12.9z M84.4,17.1c-0.1-0.3-0.3,0-0.4-0.5c0.2-0.3,0.4-0.7,0.6-1
			C84.9,16.1,84.6,16.6,84.4,17.1z M84.2,12.2c-0.2-1.3-0.6-0.3-1-1.1c0.5-0.7,1,0.3,1.5-0.5c0.2,0.4,0.4,0.6,0.6,0.7
			C84.7,11.7,84.6,10.8,84.2,12.2z M86.9,14.1c-0.2-0.2-0.4-0.1-0.6-0.7c0.5-0.3,0.3-1,0.8-0.6C86.9,13.3,87.3,13.7,86.9,14.1z
			 M87.8,12.9c-0.7-1.5-2,0.3-2.4-1.3C86.1,11.8,88,10.7,87.8,12.9z M91,13.6c0.1-0.3,0-0.7,0.1-1c0.2,0.8,0.5-0.1,0.8,0.7
			C91.6,13.7,91.3,13.9,91,13.6z M95.9,15.3l0.7-1.2c0.3,1.2,0.7-0.3,1,0.7C97.1,15.5,96.5,15.4,95.9,15.3z M25.7,13.8
			c0.1-0.3,0.1-0.7,0.4-1c0.2,0.5,0.4,0.3,0.6,0.7C26.3,14,26,14.5,25.7,13.8z M28.7,14.4c-0.2-1.5-0.5,0.1-0.9-0.5
			C27.7,12.5,29.4,13.3,28.7,14.4z M31.6,16.7c-0.4-0.6,0.1-1.5-0.5-1.5c0.8-1.4,0.9,1.2,1.6,1.4C32.3,17.5,32,15.6,31.6,16.7z
			 M35.4,20.4c0-1.1-0.4-0.4-0.7,0.4c-0.4-1.2,0.8-2.6,1.3-1.8C36,19.8,35.7,20.3,35.4,20.4z M29.8,25.2c0.2,1.2,0.4,0.3,0.8,0.7
			c-0.2,0.3,0.2,0.7,0.1,1.1c-0.6-0.2-0.4-0.9-0.9-0.1l-0.3-0.7C29.5,25.9,29.5,25.6,29.8,25.2z M28.3,24.9c0.3,0.2,1-0.3,0.7,0.9
			C28.8,25.2,28.1,26,28.3,24.9z M28.9,29.6c0.8,0.2,1.5-0.4,2.3,0.2C30.5,30.8,29.2,30.4,28.9,29.6z M30.8,28.1
			c0.4-1,0.8-0.7,1.1,0.1C31.5,28.2,31.1,29,30.8,28.1z M35,28.6c-0.1-0.2-0.2-0.4-0.3-0.7c0.3-0.8,0.5-0.3,0.8-0.2
			C35.3,28,35.1,28.3,35,28.6z M51.4,15.4c0.2,0,0.7,0.9,0.3,1.5C51.5,16.3,51.2,15.8,51.4,15.4z M48,11.1c-0.2,0.4,0.3,0.9,0,1.3
			C47.4,12.6,47.5,10.7,48,11.1z M46.7,26.4c-0.2,1-0.4,1.6-1,1C46.4,27.4,45.9,26.1,46.7,26.4z M45.8,16.8c0.6,0,0,0.9,0.5,1.5
			l-0.6,1c-0.1-0.5-0.8-0.3-0.5-1.1c0.3-0.2,0.5,0.3,0.8,0.3C46.2,18,45.3,17.3,45.8,16.8z M38.4,21.5c-0.1-0.3-0.3-0.6-0.2-0.9
			c0.2,0.3,0.3-1,0.7,0L38.4,21.5z M40.4,20.8c-0.4-0.7-1.5,0.7-1.6-1l0.2,0.4c0.2-0.6,0.1-1.3,0.1-1.9c0.2,0.4,0.5-0.3,0.7,0.5
			C39,20.3,40.7,19.6,40.4,20.8z M41,21c0.1-0.3,0-0.6-0.2-0.9c0.6-0.5,1.1,0.9,1.7,0.3C42,21.4,41.7,21.2,41,21z M42.4,18.6
			c0.3,0.3,0.5,0.1,0.8,0.7C42.9,20.1,42.1,19.5,42.4,18.6z M38.1,29.7c0.3,0,0.7-1.4,1-0.6C38.8,29.7,38.4,30.6,38.1,29.7z
			 M39.9,29.8c-0.1-0.2-0.2-0.4-0.3-0.7l0.4-0.6c0.2-0.4-0.3-0.9,0-1.3c0.2,1,0.5-0.5,0.7,0.5C40.3,28.4,40.4,29.1,39.9,29.8z
			 M42.6,27.7c-0.3-0.2-0.7-0.8-1-1.1c0.5-0.1,1-0.7,1.5-0.9c-0.2,0.3-0.2,0.7,0.1,1.1L42.6,27.7z M43.3,22.1
			c-0.3-0.5-0.7-0.1-1-0.7C42.5,20.6,43.4,21.1,43.3,22.1z M43,17.2c0.2,0.4,0.2,0.7,0.1,1.1c-0.7-0.1-0.9-0.4-0.5-1.1
			C42,17.4,40.4,18,40,15.9c0.5,0.6,0.4-0.2,0.9,0.1c-0.1-0.5,0.2-1,0.4-1.4c0.3-0.2,0.6-0.1,0.9,0.1c0.1,0.6-0.1,1.3-0.1,1.9
			c0.6-1.5,1.1-1,1.6-1.1c0.5,1.5,0.9,1.3,1.7,2C44.9,18.5,43.7,17.5,43,17.2z M45,19.9c-0.3,0.6-0.5,0.4-0.8-0.3l0.5-0.8
			C44.9,19.2,44.8,19.5,45,19.9z M45.1,28.8c-0.2-1.5-0.7-0.1-1.2-0.7C44.1,26.1,45.4,27.2,45.1,28.8z M44.6,21.8
			c0-0.6,0.4-1.3,0.7-1.2c0.5,0.5-0.3,0.8,0.2,1.3C45.2,22.3,44.9,22.3,44.6,21.8z M46.8,30.6c-0.3,0.5-0.5,1-0.8,0.6
			c0.1-0.3,0.2-0.5,0-0.8c-0.4,0.4-0.1,0.8-0.5,1.2c-0.5-0.8,0.3-1.5,0.4-2.3c0.4,0.2,0.1,1.3,0.4,0.9c0.2-0.5-0.1-1,0.1-1.5
			c0.1,0.3,0.3,0.6,0.4,0.9C46.8,29.9,46.6,30.2,46.8,30.6z M46.6,21.7c0.2-0.3-0.1-0.6,0-0.8c0.6,0.9,1.2-0.2,1.8,0.6
			C47.8,21.2,47.1,22.7,46.6,21.7z M47.6,34.7c0.5-0.6,1-0.3,1.5,0.3C48.5,35.8,48,35.7,47.6,34.7z M50,26.4
			c-0.2-0.8-0.5,0.1-0.8-0.7l0.5-0.8C49.8,25.4,50.1,25.9,50,26.4z M50.4,16.3c-0.5,1.2-0.9-0.3-1.4,0.3c-0.3-1-0.5-1.3-1.1-1.4
			c-0.2,0.3,0.2,0.7,0.1,1.1c-1-1.2-0.4-2.1,0.1-3.8c0.2,0.4,0.1,0.7,0.1,1.1c0.2-0.3,0.4,0.5,0.6,0.3c-0.2-0.4-0.3-0.7-0.3-1.1
			c0.4-0.6,0.7,0.1,0.6-1c0.3,0,0.5-0.2,0.8,0.7c-0.2,0.4-0.5,0.2-0.4,0.6c0.4,0,0.8,0.2,1.1,0.5c-0.5,0.7,0,0.2,0.2,0.9
			c-0.3,0.8-0.5-0.4-0.8,0.1c0.4,1.2,0.7,0.8,1.1,1.4c0.1,0.4,0.5,1.8-0.1,1.5C51.2,16.7,50.5,17.1,50.4,16.3z M51,26.7
			c0.4-1,0.8-0.3,1.2-0.1C51.8,26.7,51.4,27.1,51,26.7z M53.3,36.2c0.4-0.9,0.7,0.3,1.1-0.7c0.2,0.4,0.3,0.7,0.3,1.1
			C54.3,36.7,53.8,37.2,53.3,36.2z M54.3,30.4c0.4-0.8,1.3,0,1.2,0.7C55.2,30.8,54.7,31.2,54.3,30.4z M55,25.6
			c-0.1-0.3-0.3,0-0.4-0.5c-0.1-0.9,0.9-1.8,1.4-1.2L55,25.6z M55.1,22.2c-0.9,1.2-0.7,3.6-1.6,2.8c0.7-0.7,1.5-3.2,0.4-4
			c0-0.8,0.4-0.5,0.7-0.8c0.2,1.3,0.8,0.4,1.3,1c-0.5,1.2,0.5,0,0.7,1.3C56,22.9,55.6,22,55.1,22.2z M61.9,37.7
			c0.3-0.8,0.5-0.2,0.8-1C63.3,37.8,62.2,38.3,61.9,37.7z M64,19.1c0.5,1.1,1.1-0.4,1.7,0.8C65.6,20.8,63.6,20.4,64,19.1z
			 M67.1,21.5c-0.2-0.6-0.5-0.1-0.7-0.9c0.5-0.7,0.4-0.5,0.8-1.4c0.4,1.1,0.7,0.7,1.1,1.4C67.9,21.3,67.5,20.1,67.1,21.5z
			 M68.9,37.5c0.3-0.6,0.5-0.4,0.8,0.3C69.4,38.3,69.2,38.1,68.9,37.5z M71,21c0.4-0.6,0.8-0.2,1.2-0.1C71.8,21.5,71.4,21.8,71,21z
			 M71.8,39.8c0.2-0.6-0.3-0.1-0.2-0.9c0.5-0.8,1.6-0.4,1.7,0.8C72.8,38.5,72.3,39.8,71.8,39.8z M76.5,22.1
			c-0.3-0.5-0.6,0.3-0.9-0.5C75.9,20.9,76.6,21.5,76.5,22.1z M75.3,20.5c0.5,0.4,0.3,1.8-0.1,1.5C75.5,21.5,74.8,21,75.3,20.5z
			 M74.7,28.9c0.3-0.6,0.5-0.4,0.8,0.3C75.2,29.8,74.9,29.5,74.7,28.9z M74.9,26c-0.1,0.3-0.1,0.8-0.3,0.2c0-0.4,0.2-0.8,0.5-1.2
			c0.6,0.9,1.2-0.2,1.8,0.2C76.5,26.6,75.8,25.9,74.9,26z M78.8,27.6c-0.2-0.8-0.3-1.2-0.8-0.3c-0.2-0.4-0.3-0.7-0.3-1.1
			c0.3-0.7,0.6-0.5,0.9-0.8c0.3,0.9,0.6,0.7,0.9,0.9C79,26.7,79.2,26.8,78.8,27.6z M81,23.7c0.2,0.1,0.4,0.3,0.7,0.9
			C81.3,25.6,80.7,24.4,81,23.7z M89.2,24.7c-0.6,0.9-0.4-0.2-0.9-0.9C88.7,22.8,89.3,24,89.2,24.7z M85.8,23.7
			c-0.1-0.2-0.5-0.1-0.3-0.7c0.7-0.4,1,0.4,1.4,1.2c-0.1,0.3-0.1,0.7-0.4,1c-0.4-0.5-0.2-1-0.3-1.5c-0.6,0.8-0.9,0.9-1,2
			c-0.4,0-0.3-0.7-0.4-1.3C85.2,23.8,85.4,24,85.8,23.7z M84.8,25.3c-0.3,0.8-0.6,0.2-0.9,0.3C83.9,24.7,84.5,24.6,84.8,25.3z
			 M82.2,24.9c0.4-0.6,0.7-0.8,1-0.5C82.9,24.4,82.5,25.7,82.2,24.9z M82.8,41.4c0.6-0.9,1.1-0.7,1.7-0.5
			C83.9,41.8,83.3,41.6,82.8,41.4z M85.6,29.2c-0.2-0.4-0.3-0.7-0.3-1.1c-0.4,1.2-1.4,0.5-1.3-0.5c0.4,0.9,0.9-0.8,1.3,0.5
			c0.4-0.8,0.8-0.7,1.1,0.1C86,29.2,85.9,28,85.6,29.2z M85.6,26.5c0.1-2,1.5-1,2.3-0.2C87.1,27,86.3,26.8,85.6,26.5z M88.3,27.1
			c-0.1-0.3-0.3-0.6-0.2-0.9c0.2,0.6,0.6-1.3,0.8-0.1L88.3,27.1z M88.7,28.8c0.8-1.2,1.5,0.8,1.2,2C89.6,30,89.6,29.6,88.7,28.8z
			 M89.7,44.5c-0.3-0.4-0.4-0.9-0.2-1.3c0.5,0.3,1-0.9,1.5,0.3C90.5,44.4,90.1,44,89.7,44.5z M111.9,50.3c0.5,0.6-0.2,1.9-0.5,1.2
			C111.8,51.1,111.5,50.7,111.9,50.3z M44.4,47c-0.2-0.6,0.5-1.3,0.7-0.8C45.1,46.6,44.7,48,44.4,47z M16.7,60.7
			c-0.3-1.4-0.7,0.7-1-0.7c0.4-1.1,1.3-0.6,1.3,0.1C16.9,59.8,17,60.4,16.7,60.7z M32,66.5c0.5-1.1,0.8,0,0.9,0.1
			C32.6,66.6,32.3,67.3,32,66.5z M45.4,60.4c0.3-0.6,1.2-1,1.1,0.1C46.2,60.4,45.8,61.1,45.4,60.4z M47.2,74.5
			c0.4-0.8,0.8-0.3,1.1,0.1C48.3,75.4,47.5,75.3,47.2,74.5z M56.2,48.7c-0.3-0.2-1.3,0.1-1.2-0.7C55.4,47.9,56.3,47.6,56.2,48.7z
			 M46.1,47l0.4,0.9c-0.2,0.5-0.5,0.7-0.7,0.4C46.4,47.8,45.6,47.4,46.1,47z M45.8,52c-0.2-1,0.7-0.9,0.3-1.7
			c0.2-0.3,0.5-0.5,0.7-0.4C46.2,50.6,46.5,52.7,45.8,52z M49.8,53.2c-0.4-1.7-0.4,0.2-0.7-1.3c-0.6,0.3-1.8,1.1-1.9,0.1
			c0.1,0.1,0.7,0,0.5-0.4c-0.4,0.2-0.8,0.1-1.1-0.5c0.3-0.7,0.6-0.2,0.9,0.5c0.4-0.6,1-0.2,1-1.4c0.7,1,1.6-1,2,1
			c0.1-1.3,0.9-1.2,1.3-0.5C50.7,50.8,50.9,52.3,49.8,53.2z M50.2,74.1c0.4,0.6,0.9-0.2,1.3,1C51.2,75.6,50.2,75.1,50.2,74.1z
			 M54.8,54.4c-0.3-0.1-0.4-0.3-0.4-0.9c-0.8,1-1.6-0.6-2.4,0.4c-0.4-0.5,0.1-1.9-0.6-0.7C51,52.7,51,51,51.7,51.7
			c-0.1,0.3-0.2,0.5,0,0.8c0.1-2.4,1.4-1.5,2.2-2.1l0.5,1.1c0.5-0.1,0.9-1.3,1.4-0.3c-0.2,1.3-1.3,1.5-1.8,1.1
			c0.1,0.3-0.1,0.4-0.2,0.4c0.4,0.1,0.7,1,1.1,0.9c0.6-1.2,1.2-2,1.7-0.9c-0.9-0.1-0.7,0.9-1,1.4C55.5,53,55,53.6,54.8,54.4z
			 M55.9,76.9c0.4-0.8,0.8,0.1,1.2,0.3C56.7,77.8,56.3,77.4,55.9,76.9z M57.9,52.8c-0.3-0.9-0.6-0.9-0.9-0.1
			c-0.1-0.2-0.2-0.4-0.3-0.7c0.6-0.7,1.1-0.2,1.7-0.1L57.9,52.8z M60.2,53.2c-0.4,0.6-0.8,0.4-1.1-0.5
			C59.5,52.2,59.8,52.9,60.2,53.2z M59.4,77c0-0.9,0.7-1,1-0.5C60.4,77.5,59.8,77.2,59.4,77z M62.6,53.6c-0.4-0.8-0.9-0.4-1.4-0.1
			c0.2,0.7,0.2,1.4-0.3,2.1c-0.3-0.3-0.7-0.4-1-1.1c0.4-0.7,0.7-0.1,1-1c-0.2-0.9-1-0.5-1.1-1.4c0.2,0.2,0.4,0.2,0.6-0.2
			c0.2,0.4,0.4,0.7,0.5,1.1c0.8-0.9,1,0,1.8-0.7C62.6,52.8,63,53.2,62.6,53.6z M64.1,53.5c-0.5-0.5-0.4,0.8-1,0.1
			C63.3,52.8,64.2,52.4,64.1,53.5z M66.4,78c0.3,0.2,0.7-0.5,1,0.3C67.1,79.7,65.9,77.7,66.4,78z M66.5,53.7c0.5-0.1,1,0.3,1.6,0.6
			C67.6,55.1,66.3,55.3,66.5,53.7z M68.2,54.5c0.3-0.4,0.7-0.4,1-0.5C69,54.8,68.7,55,68.2,54.5z M69.5,49.1c0.3-0.7,1.2-1,1.1,0.1
			C70.2,48.5,69.8,49.9,69.5,49.1z M70.5,55.5c-0.2-0.4-0.5,0.3-0.7-0.5c0.1-0.2,0.2-0.4,0.4-0.6C70.4,55,70.7,54.8,70.5,55.5z
			 M70.3,53.8c0.2-0.3,0.4-0.8,0.6-0.6c-0.1,0.1-0.1,0.3,0,0.4c0.2-0.4,0.4-0.3,0.6-0.2C71,54.1,70.6,54.3,70.3,53.8z M71.2,79.9
			c0.2-1.4,1.2-0.4,1.8,0.2C72.4,80.5,71.8,79.5,71.2,79.9z M75.7,49.9c0.8-0.6,1.6-0.4,2.4,0.4C77,50.3,76.5,50.2,75.7,49.9z
			 M78.9,57.7c0.3-0.5,0.1-0.8,0.5-0.8C79.9,57.6,79.2,58.7,78.9,57.7z M83.1,51.8c-0.3-0.2-0.4-1.3-1-1.1c0.3-1,0.6,0,0.9-0.8
			C83.4,50.5,83.6,51.2,83.1,51.8z M91.4,51c0.5-0.5,0.9-0.4,1.4,0.1C92.2,51.6,91.8,51.6,91.4,51z M94.2,59.9L94,59.5
			c-0.1,0.1-0.2,0.2-0.2,0c0.2-1,0.8-1.6,1.3-0.9C94.7,59.4,94.2,59,94.2,59.9z M121.6,29.4c-0.3,0.2-1.1,0.6-0.8-0.7
			C121,29.7,121.8,28.2,121.6,29.4z M121.6,13.8c0,0.4-0.2,0.8-0.5,1.2c-0.3-1-0.6-0.1-0.9-0.9c0.1-0.1,0.2-0.3,0.2-0.4
			C120.8,14.6,121,13.5,121.6,13.8z M118.9,10.6c0.6,0.3,1.2-0.6,1.8,0.6c-0.6,0.2-0.4,1.5-0.9,1.6c-0.6-0.5,0.1-1.9-0.4-1.7
			c-0.2,0.5,0.1,1-0.4,1.4C118.7,11.9,118.9,11.2,118.9,10.6z M120,13.7c-0.4,0.8-0.8,0.7-1.1,0.3C119.2,13.8,119.6,13.1,120,13.7z
			 M119.7,27.1c-0.4,0.4-0.7,0.6-1,0.5c0.2-0.3-0.9-0.2-0.4-1.3C118.7,26.8,119.2,26.8,119.7,27.1z M118.7,20.7
			c-0.5,0.3-0.9,0.1-1.4,0.3C117.4,20.4,118.7,19.7,118.7,20.7z M117.9,12.8c-0.2,0.3,0.2,0.7,0.1,1.1c-0.3-0.5-0.6,0.3-0.9-0.5
			C117.3,12.9,117.6,12.4,117.9,12.8z M115.3,12.4c0.6,0.6,1.1,0.2,1.7,0.8c-0.7,0.4-1.4-0.2-2-0.2L115.3,12.4z M114.7,12.6
			c-0.2,0.3-0.2,0.5-0.2,0.8c-0.3-0.4-1.1-0.3-1-1.1C113.9,12.9,114.3,11.6,114.7,12.6z M114.2,15c0,0.6-0.5,1.6-0.8,1
			C113.6,15.8,113.9,14.6,114.2,15z M110.2,11.3c0.6,0.9,1-1.1,1.4-1.1c0.5,1.1-0.2,0.9-0.5,2.1c-0.2-0.9-0.5,0.1-0.7,0.4
			C110.1,12.1,110,11.7,110.2,11.3z M107.8,24.2c0.3,0.3,0.7-0.3,1,0.3C108.6,24.6,107.7,25.3,107.8,24.2z M106.9,17.8
			c-0.3,0.6-0.5,0.8-0.8,0.1C106.3,17.3,106.6,17.1,106.9,17.8z M104.8,23.7c0.3,0.4,0.7-0.1,1,0.3
			C105.5,24.6,104.7,24.8,104.8,23.7z M103.7,23.2c-0.2-0.3-0.5,0.4-0.7-0.5C103.2,21.6,103.9,22.7,103.7,23.2z M98.1,15.7
			c0.4-0.3,0.8-1.4,1.2-0.7C98.8,15.6,98.4,16.5,98.1,15.7z M99.2,15.4c0.6-0.2,1.1,0,1.7,0.4C100.4,16.1,99.4,16.6,99.2,15.4z
			 M101.1,22.7l-0.5,0.8l-0.3-0.7C100.6,22,100.8,22.6,101.1,22.7z M100.5,24.6c-0.1,0.6,0.2,1.1,0.2,1.7c-0.3,0.6-0.5,0.1-0.8-0.3
			C100.2,25.7,100.2,24.2,100.5,24.6z M99.7,26.6c0.3,0.9,1.3-0.2,1.2,0.7C100.6,27.4,99.4,28.3,99.7,26.6z M100.7,25.9
			c0-0.5-0.1-1,0.4-1.4C101.6,25.1,101.1,26.5,100.7,25.9z M101,16c0.3-0.7,0.6-0.5,0.9-0.3C101.9,16.3,101.3,16.7,101,16z
			 M102.8,25.9c-0.4-0.6-0.1-1.1,0.3-1.7c0.5,1.2,1.1,0.3,1.6,1c-0.3,0.8,0.1,1.6-0.6,1.8c-0.5-0.6-0.1-1.1-0.2-1.7
			C103.5,25.5,103.2,25.2,102.8,25.9z M103,27.1c0.6-1,0.5,0.7,1.1,0.9C103.7,28.4,103,28,103,27.1z M104,29.1
			c0.3,0.5,0.4-0.6,0.5-0.8l0.4,0.9C104.6,29.9,103.8,30.1,104,29.1z M106.8,33.6l-0.3-0.7c0.3-0.6,0.5-0.8,0.8-0.1L106.8,33.6z
			 M110.8,28c0.2-0.2,0.4-0.1,0.6,0.3c-0.8,1-1.2-1.7-1.6-2l-0.6,1c-0.8-1.3-1.7-1.2-2.6-0.9c-0.1,1-0.5,1.8-0.7,2
			c0-1.6-0.4,0.5-0.9-0.5c0.7-1.1,1.3-1.7,1.8-3c0.7,1.9,2,0,2.9-0.2c-0.1,0.4-0.7,0.8-0.5,1.2c0.4-0.6,0.8-0.3,1.3-0.9
			c-0.1-0.2-0.5-0.1-0.3-0.7c0.4,0.7,1.4-0.6,1.5,0.8c-0.5-0.6-1.4,0.9-1,2c0.1-1.5,1.6-0.5,1.6,0.1C111.8,27.2,110.6,26.5,110.8,28
			z M111.3,26c0-0.5,0.5-1,0.8-1c-0.2,0.7,0.5,0.2,0.7,0.9C112.3,26.6,111.8,26.2,111.3,26z M113.1,12.8c-0.3-0.3-1.3,0.1-1.2-1.2
			c0.5-0.6,1-1.7,1.7-0.9c-0.3,0.8-0.5,0.2-0.8,1C113.1,12.3,113.4,12.1,113.1,12.8z M113.4,28.5c0.2-0.4-0.3-0.9,0-1.3
			c0.3,0.1,0.6,0,0.9,0.1C113.9,28,113.9,28.8,113.4,28.5z M113.2,25.9c0.6-0.6,0.9,0.3,1.3-0.5c0.1,0.4,0.4,0.7,0.3,1.1
			C114.3,26.1,113.7,27.2,113.2,25.9z M115.8,29.3c0.2,0.4,0.4,0.6,0.6,0.7c-0.1,0.1-0.2,0.3-0.2,0.4c0.1,0.1,0.1,0.3,0,0.4
			c-0.6-1-0.2,0.9-0.5,1.2c-0.3-0.3-0.5,0.2-0.8-0.7C115.3,30.7,115.4,30,115.8,29.3z M118.2,50.6c0.3,0.5,0.6,0.3,0.3,1.1
			c-0.5,0-0.3-0.9-0.8-1.5c-0.5,1-1-0.6-1.5,0.5c0.3,0.2,0.6,0,0.9,0.9c-0.2,0.6-0.5,0-0.7,0.8c-0.4-0.3,0.1-1.6-0.4-1.3
			c-0.3,0.5,0.3,1-0.1,1.5c-0.2,0.1-0.4-0.1-0.7-0.5c0-0.6,0.5-1.2,0.4-1.9c-0.3,0.1-0.5-0.4-0.8-0.7c1.6-0.1,3.2-0.2,4.7,0.8
			C119,51.8,118.6,49.5,118.2,50.6z M119.5,29.9c-0.8-0.3-0.8-0.9-1.1,0.3c-0.4,0-0.5-0.8-0.4-1.3c-0.8,0.9-2.2,0.4-2.6-1.3
			c0.9,1,2.1,0.6,2.7-0.2c-0.2,0.6,0,1.1,0.2,1.7c0.1-0.9,0.1-1,0.6-1c0.2,0.4,0.1,0.7,0.1,1.1c0.3-1.1,0.3-0.3,0.7-0.4
			c-0.3-0.9,0.4-1,0.7-0.4C120.3,29.2,119.8,28.9,119.5,29.9z M120.2,52.5c-0.6-0.6,0.3-2.1,0.6-1.4C120.6,52,120.1,51.2,120.2,52.5
			z M121.1,52.6l-0.3-0.7c0.4-0.7,0.9-1.6,1.3-0.9C122,51.9,121.4,51.6,121.1,52.6z M123,30.8c-0.1-1.8-0.5-0.5-1.1-1.4
			c0.4-0.8,0.8-0.8,0.6-2.3c0.7,2.4,2.1,0.6,3.1,1.5c-0.7,0.6-1.8,0.5-2.7,0.6C123,29.8,123.3,30.3,123,30.8z M127.7,30
			c-0.2,0.3-0.3,0.7-0.4,1c-0.1-0.1-0.1-0.3-0.2-0.4c0.2-1-0.1-1.4-0.6-1.7C127.2,27.9,127.3,28.9,127.7,30z M126.3,31.5
			c0.6,1,1.2,0.2,1.8,1c-0.7,0.9-1.9,0.3-2.1-0.4C126.2,32.4,126.3,31.8,126.3,31.5z M125.8,34.9c0.4,0.6,1.5-0.5,1.6,1
			C126.9,35.7,125.9,36,125.8,34.9z M127.2,52.7c0.4-0.8,0.6-1.5-0.1-1.9c0.4-0.4,0.8-0.2,1.1,0.5C127.8,52.1,127.8,53.7,127.2,52.7
			z M128.5,29.4c0.6,1,1.2-0.9,1.8,0.2C129.8,29.5,128.3,31.4,128.5,29.4z M132.8,15.4c0.3,0.6,0.6-0.6,0.9,0.5
			C133.4,16.6,132.6,16.3,132.8,15.4z M132.7,33.6c0-0.6,0.6-1.1,0.9-0.3C133.3,33.6,133,33.9,132.7,33.6z M131.5,29.7
			c0.7,1.1,2,0,2.3,1.3C133.1,30.4,131.4,31.9,131.5,29.7z M132.7,17.1c0.4-0.2,0.8-0.9,1.1-0.3C133.4,17.9,133.1,17.2,132.7,17.1z
			 M137.2,32.5c0.6,1.2,0.8-1.5,1.5-0.5c-0.6,0.7-0.3,0.5-0.6,1.4C137.7,33.5,136.8,33.7,137.2,32.5z M133.9,17.4
			c0.9-0.9,0.3-4.5,1.3-3.5c-0.1,0.3-0.5,1-0.4,1.9c0.3-0.4,0.5,0.1,0.8,0.7C135.1,17.1,134.5,18.3,133.9,17.4z M135.5,19.7
			c-0.3,0.6-0.5,0.8-0.8,0.1c0.4-0.3,0-1.8,0.6-1.4C135.1,18.8,135.6,19.3,135.5,19.7z M134.4,53.4c0.7-0.8,0.7-0.9,0.7-2
			c0.2,0.7,0.4,0.7,0.7,0.1C136.2,52.7,135,54.1,134.4,53.4z M136.1,17.4c0.3-0.6,0.5-0.8,0.8-0.1C136.6,17.9,136.3,18.1,136.1,17.4
			z M136.7,36.9c0-0.7,0.6-0.8,0.9-0.3C137.3,37.3,137,37.1,136.7,36.9z M136.4,34.6c0.3-0.4,0.1-0.8,0.5-1.2
			c0.6,1.8,1.3,0.4,1.9,1.2C138.4,35.8,137.2,34.6,136.4,34.6z M140,33.8c0-0.8,0.7-1.6,1-0.5C140.6,34.1,140.3,34.1,140,33.8z
			 M144.3,37c0.3,0.3,0.5-0.6,0.8,0.3C144.9,38.1,144.1,37.7,144.3,37z M145.5,35c-0.5-0.5-0.1-0.9-0.2-1.3l-0.6,1
			c-0.5-1.3,0-1.8-0.8-2.2c0.5-0.2,1.5-0.4,1.7,0.8c0.4-0.7,1.2,0.6,1.3-0.9l0.4,0.9c-0.3,0.8-0.6,0.2-0.6,1
			C146,33.6,145.7,33.6,145.5,35z M146.7,35.3c0.1-0.3,0-0.7,0.1-1c0.7-0.1,0.5,1.6,1-0.1C148.5,35.4,147.1,36.2,146.7,35.3z
			 M148.8,35c-0.2-0.3-0.4,0.3-0.6-0.3c0.4-1.4,0.7-0.5,1-2C149.7,33.6,149.1,34.3,148.8,35z M150.8,38c0.4-0.7,0.7-0.7,1-0.1
			C151.5,38.2,151.2,38.7,150.8,38z M161,14.8c-0.6,0.7-1.1,0.5-1.7,0.5C159.8,14.8,160.4,14.1,161,14.8z M158.2,18
			c-0.4,0.5-0.8,0.4-1.1-0.1C157.4,16.9,157.8,17.5,158.2,18z M157,36c0.5,0.6,0.4-0.9,1-1C158.7,36.3,156.9,37.8,157,36z
			 M162.5,17.5c-0.6-0.8-3.1,2.9-2.5-0.2c-0.5-0.1-1.5,0.8-1.6-0.6c0.3-0.8,1.6-0.9,1.8,0.2c0.3-1.6,0.5,0,0.9,0.1
			c-0.3-1.1,0.3-1.9,0.5-2.5c0.5,1-0.7,1.8-0.2,2.7c0.1-0.3,0.1-0.7,0.4-1C162,16.2,162.7,17,162.5,17.5z M163.3,15.3
			c-0.5-0.7-0.8-0.5-1,0.5c-0.3-1.2,0.3-1.3,0.7-1.6C163.2,14.5,163.5,14.9,163.3,15.3z M164.3,12c0.3,0.4,0.4,0.9,0.2,1.3
			c-0.1-0.2-0.3-0.7-0.4-0.5c-0.1,0.1-0.2,0.4-0.3,0.2L164.3,12z M165.1,16.7c0.2,0.8,0.5-0.4,0.8,0.7
			C165.6,17.8,164.7,17.5,165.1,16.7z M170.2,18.2c-0.6-0.2-1.2,0-1.8-0.6c0.4-0.4,0.6-1,0.8-1c-0.1,0.4,0.5,0.5,0.5,0.7
			c0.1-0.3,0-0.7,0.1-1C170.5,16.2,170.6,17.3,170.2,18.2z M172.1,18.2c0.1-0.1,0.1-0.3,0-0.4c0.3-0.3,0.7-0.4,1,0.3
			C172.8,18.8,172.4,18.6,172.1,18.2z M176.2,16.9c0.2,0.5,0.4,0.3,0.5,0.7c-0.3,0.3-0.8,0.6-0.8,1.4c-0.2-1-0.3-2-0.4-3
			c0.5,0.5,1.6-0.3,1.7,0.8C176.9,16.4,176.5,16.9,176.2,16.9z M178.8,16.1c-0.1,0.2,0,0.4,0.1,0.6c0.2-0.2,0.3-0.4,0.5,0
			c-0.6,0.2-1.2,0.5-1.8-0.2C178.2,16.4,178.4,16,178.8,16.1z M178.2,20c-0.1-0.3-0.3-0.4-0.4-0.5c0.3-0.8-0.4-1.6,0.2-2.3
			C178.4,18.2,178.3,19.1,178.2,20z M178.4,18.8c0.4-0.5,0.1-1.1,0.5-1.6c0.4,0.4,0.9,0.1,1.3,0.5c-0.1,0.3,0.1,0.7,0.1,1.1
			C179.7,19.6,179,19.3,178.4,18.8z M181.4,17.4c-0.1-0.2-0.3-0.7-0.4-0.5c0.1,0.3-0.1,0.6-0.2,0.8c-0.1-0.2-0.2-0.4-0.3-0.7
			c0.6-0.9,0.5-0.6,0.7-1.6c0.2,0.4,0.1,0.7,0.3,1.1c0.1-0.2,0.1-0.4,0.1-0.6C182,16.4,181.7,16.9,181.4,17.4z M182.6,18.5
			c0.4-0.5,0.8,0.1,1.1,0.1C183.3,19.6,182.6,19.8,182.6,18.5z M185.2,17.3c0.1,0.2,0.2,0.4,0.1,0.6c-0.2-0.3-0.2-0.6-0.2-0.9
			c0.3-0.1,0.7-0.6,1-0.1C185.8,17.9,185.6,17.1,185.2,17.3z M186.6,18.3c0.3-0.5,1.2-0.5,1.1,0.5C187.3,18.3,186.9,19.1,186.6,18.3
			z M188,20.3c-0.2-0.3-0.4,0-0.6-0.3c0.2-0.3-0.1-0.6,0-0.8c0.1,0.1,0.2,0.1,0.3-0.2C188.1,19.5,188.2,19.9,188,20.3z M188.2,19.9
			c0.6-0.9,1.2,0.1,1.8-0.3C189.4,20.6,188.8,20.4,188.2,19.9z M189,18.3c0.5-0.9,1-1.5,1.5-0.9C190.2,18.8,189.5,18.5,189,18.3z
			 M192,21.5c0.6,0,1.1-0.6,1.2-1.2c0.1,0.4,0,0.7,0.3,1.1C193,22.2,192.5,22.6,192,21.5z M59.9,90.3c0.4-1.1,0.8-0.7,1.2-0.1
			C61.1,91.1,60.3,91.1,59.9,90.3z M71.7,93.2c0.3-0.3,0.6-1.5,0.8-0.6C72.6,93.3,71.9,94.1,71.7,93.2z M76.8,86.5
			c0.3-0.7,0.6-0.5,0.9-0.3C77.4,86.6,77.1,87.1,76.8,86.5z M81.7,87.7c0-0.8,0.5-1.1,0.8-0.1C82.2,87.9,82,88.4,81.7,87.7z
			 M86.2,90.2c-0.8-1.7-0.9-1.6-1.8-2.3c0.5-0.7,1.2-1.6,1.9-1.3c0.1,0.5-0.6,0.9-0.1,1.5c0.6-0.6,0.3-1.2,0.6-1.8
			c0.2,0.5,0.4,0.3,0.5,0.7C87,88.5,86.5,88.8,86.2,90.2z M89.6,88.8c-0.7,0.5-1.3,0.2-1.9-0.4c0.3-0.8,0.4-0.3,0.7-1.6
			c0.2,0.3,0.4,0.9,0.5,0.7c0.2-0.3-0.1-0.6,0-0.8c0.4,0.4,0.8-0.7,1.2,0.7C89.8,88.3,89,87.5,89.6,88.8z M93.1,88.5
			c0.3-0.7,0.6-0.7,0.9,0.1C93.7,89.3,93.4,88.6,93.1,88.5z M98.2,89.8c0.5-0.5,1.4-0.8,1.5,0.3C99.2,90.4,98.7,90.6,98.2,89.8z
			 M109,89.7c0.3,0.3,0.6-0.2,0.5,0.7C109.2,91.2,108.6,90.3,109,89.7z M146.3,93.1c-0.1-0.3-0.3-0.4-0.4-0.5c0-0.6,0.4-1.2,0.7-1.2
			C147,92,146.7,92.5,146.3,93.1z M152.8,91.8c0.3-0.3,1.2-0.9,1.1,0.1C153.6,91.5,153.1,92.7,152.8,91.8z M184.1,91.1
			c-0.3-0.5-0.7,0.2-0.7,0.8c-0.2-0.4-0.3-0.7-0.3-1.1C183.4,90.4,184.2,90,184.1,91.1z M186.2,92.7c-0.4-0.8-0.2-1.6-0.3-2.3
			c-0.4,1-1,1.3-1,0.1c0.6-0.4,1.8-1,2,0.6C186.1,90.4,186.5,92.2,186.2,92.7z M188.4,90.6c-0.3-0.2-0.6,0.4-0.9-0.1
			C187.4,89.2,188.8,89.6,188.4,90.6z M195.9,87.9c0.5,0.6,1.6-1.2,1.7,0.4C197.1,88.2,196,89.6,195.9,87.9z M199.6,18
			c0.2,0.4,0.1-0.5,0.3-0.2c-0.3,0.6,0.3,0.1,0.4,0.9C200.2,19.4,199.4,18.6,199.6,18z M201.2,89.1c-0.2-0.9-0.5-0.4-0.8-0.7
			c0.4-0.6,0.8-1,1.1-0.3C201.4,88.4,201.5,88.8,201.2,89.1z M203.5,89.9c-0.1-0.3-0.3-0.6-0.4-0.9
			C203.5,88.1,204.1,89.3,203.5,89.9z M209,88.8c0.2-0.5,0-1.1-0.3-0.7c0.1,0.4,0.1,0.9,0,1.3c-0.2-0.4-0.5,0.3-0.7-0.5
			c0.6-0.6,0-1.3,0.6-1.8c0.3,0.3,0.5,0.1,0.8,0.7C209.2,88,209.4,89.2,209,88.8z M210.5,88.7c-0.2-0.6-0.1-2.1,0.4-1.4
			C210.7,87.7,210.8,88.2,210.5,88.7z M211,88.5c0.3-0.6,0.6-0.8,0.8-0.1C211.6,89,211.3,89.2,211,88.5z M214.1,89
			c-0.3-0.6-0.7,0.1-1-0.3c0.7-1.3-0.3-0.8,0-1.7c0.5,0.8,1.1-0.3,1.6,0.1C214.3,87.8,213.9,88.4,214.1,89z M214.2,18.7
			c0.3,0.2,0.6-0.5,0.9,0.5C214.8,19.9,214,19.6,214.2,18.7z M241.1,20.9c-0.2-0.7-0.9-0.6-0.7-1.5
			C240.6,20.3,241.4,19.6,241.1,20.9z M246,21.3l-0.3-0.7c0.6-0.4,0.5-0.2,0.8-1.4c0.3,0.4,0.6,0.1,0.9,0.9
			C246.9,21.1,246.5,21.2,246,21.3z M250.2,20.7c-0.5-1.1-1.2,0.7-1-1.2C249.5,20,250.4,19.6,250.2,20.7z M261.5,20.9
			c-0.4-0.5,0-0.8-0.2-1.3c0.4-0.6,0.7-0.2,1-0.1C262.4,20.2,261.9,20,261.5,20.9z M263.7,20.5c-0.5-0.5-0.4,1-0.9,0.3
			C262.7,20.3,263.9,19.1,263.7,20.5z M275.4,19.3c0.4-0.8,0.8-0.6,1.2-0.1C276.2,19.9,275.8,18.9,275.4,19.3z M291.7,87.8
			c-0.1-0.2-0.3-0.7-0.4-0.5c-0.2,0.4,0,1.9-0.5,1.6c-0.1-0.5,0.2-1-0.1-1.5c0.6-0.1,0.6-1.9,1.2-2C292,86.3,292.2,87.1,291.7,87.8z
			 M292.9,87.9c-0.4-0.9-0.2-1-0.8-1.1c0.1-0.6,0.3-2.1,0.8-1.4C291.9,86.8,294,85.9,292.9,87.9z M294.8,87.4
			c-0.3-0.5-0.6,0.8-0.9-0.1c0.3-1.1,0.4-0.9,0.7-2C294.9,86,294.7,86.7,294.8,87.4z M295.2,86.4c0.1-0.3,0-0.6-0.2-0.9
			c0.2-0.5,0.5-0.5,0.7,0.1C295.5,86.1,295.4,86.5,295.2,86.4z M295.7,17.2c0.4-1.1,1.3-1.2,1.2-0.1
			C296.6,16.4,296.1,17.7,295.7,17.2z M297.1,16.5c0.6-0.8,1.2-0.8,1.7,0.4C298.2,16.8,297.6,17.2,297.1,16.5z M299.1,16.7
			c-0.1-0.2-0.2-0.4-0.3-0.7c0.3-0.8,0.5-0.3,0.8-0.1L299.1,16.7z M318.9,14.4c0.5-1.1,0.9-0.9,1.4-1.1
			C320.2,14.1,319.3,14.9,318.9,14.4z M328.1,9.8c0.7,0.1,1-1.3,0.3-2.5c0.2-0.4,0.4-0.6,0.6-0.6c0.6,1-0.4,1.9,0.4,3
			C328.9,9.9,328.5,10.8,328.1,9.8z M334.8,54c-0.5,0.5-1.3,0.4-2.2,1.3c-0.1-0.3-0.3-0.6-0.2-0.9c0.6-1,1.8-1.9,2.7-2.5
			C335.5,52.6,335.2,53.3,334.8,54z M338.4,53.3c-0.8,0.2-1.5,0.8-2.3,0.6c0.7-0.8,1.4-1.1,2.1-1.9
			C338.4,52.4,338.5,52.8,338.4,53.3z M350,51.4c0.3,0.6-0.1,1.1-0.1,1.7c-0.3-0.3-0.5,0.2-0.8-0.7C349.4,51.9,349.7,52.2,350,51.4z
			 M339.3,53.3l-0.4-0.9c0.7-0.4,1.5-3.1,2.8-2.3C340.6,51.2,339.8,51.6,339.3,53.3z M341.9,13.5c-0.2-0.6-0.5,0.6-0.8-0.3
			C341.4,12.3,342.1,12.7,341.9,13.5z M343.4,14.3c0.6,0,1.2-1.2,1.7-0.5C344.5,14.4,343.9,15,343.4,14.3z M347.2,10.2
			c0.3,0.7,0.4,0.7,0.5,0c0.5,0.7-0.5,1.5-0.7,0.8C347.1,10.7,347.2,10.5,347.2,10.2z M347.3,14.4c-0.3,0.4-0.6,0.8-0.9-0.1
			C346.7,13.9,347,13.9,347.3,14.4z M346.3,35.2c-0.3,0-0.5-0.8-0.4-1.3c0.3,0.3,0.6-1.2,0.7-1.6c0.5,0.5,0.1,0.9,0.2,1.3
			c0.1-0.1,0.2,0,0.3,0.2C346.6,34,346.1,33.8,346.3,35.2z M347.8,35.2c0,0.6-0.5,1.3-0.8,0.6C347.4,35.1,347.3,34.2,347.8,35.2z
			 M349.9,14c-0.7-1.6-1.6,1.2-2.4,0.4c-0.4-0.9,0.4-0.5,0.3-1.2c-0.4,0.5-1,0.5-1-0.3c0.7-0.5,0.8-0.7,1.4-2
			c0.2,0.9,0.5,0.4,0.8-0.1c0.3,0.9,0.4,1,0.6,2.2c0.6-0.8,0.2-1.7,0.1-2.5C350.6,11,350.5,13,349.9,14z M366.2,20.7
			c0-0.6,0.6-1.8,0.9-1.2C367.2,20.3,366.6,20.8,366.2,20.7z"/>
	</g>
	<g id="XMLID_56_">
		<path style="fill-rule:evenodd;clip-rule:evenodd;fill:#FFCC00;" d="M101.5,9.9c-0.1,0.4,0.3,0.2,0.1,0.6c1.3-1.9,2.5-0.3,3.8-1.1
			c-1-0.9-2.1-0.8-3.2-0.7c-0.1,0.3,0.1,0.6,0.2,0.9C102.1,9.6,101.8,10.1,101.5,9.9z"/>
	</g>
	<g id="XMLID_55_">
		<path style="fill-rule:evenodd;clip-rule:evenodd;fill:#FFCC00;" d="M24,80c0.4,0.6,0.8-0.4,1.1-0.3C24.8,79.6,24.4,79.2,24,80z"
			/>
	</g>
	<g id="XMLID_54_">
		<path style="fill-rule:evenodd;clip-rule:evenodd;fill:#FFCC00;" d="M44.3,76.6c-0.3,0.3-0.2,0.7-0.4,1c0.2,0.2,0.4-0.3,0.6-0.6
			c0,0.3,0.1,0.6,0.2,0.9C45,77.1,44.6,77,44.3,76.6z"/>
	</g>
	<g id="XMLID_53_">
		<path style="fill-rule:evenodd;clip-rule:evenodd;fill:#FFCC00;" d="M27.8,44.3c-0.5,0.2,0.7,0.2,0.7,1.3c0.2-0.5,0.1-1,0.1-1.5
			C28.1,43.4,28.3,45,27.8,44.3z"/>
	</g>
	<g id="XMLID_52_">
		<path style="fill-rule:evenodd;clip-rule:evenodd;fill:#FFCC00;" d="M35.1,57.5c-0.3,0.4-0.3,0.8,0,1.3c0-0.6,0.3-0.7,0.6-0.6
			C35.9,57.6,35.2,57.8,35.1,57.5z"/>
	</g>
	<g id="XMLID_51_">
		<path style="fill-rule:evenodd;clip-rule:evenodd;fill:#FFCC00;" d="M33.8,52.3c0-0.4,0.2-0.7-0.1-1.1c-0.3,0.4-0.4,0.8-0.5,1.2
			c0.2,0.4,0.5-0.5,0.7,0.1C34,52.3,33.9,52.2,33.8,52.3z"/>
	</g>
	<g id="XMLID_50_">
		<path style="fill-rule:evenodd;clip-rule:evenodd;fill:#FFCC00;" d="M49.6,83.3c0.4,1,0.3-0.5,0.5-0.8c0.3-0.5,0,0.7,0.4,0.9
			c0.6-1.2,1.2-0.8,1.8-0.3c0.1-0.4,0.1-0.8,0.2-1.2c-0.5,0.6-1.6,0.8-2.4,0C49.9,82.8,49.6,82.6,49.6,83.3z"/>
	</g>
	<g id="XMLID_49_">
		<path style="fill-rule:evenodd;clip-rule:evenodd;fill:#FFCC00;" d="M32.7,47.2c1.4-0.2,2.3,0.2,3.6-1c-0.2-0.4-0.5-0.2-0.3-0.7
			c-0.5-0.4-0.3,0.3-0.8,0.6c0.1-1.1-1.7-0.3-1.2-1.1C33.7,44.1,33,46.2,32.7,47.2z"/>
	</g>
	<g id="XMLID_48_">
		<path style="fill-rule:evenodd;clip-rule:evenodd;fill:#FFCC00;" d="M55.4,90.8c0.3,0.8,1.6,0.8,2.4,0.4
			C57,91.1,56.2,90.9,55.4,90.8z"/>
	</g>
	<g id="XMLID_47_">
		<path style="fill-rule:evenodd;clip-rule:evenodd;fill:#FFCC00;" d="M17.9,10.8c0,0.8-0.4,0.3-0.7,1.2c0.7,0.5,0.7-0.3,1-0.6
			C18.4,11.1,18,11.3,17.9,10.8z"/>
	</g>
	<g id="XMLID_46_">
		<path style="fill-rule:evenodd;clip-rule:evenodd;fill:#FFCC00;" d="M35.7,47.4c0.4-0.2,0.8,0.4,1.3-0.5
			C36.5,45.9,36.1,47.2,35.7,47.4z"/>
	</g>
	<g id="XMLID_45_">
		<path style="fill-rule:evenodd;clip-rule:evenodd;fill:#FFCC00;" d="M54.2,79.5c-0.3,0.3,0,0.7-0.1,1c0.3,0.4,0.5-0.1,0.8-0.1
			C55.1,79.8,54.3,80.6,54.2,79.5z"/>
	</g>
	<g id="XMLID_44_">
		<path style="fill-rule:evenodd;clip-rule:evenodd;fill:#FFCC00;" d="M29.5,22.9c0.1-0.2,0-0.4-0.1-0.6c0.2-0.6,0.5,0,0.7-0.8
			c-0.5-0.3-0.9-0.8-1.4,0.3C29.1,22.3,29.3,21.7,29.5,22.9z"/>
	</g>
	<g id="XMLID_43_">
		<path style="fill-rule:evenodd;clip-rule:evenodd;fill:#FFCC00;" d="M42,36.1c0.6-0.5,0.5,0.5,1.1,0.5c0.3-1,0.2-1,0.5-1.6
			C43.1,35.5,42.1,35.3,42,36.1z"/>
	</g>
	<g id="XMLID_42_">
		<path style="fill-rule:evenodd;clip-rule:evenodd;fill:#FFCC00;" d="M66.8,83.7c-0.2-0.8,0.6-0.3,0.5-1.2
			c-0.2-0.6-0.5,0.6-0.8-0.3c0.1,0.9-0.5,1.3-0.1,2.5c0.3-0.4,0.6-0.6,0.9-0.3C67.6,83.8,66.9,84,66.8,83.7z"/>
	</g>
	<g id="XMLID_41_">
		<path style="fill-rule:evenodd;clip-rule:evenodd;fill:#FFCC00;" d="M68.8,84.7c0.5,0.7,1.1-0.8,1.6,0.6c0.4-0.8-0.3-0.6-0.1-1.1
			C69.8,84.4,69.3,84.2,68.8,84.7z"/>
	</g>
	<g id="XMLID_40_">
		<path style="fill-rule:evenodd;clip-rule:evenodd;fill:#FFCC00;" d="M71.2,83.9c-0.2-0.4-0.1-0.7-0.3-1.1
			c-0.7,0.5-1.3,0.3-1.9-0.4c0.1,1.8,1.2,0.5,1.6,2c0.4-1.1,0.8-0.3,1.1,0.5c0.7-0.3,0.7-0.8,1.3-1.4c-0.2-0.2-0.4-0.3-0.7-0.5
			c-0.3,0.3,0,0.7-0.1,1c-0.1,0.1-0.2,0-0.3,0.2c-0.1-0.4,0.3-0.8-0.2-1.3C71.4,83.1,71.3,83.3,71.2,83.9z"/>
	</g>
	<g id="XMLID_39_">
		<path style="fill-rule:evenodd;clip-rule:evenodd;fill:#FFCC00;" d="M41.1,0.8c-0.1,0.3,0,0.3,0.1,0.2c0.2,0.3,0.3,0.6,0.2,0.9
			c0.2,0.2,0.4-0.3,0.6-0.6C41.7,1,41.4,1,41.1,0.8z"/>
	</g>
	<g id="XMLID_38_">
		<path style="fill-rule:evenodd;clip-rule:evenodd;fill:#FFCC00;" d="M52,7.4c-0.2,0.5,1.5,1.7,2,0.6c-0.2-0.2-0.9,0.5-0.7-0.5
			C53,7,52.5,8.5,52,7.4z"/>
	</g>
	<g id="XMLID_37_">
		<path style="fill-rule:evenodd;clip-rule:evenodd;fill:#FFCC00;" d="M57.8,11c0.5,0.4,0.7,2,1.3,1c-0.1-1.7-1.2-0.4-1.1-2.2
			C57.5,10.2,58.3,10.6,57.8,11z"/>
	</g>
	<g id="XMLID_36_">
		<path style="fill-rule:evenodd;clip-rule:evenodd;fill:#FFCC00;" d="M79.4,44.3c-0.3,0.8,0.4,0.4,0.6,0.7c0.2-0.3,0.1-0.9,0.4-0.6
			c0.1-0.1,0.1-0.3,0-0.4l-0.2-0.4c0.1,0.3-0.6,1.5-0.4,0.6C79.5,43.8,79.6,44.6,79.4,44.3z"/>
	</g>
	<g id="XMLID_35_">
		<path style="fill-rule:evenodd;clip-rule:evenodd;fill:#FFCC00;" d="M70.6,14c0,0.8,1,0.6,1.3,1c-0.2,1.2,0.8,2.2,1.1,2.6
			c0-1.2-0.3-2.4-0.5-3.6c-0.1,2.1-0.7-0.4-1.5-0.3C71,14.1,70.8,14.3,70.6,14z"/>
	</g>
	<g id="XMLID_34_">
		<path style="fill-rule:evenodd;clip-rule:evenodd;fill:#FFCC00;" d="M74.2,18.3c0.1,0.9,1.3,0.6,1.8,1c0.4-0.7-0.8-0.4-0.4-1.3
			C75.4,18.3,74.7,19,74.2,18.3z"/>
	</g>
	<g id="XMLID_33_">
		<path style="fill-rule:evenodd;clip-rule:evenodd;fill:#FFCC00;" d="M73.1,14.8c-0.5,0.5,0,0.7,0.2,0.4c0.2,0.4,0.2,0.7,0.1,1.1
			c0.2,0.2,0.4,0,0.6,0.3c-0.2-0.4-0.3-1.8,0.4-0.6c0.1-0.3-0.2-0.7-0.3-1.1C73.7,15.4,73.4,15.4,73.1,14.8z"/>
	</g>
	<g id="XMLID_32_">
		<path style="fill-rule:evenodd;clip-rule:evenodd;fill:#FFCC00;" d="M78.9,16.4c-0.2-0.2-0.4,0-0.6-0.3c-0.4,0.5,0.1,1-0.4,1.4
			C78.3,17.5,78.3,17,78.9,16.4z"/>
	</g>
	<g id="XMLID_31_">
		<path style="fill-rule:evenodd;clip-rule:evenodd;fill:#FFCC00;" d="M84.1,7.6c-0.1,0.8-0.2,0.2-0.5,0.8c0.4,0.5-0.3,1,0.3,1.5
			l0.4-0.6c-0.2-0.6-0.4-1.2,0.2-0.8C84.8,7.9,84.2,8.3,84.1,7.6z"/>
	</g>
	<g id="XMLID_30_">
		<path style="fill-rule:evenodd;clip-rule:evenodd;fill:#FFCC00;" d="M92.1,23c-0.3-0.3-0.1,0.6,0.1,0.2c0.1,0.4,0,0.8-0.3,1.2
			c0.4,0.3,0.9-1.2,0.5-1.6C92.3,23.1,92.2,23.1,92.1,23z"/>
	</g>
	<g id="XMLID_29_">
		<path style="fill-rule:evenodd;clip-rule:evenodd;fill:#FFCC00;" d="M104.6,50.3c0.1,0.2,0.2-0.1,0.1-0.2c0.4-0.7,0.7,1.1,1-0.1
			c-0.4-1.1-0.7-0.3-1.1-0.5C104.5,49.7,104.8,50,104.6,50.3z"/>
	</g>
	<g id="XMLID_28_">
		<path style="fill-rule:evenodd;clip-rule:evenodd;fill:#FFCC00;" d="M96.2,7.1c-0.4-0.9-0.9-0.9-1.3-0.5c0.5,1.2,1,0.9,1.5,1.8
			c0.3-1.5,1-0.6,1.6-1.1C97.9,7.3,96.4,5.9,96.2,7.1z"/>
	</g>
	<g id="XMLID_27_">
		<path style="fill-rule:evenodd;clip-rule:evenodd;fill:#FFCC00;" d="M97.7,8.7c0.6,0.2,1.2-0.8,1.8,0.2c0.2-2.4,1.8,0.7,2.6-0.4
			c0-0.3-0.2-0.7-0.1-1.1c-0.5,0.2-1,1.2-1.5-0.3c-0.7,0.8-1.4,0.1-2.2,0c-0.1,0.3,0.2,0.7,0.3,1.1C98.4,8.5,98,7.8,97.7,8.7z"/>
	</g>
	<g id="XMLID_26_">
		<path style="fill-rule:evenodd;clip-rule:evenodd;fill:#FFCC00;" d="M96.5,3.8c0.1,2.2,2.7,2.3,3.3,1.3
			C98.7,4.9,97.2,5.7,96.5,3.8z"/>
	</g>
	<g id="XMLID_25_">
		<path style="fill-rule:evenodd;clip-rule:evenodd;fill:#FFCC00;" d="M105,6.8c0.4,0.3,0.9,0.4,1.3,0.5
			C106.3,6.5,105.4,6.7,105,6.8z"/>
	</g>
	<g id="XMLID_24_">
		<path style="fill-rule:evenodd;clip-rule:evenodd;fill:#FFCC00;" d="M111.1,8.2c0.7,0.9,2.4,1.1,3.5,0.9c-0.4-1.2-1,0.1-1.1-1.4
			c-0.1,1.5-0.9-0.3-1.4,0.7c-0.4-0.6,0.4-1.5-0.3-1.5C112,8.1,111.6,8.4,111.1,8.2z"/>
	</g>
	<g id="XMLID_23_">
		<path style="fill-rule:evenodd;clip-rule:evenodd;fill:#FFCC00;" d="M110.9,6.1c0,1.2,1,0.3,1.3,0.5c0.3-0.8-0.4-0.3-0.5-1.1
			C111.3,6.4,111.4,6.6,110.9,6.1z"/>
	</g>
	<g id="XMLID_22_">
		<path style="fill-rule:evenodd;clip-rule:evenodd;fill:#FFCC00;" d="M114.8,9.2c0.8,0.7,1.6,0.9,2.4,0.8
			C116.8,7.4,115.5,8.8,114.8,9.2z"/>
	</g>
	<g id="XMLID_21_">
		<path style="fill-rule:evenodd;clip-rule:evenodd;fill:#FFCC00;" d="M127,12c0.3,0.2,0.7,0,1.2-0.1l-0.3-0.7
			C127.5,12.2,127.3,11.2,127,12z"/>
	</g>
	<g id="XMLID_20_">
		<path style="fill-rule:evenodd;clip-rule:evenodd;fill:#FFCC00;" d="M133.5,9.4l-0.7,1.2c0.6,0.4,0.6-1.3,1.3-0.5
			C134.3,9.5,133.6,9.7,133.5,9.4z"/>
	</g>
	<g id="XMLID_19_">
		<path style="fill-rule:evenodd;clip-rule:evenodd;fill:#FFCC00;" d="M140,10.8c0.2,2,0.7-1,1.2,1.2c0-0.3,0.1-0.6,0.2-0.8
			C141,10.2,140.5,11,140,10.8z"/>
	</g>
	<g id="XMLID_18_">
		<path style="fill-rule:evenodd;clip-rule:evenodd;fill:#FFCC00;" d="M150.8,11.2c-0.3-0.3-0.1,0.6,0.1,0.2c0.2,0.5-0.1,1-0.2,1.5
			c0.4,0.1,0.8-0.8,1.1,0.1c0.5-2,1.1-0.7,1.7-0.9c0.5-0.4-0.3-0.9,0.3-1.2c-0.7,0.5-1.3-0.4-1.9,0.5c-0.2-0.4-0.1-0.7-0.3-1.1
			C151.6,10.9,151.1,11.2,150.8,11.2z"/>
	</g>
	<g id="XMLID_17_">
		<path style="fill-rule:evenodd;clip-rule:evenodd;fill:#FFCC00;" d="M169.2,13.5c0.6,1,1.2-1.1,1.8,0.2c0.1-0.3-0.2-0.7-0.3-1.1
			C170.1,13.8,169.7,12.2,169.2,13.5z"/>
	</g>
	<g id="XMLID_16_">
		<path style="fill-rule:evenodd;clip-rule:evenodd;fill:#FFCC00;" d="M181.1,13.1c0,0.8,1.4,1,1.5,0.3
			C182,13.3,181.5,13.7,181.1,13.1z"/>
	</g>
	<g id="XMLID_15_">
		<path style="fill-rule:evenodd;clip-rule:evenodd;fill:#FFCC00;" d="M192.2,18.4c0.2-0.5,0.2-1.1,0.3-1.7
			c-0.3-0.3-0.6-0.1-0.9,0.3c0.2,0.7,0.5,0,0.7,0.1C192.5,17.6,191.5,17.5,192.2,18.4z"/>
	</g>
	<g id="XMLID_14_">
		<path style="fill-rule:evenodd;clip-rule:evenodd;fill:#FFCC00;" d="M235.9,16.4c-0.1,1.1,0.8,0.4,1.1,0.9c0.1-0.1,0.1-0.3,0-0.4
			c-0.1-0.1-0.1-0.3-0.2-0.4C236.5,17,236.2,16.3,235.9,16.4z"/>
	</g>
	<g id="XMLID_13_">
		<path style="fill-rule:evenodd;clip-rule:evenodd;fill:#FFCC00;" d="M274,93.9c0.6,0.2,1.3-0.1,1.9,0.4c0.3-1.2,1.1-0.6,1.7-0.5
			c0.1-0.2,0-0.4,0.1-0.6c-0.1-0.2-0.1-0.3,0-0.4C276.5,93.6,275.3,93,274,93.9z"/>
	</g>
	<g id="XMLID_12_">
		<path style="fill-rule:evenodd;clip-rule:evenodd;fill:#FFCC00;" d="M301.9,10c0.6-0.5-0.1-1.1,0.5-1.6c-0.1-0.1-0.2,0-0.3-0.2
			l-0.2,0.4C302.5,9.1,301.4,9.5,301.9,10z"/>
	</g>
	<g id="XMLID_11_">
		<path style="fill-rule:evenodd;clip-rule:evenodd;fill:#FFCC00;" d="M307,11.6c0.6,1.3,0-1.6,0.6-1c0.2-0.7-0.5-0.8-0.7-0.1
			C307.2,10.9,307.2,11.2,307,11.6z"/>
	</g>
</g>
<g>
	<path d="M41.5,80.3h-11c-0.9,0-1.6-0.2-2-0.6c-0.4-0.4-0.6-1.1-0.6-2V31.6c0-0.9,0.2-1.6,0.6-2c0.4-0.4,1.1-0.6,2-0.6h31.7
		c0.9,0,1.6,0.2,2,0.6c0.4,0.4,0.6,1.1,0.6,2v8.5c0,0.9-0.2,1.6-0.6,2c-0.4,0.4-1.1,0.6-2,0.6H44v7.4h12.4c0.9,0,1.6,0.2,2,0.6
		c0.4,0.4,0.6,1.1,0.6,2v8.5c0,0.9-0.2,1.6-0.6,2c-0.4,0.4-1.1,0.6-2,0.6H44v14c0,0.9-0.2,1.6-0.6,2C43,80.1,42.4,80.3,41.5,80.3z
		 M35.6,73.9h0.7V57.2h16.2v-0.7H36.4V36.2h22v-0.7H35.6V73.9z"/>
	<path d="M85.4,80.3h-11c-0.9,0-1.6-0.2-2-0.6c-0.4-0.4-0.6-1.1-0.6-2V31.6c0-0.9,0.2-1.6,0.6-2c0.4-0.4,1.1-0.6,2-0.6h23.7
		c5.3,0,9,1.1,11,3.3c2,2.2,3,5.1,3,8.6v3.3c0,2-0.3,3.7-0.9,5.1c-0.6,1.4-1.6,2.4-3.1,3c2.6,0.3,4.6,1.3,6.2,3.1
		c1.6,1.8,2.4,4.2,2.4,7.2v15.1c0,0.9-0.2,1.6-0.6,2c-0.4,0.4-1.1,0.6-2,0.6h-11c-0.9,0-1.6-0.2-2-0.6c-0.4-0.4-0.6-1.1-0.6-2V66.8
		c0-1-0.2-1.8-0.6-2.3c-0.4-0.5-1.1-0.7-2.1-0.7h-10v13.9c0,0.9-0.2,1.6-0.6,2C86.9,80.1,86.3,80.3,85.4,80.3z M80.2,73.9V57.4h20.1
		c2.7,0,4.7,0.6,6,1.7c1.3,1.2,1.9,2.9,1.9,5.2v9.5h0.7v-9.5c0-2.5-0.7-4.4-2.1-5.7c-1.4-1.3-3.6-2-6.5-2h-0.8
		c1.7-0.5,2.8-1.5,3.4-2.9c0.6-1.4,0.9-3.2,0.9-5.4v-4.9c0-2.3-0.7-4.3-2-5.8c-1.3-1.5-3.4-2.3-6.1-2.3H79.5v38.4H80.2z M95.8,36.2
		c2.5,0,4.4,0.7,5.6,2.1c1.2,1.4,1.8,3.2,1.8,5.3v5c0,2.6-0.5,4.6-1.5,6c-1,1.4-3,2.1-5.9,2.1H80.2V36.2H95.8z M87.9,41.9V51h5.3
		c1.2,0,2.1-0.3,2.5-1s0.6-1.4,0.6-2.4v-2.4c0-0.9-0.2-1.7-0.6-2.4s-1.3-1-2.5-1H87.9z"/>
	<path d="M126.1,80.3c-0.9,0-1.6-0.2-2-0.6c-0.4-0.4-0.6-1.1-0.6-2v-8.5c0-0.9,0.2-1.6,0.6-2c0.4-0.4,1.1-0.6,2-0.6h7V42.8h-7
		c-0.9,0-1.6-0.2-2-0.6c-0.4-0.4-0.6-1.1-0.6-2v-8.6c0-0.9,0.2-1.6,0.6-2c0.4-0.4,1.1-0.6,2-0.6h30.3c0.9,0,1.6,0.2,2,0.6
		c0.4,0.4,0.6,1.1,0.6,2v8.6c0,0.9-0.2,1.6-0.6,2c-0.4,0.4-1.1,0.6-2,0.6h-6.9v23.9h6.9c0.9,0,1.6,0.2,2,0.6c0.4,0.4,0.6,1.1,0.6,2
		v8.5c0,0.9-0.2,1.6-0.6,2c-0.4,0.4-1.1,0.6-2,0.6H126.1z M152.6,73.9v-0.7h-10.9v-37h10.9v-0.7H130v0.7h11v37h-11v0.7H152.6z"/>
	<path d="M203.3,80.3h-33c-0.9,0-1.6-0.2-2-0.6c-0.4-0.4-0.6-1.1-0.6-2V31.6c0-0.9,0.2-1.6,0.6-2c0.4-0.4,1.1-0.6,2-0.6h33
		c0.9,0,1.6,0.2,2,0.6c0.4,0.4,0.6,1.1,0.6,2V40c0,0.9-0.2,1.6-0.6,2c-0.4,0.4-1.1,0.6-2,0.6h-19.6V48h13.9c0.9,0,1.6,0.2,2,0.6
		c0.4,0.4,0.6,1.1,0.6,2v7.6c0,0.9-0.2,1.6-0.6,2c-0.4,0.4-1.1,0.6-2,0.6h-13.9v6.1h19.6c0.9,0,1.6,0.2,2,0.6c0.4,0.4,0.6,1.1,0.6,2
		v8.3c0,0.9-0.2,1.6-0.6,2C204.8,80.1,204.2,80.3,203.3,80.3z M199.5,73.2h-23.3V54.7h17.5V54h-17.5V36.2h23.3v-0.7h-24v38.4h24
		V73.2z"/>
	<path d="M227.5,80.3h-10.7c-0.9,0-1.6-0.2-2-0.6c-0.4-0.4-0.6-1.1-0.6-2V31.6c0-0.9,0.2-1.6,0.6-2c0.4-0.4,1.1-0.6,2-0.6h7.4
		c0.9,0,1.7,0.1,2.3,0.4c0.6,0.3,1.3,0.8,1.9,1.5l13.8,15.8V31.6c0-0.9,0.2-1.6,0.6-2c0.4-0.4,1.1-0.6,2-0.6h10.7
		c0.9,0,1.6,0.2,2,0.6c0.4,0.4,0.6,1.1,0.6,2v46.1c0,0.9-0.2,1.6-0.6,2c-0.4,0.4-1.1,0.6-2,0.6h-10.7c-0.9,0-1.6-0.2-2-0.6
		c-0.4-0.4-0.6-1.1-0.6-2V69L230,54.2v23.5c0,0.9-0.2,1.6-0.6,2C229,80.1,228.4,80.3,227.5,80.3z M223.6,36
		c-0.2-0.2-0.4-0.4-0.6-0.5c-0.1-0.1-0.3-0.1-0.5-0.1s-0.4,0.1-0.6,0.2c-0.2,0.1-0.3,0.4-0.3,0.6v37.6h0.7V36.4c0,0,0-0.1,0-0.1
		c0,0,0.1-0.1,0.1-0.1c0,0,0.1,0,0.2,0.1c0.1,0,0.1,0.1,0.2,0.1l26.9,30.2v7.3h0.7V35.5h-0.7v30L223.6,36z"/>
	<path d="M294.3,80.3h-24c-0.9,0-1.6-0.2-2-0.6c-0.4-0.4-0.6-1.1-0.6-2V31.6c0-0.9,0.2-1.6,0.6-2c0.4-0.4,1.1-0.6,2-0.6h24
		c5.9,0,10.3,1.2,13.2,3.6c2.9,2.4,4.3,6,4.3,11v22.2c0,4.9-1.4,8.6-4.3,11C304.7,79.1,300.3,80.3,294.3,80.3z M275.6,73.9h17.2
		c2.4,0,4.4-0.2,5.9-0.7s2.7-1.2,3.5-2c0.8-0.9,1.3-1.9,1.6-3.1c0.3-1.2,0.4-2.5,0.4-3.8V45.4c0-1.4-0.1-2.7-0.4-3.9
		c-0.3-1.2-0.8-2.3-1.6-3.1c-0.8-0.9-2-1.6-3.5-2.1c-1.5-0.5-3.5-0.8-5.9-0.8h-17.2V73.9z M292.8,36.2c2.2,0,4,0.2,5.4,0.7
		c1.4,0.5,2.5,1.1,3.2,1.9c0.8,0.8,1.3,1.8,1.6,2.9c0.3,1.1,0.4,2.3,0.4,3.6v18.8c0,1.3-0.1,2.5-0.4,3.6c-0.3,1.1-0.8,2.1-1.5,2.8
		c-0.8,0.8-1.8,1.4-3.2,1.8c-1.4,0.5-3.2,0.7-5.5,0.7h-16.5v-37H292.8z M284,42.7v24.2h8.5c1.1,0,2-0.3,2.5-0.9
		c0.5-0.6,0.8-1.4,0.8-2.6V46.1c0-1.2-0.3-2.1-0.8-2.6c-0.5-0.5-1.4-0.8-2.5-0.8H284z"/>
	<path d="M344.6,80.3h-22.5c-0.9,0-1.6-0.2-2-0.6c-0.4-0.4-0.6-1.1-0.6-2v-8.3c0-0.9,0.2-1.6,0.6-2c0.4-0.4,1.1-0.6,2-0.6h19.1
		c0.6,0,1.1-0.2,1.4-0.6c0.3-0.4,0.5-0.9,0.5-1.5c0-0.8-0.2-1.4-0.5-1.8c-0.3-0.4-0.8-0.6-1.4-0.6l-10.7-1.5c-3.3-0.5-6-1.6-8-3.3
		c-2-1.7-3-4.6-3-8.5v-7.5c0-4,1.3-7.1,3.9-9.3c2.6-2.2,6.2-3.2,10.8-3.2h19.9c0.9,0,1.6,0.2,2,0.6c0.4,0.4,0.6,1.1,0.6,2v8.5
		c0,0.9-0.2,1.6-0.6,2c-0.4,0.4-1.1,0.6-2,0.6h-16.6c-0.6,0-1.1,0.2-1.4,0.6c-0.3,0.4-0.5,0.9-0.5,1.5c0,0.6,0.2,1.1,0.5,1.6
		c0.3,0.4,0.8,0.7,1.4,0.7l10.6,1.4c3.3,0.5,6,1.6,8,3.3c2,1.7,3.1,4.6,3.1,8.5v7.5c0,4-1.3,7.1-3.9,9.3
		C352.8,79.2,349.2,80.3,344.6,80.3z M350.4,35.5h-15.8c-2.2,0-3.9,0.6-5.3,1.8c-1.3,1.2-2,2.8-2,4.7v5.8c0,1.9,0.4,3.3,1.2,4
		c0.8,0.7,1.8,1.2,3,1.5l15,3.1c1.3,0.3,2.4,0.8,3.2,1.7c0.8,0.8,1.2,2.4,1.2,4.6v4.1c0,1.9-0.7,3.4-2,4.7c-1.3,1.2-3,1.8-5.2,1.8
		H326v0.7h17.7c2.4,0,4.3-0.7,5.8-2c1.4-1.4,2.1-3.1,2.1-5.2v-4.1c0-2.5-0.5-4.2-1.4-5.1c-0.9-0.9-2.1-1.6-3.5-1.8l-15-3.1
		c-1.1-0.2-2-0.6-2.6-1.3c-0.7-0.7-1-1.8-1-3.5v-5.8c0-1.7,0.6-3,1.8-4.1c1.2-1.1,2.8-1.6,4.8-1.6h15.8V35.5z"/>
</g>
</svg>
